M48
; DRILL file {KiCad (6.0.5)} date Tue Aug 16 14:45:39 2022
; FORMAT={-:-/ absolute / inch / decimal}
; #@! TF.CreationDate,2022-08-16T14:45:39+02:00
; #@! TF.GenerationSoftware,Kicad,Pcbnew,(6.0.5)
; #@! TF.FileFunction,Plated,1,2,PTH
FMAT,2
INCH
; #@! TA.AperFunction,Plated,PTH,ViaDrill
T1C0.0157
; #@! TA.AperFunction,Plated,PTH,ComponentDrill
T2C0.0236
; #@! TA.AperFunction,Plated,PTH,ComponentDrill
T3C0.0335
; #@! TA.AperFunction,Plated,PTH,ComponentDrill
T4C0.0374
; #@! TA.AperFunction,Plated,PTH,ComponentDrill
T5C0.0394
; #@! TA.AperFunction,Plated,PTH,ComponentDrill
T6C0.0429
; #@! TA.AperFunction,Plated,PTH,ComponentDrill
T7C0.0591
; #@! TA.AperFunction,Plated,PTH,ComponentDrill
T8C0.0669
; #@! TA.AperFunction,Plated,PTH,ComponentDrill
T9C0.0787
; #@! TA.AperFunction,Plated,PTH,ComponentDrill
T10C0.0835
%
G90
G05
T1
X5.4331Y-1.5748
X5.6206Y-3.278
X5.6594Y-3.1496
X5.7185Y-3.3268
X5.9449Y-2.126
X5.9941Y-1.9882
X6.0138Y-1.8898
X6.2008Y-1.2894
X6.2247Y-1.6597
X6.2992Y-3.1519
X6.3016Y-2.1578
X6.3364Y-1.9419
X6.3631Y-1.8955
X6.3878Y-1.4272
X6.5256Y-2.0669
X6.6043Y-1.7421
X6.6925Y-1.6887
X6.7012Y-1.4237
X6.788Y-1.9713
X6.8504Y-2.0965
X6.8996Y-1.8701
X6.8996Y-2.0079
X6.9066Y-1.4196
X6.9617Y-1.7411
X6.9655Y-1.8229
X6.9783Y-2.126
X6.9967Y-2.1818
X7.0453Y-2.0905
X7.0519Y-1.517
X7.0841Y-1.8679
X7.1196Y-1.7374
X7.1592Y-2.0348
X7.1624Y-1.9531
X7.1927Y-2.0885
X7.1942Y-2.2011
X7.2441Y-1.9587
X7.2469Y-1.8996
X7.4902Y-1.4173
T3
X4.7426Y-1.5748
X4.7426Y-1.7717
T4
X5.0787Y-1.2205
X5.1772Y-1.2205
X5.2756Y-1.2205
X5.374Y-1.2205
X5.6299Y-1.2205
X5.7283Y-1.2205
X5.8268Y-1.2205
X5.9252Y-1.2205
X6.0236Y-1.2205
X6.122Y-1.2205
X6.378Y-1.2205
X6.4764Y-1.2205
X6.5748Y-1.2205
X6.6732Y-1.2205
T5
X4.6467Y-2.7461
X4.6467Y-2.8445
X5.0591Y-3.248
X5.1575Y-3.248
T6
X7.0435Y-3.3439
T7
X7.9118Y-1.711
T8
X7.8118Y-1.611
X7.8118Y-1.811
X8.0118Y-1.611
X8.0118Y-1.811
T9
X4.9213Y-2.6969
X7.7559Y-2.6969
T10
X7.4439Y-3.1923
T2
G00X4.6225Y-1.5354
M15
G01X4.6501Y-1.5354
M16
G05
G00X4.6501Y-1.811
M15
G01X4.6225Y-1.811
M16
G05
T0
M30
