%TF.GenerationSoftware,KiCad,Pcbnew,(6.0.5)*%
%TF.CreationDate,2022-08-16T14:45:35+02:00*%
%TF.ProjectId,ATMega328-LoRa-Sol-ADIO,41544d65-6761-4333-9238-2d4c6f52612d,rev?*%
%TF.SameCoordinates,Original*%
%TF.FileFunction,Soldermask,Top*%
%TF.FilePolarity,Negative*%
%FSLAX46Y46*%
G04 Gerber Fmt 4.6, Leading zero omitted, Abs format (unit mm)*
G04 Created by KiCad (PCBNEW (6.0.5)) date 2022-08-16 14:45:35*
%MOMM*%
%LPD*%
G01*
G04 APERTURE LIST*
G04 Aperture macros list*
%AMRoundRect*
0 Rectangle with rounded corners*
0 $1 Rounding radius*
0 $2 $3 $4 $5 $6 $7 $8 $9 X,Y pos of 4 corners*
0 Add a 4 corners polygon primitive as box body*
4,1,4,$2,$3,$4,$5,$6,$7,$8,$9,$2,$3,0*
0 Add four circle primitives for the rounded corners*
1,1,$1+$1,$2,$3*
1,1,$1+$1,$4,$5*
1,1,$1+$1,$6,$7*
1,1,$1+$1,$8,$9*
0 Add four rect primitives between the rounded corners*
20,1,$1+$1,$2,$3,$4,$5,0*
20,1,$1+$1,$4,$5,$6,$7,0*
20,1,$1+$1,$6,$7,$8,$9,0*
20,1,$1+$1,$8,$9,$2,$3,0*%
%AMFreePoly0*
4,1,22,0.500000,-0.750000,0.000000,-0.750000,0.000000,-0.745033,-0.079941,-0.743568,-0.215256,-0.701293,-0.333266,-0.622738,-0.424486,-0.514219,-0.481581,-0.384460,-0.499164,-0.250000,-0.500000,-0.250000,-0.500000,0.250000,-0.499164,0.250000,-0.499963,0.256109,-0.478152,0.396186,-0.417904,0.524511,-0.324060,0.630769,-0.204165,0.706417,-0.067858,0.745374,0.000000,0.744959,0.000000,0.750000,
0.500000,0.750000,0.500000,-0.750000,0.500000,-0.750000,$1*%
%AMFreePoly1*
4,1,20,0.000000,0.744959,0.073905,0.744508,0.209726,0.703889,0.328688,0.626782,0.421226,0.519385,0.479903,0.390333,0.500000,0.250000,0.500000,-0.250000,0.499851,-0.262216,0.476331,-0.402017,0.414519,-0.529596,0.319384,-0.634700,0.198574,-0.708877,0.061801,-0.746166,0.000000,-0.745033,0.000000,-0.750000,-0.500000,-0.750000,-0.500000,0.750000,0.000000,0.750000,0.000000,0.744959,
0.000000,0.744959,$1*%
G04 Aperture macros list end*
%ADD10RoundRect,0.150000X-0.825000X-0.150000X0.825000X-0.150000X0.825000X0.150000X-0.825000X0.150000X0*%
%ADD11RoundRect,0.250000X0.625000X-0.400000X0.625000X0.400000X-0.625000X0.400000X-0.625000X-0.400000X0*%
%ADD12R,1.000000X1.000000*%
%ADD13RoundRect,0.250000X-0.600000X-0.750000X0.600000X-0.750000X0.600000X0.750000X-0.600000X0.750000X0*%
%ADD14O,1.700000X2.000000*%
%ADD15RoundRect,0.250000X0.600000X0.725000X-0.600000X0.725000X-0.600000X-0.725000X0.600000X-0.725000X0*%
%ADD16O,1.700000X1.950000*%
%ADD17RoundRect,0.237500X0.300000X0.237500X-0.300000X0.237500X-0.300000X-0.237500X0.300000X-0.237500X0*%
%ADD18R,2.000000X1.500000*%
%ADD19R,2.000000X3.800000*%
%ADD20RoundRect,0.237500X0.237500X-0.300000X0.237500X0.300000X-0.237500X0.300000X-0.237500X-0.300000X0*%
%ADD21R,1.350000X0.400000*%
%ADD22R,1.900000X1.500000*%
%ADD23O,1.900000X1.200000*%
%ADD24R,1.900000X1.200000*%
%ADD25C,1.450000*%
%ADD26RoundRect,0.150000X-0.587500X-0.150000X0.587500X-0.150000X0.587500X0.150000X-0.587500X0.150000X0*%
%ADD27RoundRect,0.150000X-0.875000X-0.150000X0.875000X-0.150000X0.875000X0.150000X-0.875000X0.150000X0*%
%ADD28RoundRect,0.237500X-0.237500X0.300000X-0.237500X-0.300000X0.237500X-0.300000X0.237500X0.300000X0*%
%ADD29RoundRect,0.150000X-0.512500X-0.150000X0.512500X-0.150000X0.512500X0.150000X-0.512500X0.150000X0*%
%ADD30R,1.600000X0.550000*%
%ADD31R,0.550000X1.600000*%
%ADD32RoundRect,0.250001X-0.499999X-0.924999X0.499999X-0.924999X0.499999X0.924999X-0.499999X0.924999X0*%
%ADD33RoundRect,0.250000X-0.400000X-0.625000X0.400000X-0.625000X0.400000X0.625000X-0.400000X0.625000X0*%
%ADD34RoundRect,0.250000X-0.625000X0.400000X-0.625000X-0.400000X0.625000X-0.400000X0.625000X0.400000X0*%
%ADD35RoundRect,0.250000X0.400000X0.625000X-0.400000X0.625000X-0.400000X-0.625000X0.400000X-0.625000X0*%
%ADD36R,1.500000X1.000000*%
%ADD37RoundRect,0.237500X-0.300000X-0.237500X0.300000X-0.237500X0.300000X0.237500X-0.300000X0.237500X0*%
%ADD38R,1.200000X0.400000*%
%ADD39RoundRect,0.250000X-0.750000X0.600000X-0.750000X-0.600000X0.750000X-0.600000X0.750000X0.600000X0*%
%ADD40O,2.000000X1.700000*%
%ADD41R,2.100000X1.800000*%
%ADD42R,2.000000X1.000000*%
%ADD43FreePoly0,180.000000*%
%ADD44FreePoly1,180.000000*%
%ADD45R,2.700000X2.700000*%
%ADD46C,1.600000*%
%ADD47RoundRect,0.250001X-0.462499X-0.624999X0.462499X-0.624999X0.462499X0.624999X-0.462499X0.624999X0*%
%ADD48C,2.050000*%
%ADD49C,2.250000*%
%ADD50C,3.200000*%
%ADD51R,3.500000X3.500000*%
%ADD52C,3.500000*%
G04 APERTURE END LIST*
D10*
%TO.C,U2*%
X126525000Y-38555000D03*
X126525000Y-39825000D03*
X126525000Y-41095000D03*
X126525000Y-42365000D03*
X126525000Y-43635000D03*
X126525000Y-44905000D03*
X126525000Y-46175000D03*
X126525000Y-47445000D03*
X131475000Y-47445000D03*
X131475000Y-46175000D03*
X131475000Y-44905000D03*
X131475000Y-43635000D03*
X131475000Y-42365000D03*
X131475000Y-41095000D03*
X131475000Y-39825000D03*
X131475000Y-38555000D03*
%TD*%
D11*
%TO.C,R8*%
X158500000Y-83500000D03*
X158500000Y-80400000D03*
%TD*%
D12*
%TO.C,D4*%
X138750000Y-54250000D03*
X138750000Y-56750000D03*
%TD*%
D13*
%TO.C,J4*%
X128500000Y-82500000D03*
D14*
X131000000Y-82500000D03*
%TD*%
D15*
%TO.C,J7*%
X155500000Y-31000000D03*
D16*
X153000000Y-31000000D03*
X150500000Y-31000000D03*
X148000000Y-31000000D03*
X145500000Y-31000000D03*
X143000000Y-31000000D03*
%TD*%
D15*
%TO.C,J5*%
X136500000Y-31000000D03*
D16*
X134000000Y-31000000D03*
X131500000Y-31000000D03*
X129000000Y-31000000D03*
%TD*%
D17*
%TO.C,C6*%
X156250000Y-50725000D03*
X154525000Y-50725000D03*
%TD*%
D18*
%TO.C,U1*%
X137950000Y-45950000D03*
X137950000Y-48250000D03*
D19*
X144250000Y-48250000D03*
D18*
X137950000Y-50550000D03*
%TD*%
D20*
%TO.C,C8*%
X154250000Y-55725000D03*
X154250000Y-54000000D03*
%TD*%
D21*
%TO.C,J1*%
X120462500Y-41200000D03*
X120462500Y-41850000D03*
X120462500Y-42500000D03*
X120462500Y-43150000D03*
X120462500Y-43800000D03*
D22*
X117762500Y-41500000D03*
D23*
X117762500Y-39000000D03*
D24*
X117762500Y-45400000D03*
D22*
X117762500Y-43500000D03*
D24*
X117762500Y-39600000D03*
D25*
X120462500Y-45000000D03*
D23*
X117762500Y-46000000D03*
D25*
X120462500Y-40000000D03*
%TD*%
D26*
%TO.C,Q1*%
X115625000Y-63550000D03*
X115625000Y-65450000D03*
X117500000Y-64500000D03*
%TD*%
D27*
%TO.C,U7*%
X156450000Y-37190000D03*
X156450000Y-38460000D03*
X156450000Y-39730000D03*
X156450000Y-41000000D03*
X156450000Y-42270000D03*
X156450000Y-43540000D03*
X156450000Y-44810000D03*
X156450000Y-46080000D03*
X165750000Y-46080000D03*
X165750000Y-44810000D03*
X165750000Y-43540000D03*
X165750000Y-42270000D03*
X165750000Y-41000000D03*
X165750000Y-39730000D03*
X165750000Y-38460000D03*
X165750000Y-37190000D03*
%TD*%
D28*
%TO.C,C9*%
X162000000Y-53750000D03*
X162000000Y-55475000D03*
%TD*%
D29*
%TO.C,U3*%
X156750000Y-53825000D03*
X156750000Y-54775000D03*
X156750000Y-55725000D03*
X159025000Y-55725000D03*
X159025000Y-53825000D03*
%TD*%
D30*
%TO.C,U6*%
X177150000Y-47450000D03*
X177150000Y-48250000D03*
X177150000Y-49050000D03*
X177150000Y-49850000D03*
X177150000Y-50650000D03*
X177150000Y-51450000D03*
X177150000Y-52250000D03*
X177150000Y-53050000D03*
D31*
X178600000Y-54500000D03*
X179400000Y-54500000D03*
X180200000Y-54500000D03*
X181000000Y-54500000D03*
X181800000Y-54500000D03*
X182600000Y-54500000D03*
X183400000Y-54500000D03*
X184200000Y-54500000D03*
D30*
X185650000Y-53050000D03*
X185650000Y-52250000D03*
X185650000Y-51450000D03*
X185650000Y-50650000D03*
X185650000Y-49850000D03*
X185650000Y-49050000D03*
X185650000Y-48250000D03*
X185650000Y-47450000D03*
D31*
X184200000Y-46000000D03*
X183400000Y-46000000D03*
X182600000Y-46000000D03*
X181800000Y-46000000D03*
X181000000Y-46000000D03*
X180200000Y-46000000D03*
X179400000Y-46000000D03*
X178600000Y-46000000D03*
%TD*%
D11*
%TO.C,R2*%
X140500000Y-41500000D03*
X140500000Y-38400000D03*
%TD*%
D32*
%TO.C,C5*%
X147500000Y-46750000D03*
X150750000Y-46750000D03*
%TD*%
D17*
%TO.C,C15*%
X171042500Y-49930000D03*
X169317500Y-49930000D03*
%TD*%
D28*
%TO.C,C3*%
X134000000Y-49925000D03*
X134000000Y-51650000D03*
%TD*%
D33*
%TO.C,R4*%
X188000000Y-49500000D03*
X191100000Y-49500000D03*
%TD*%
D34*
%TO.C,R7*%
X155500000Y-80400000D03*
X155500000Y-83500000D03*
%TD*%
D15*
%TO.C,J3*%
X169500000Y-31000000D03*
D16*
X167000000Y-31000000D03*
X164500000Y-31000000D03*
X162000000Y-31000000D03*
%TD*%
D11*
%TO.C,R1*%
X120500000Y-65500000D03*
X120500000Y-62400000D03*
%TD*%
D35*
%TO.C,R3*%
X191100000Y-47000000D03*
X188000000Y-47000000D03*
%TD*%
D36*
%TO.C,JP2*%
X143750000Y-56250000D03*
X143750000Y-54950000D03*
%TD*%
D37*
%TO.C,C1*%
X148250000Y-50750000D03*
X149975000Y-50750000D03*
%TD*%
D20*
%TO.C,C11*%
X161500000Y-82862500D03*
X161500000Y-81137500D03*
%TD*%
D12*
%TO.C,D3*%
X136500000Y-82500000D03*
X136500000Y-80000000D03*
%TD*%
D38*
%TO.C,U5*%
X147100000Y-81700000D03*
X147100000Y-82350000D03*
X147100000Y-83000000D03*
X147100000Y-83650000D03*
X152500000Y-83650000D03*
X152500000Y-83000000D03*
X152500000Y-82350000D03*
X152500000Y-81700000D03*
%TD*%
D39*
%TO.C,J2*%
X118025000Y-69750000D03*
D40*
X118025000Y-72250000D03*
%TD*%
D41*
%TO.C,Y2*%
X171630000Y-52190000D03*
X168730000Y-52190000D03*
X168730000Y-54490000D03*
X171630000Y-54490000D03*
%TD*%
D37*
%TO.C,C13*%
X188137500Y-57000000D03*
X189862500Y-57000000D03*
%TD*%
%TO.C,C7*%
X135137500Y-38500000D03*
X136862500Y-38500000D03*
%TD*%
D42*
%TO.C,U4*%
X177500000Y-28500000D03*
X177500000Y-30500000D03*
X177500000Y-32500000D03*
X177500000Y-34500000D03*
X177500000Y-36500000D03*
X177500000Y-38500000D03*
X177500000Y-40500000D03*
X177500000Y-42500000D03*
X193500000Y-42500000D03*
X193500000Y-40500000D03*
X193500000Y-38500000D03*
X193500000Y-36500000D03*
X193500000Y-34500000D03*
X193500000Y-32500000D03*
X193500000Y-30500000D03*
X193500000Y-28500000D03*
%TD*%
D41*
%TO.C,Y1*%
X128111300Y-52800000D03*
X131011300Y-52800000D03*
X131011300Y-50500000D03*
X128111300Y-50500000D03*
%TD*%
D43*
%TO.C,JP1*%
X171800000Y-81000000D03*
D44*
X170500000Y-81000000D03*
%TD*%
D17*
%TO.C,C14*%
X141725000Y-80000000D03*
X140000000Y-80000000D03*
%TD*%
D12*
%TO.C,D2*%
X158862500Y-50775000D03*
X161362500Y-50775000D03*
%TD*%
D37*
%TO.C,C4*%
X135137500Y-42500000D03*
X136862500Y-42500000D03*
%TD*%
D28*
%TO.C,C10*%
X136500000Y-84275000D03*
X136500000Y-86000000D03*
%TD*%
D37*
%TO.C,C12*%
X188000000Y-45000000D03*
X189725000Y-45000000D03*
%TD*%
D45*
%TO.C,BT2*%
X189075000Y-81085000D03*
D46*
X178905000Y-84935000D03*
%TD*%
D47*
%TO.C,L1*%
X140000000Y-85000000D03*
X142975000Y-85000000D03*
%TD*%
D20*
%TO.C,C2*%
X125500000Y-51500000D03*
X125500000Y-49775000D03*
%TD*%
D48*
%TO.C,J6*%
X200960000Y-43460000D03*
D49*
X203500000Y-46000000D03*
X198420000Y-40920000D03*
X198420000Y-46000000D03*
X203500000Y-40920000D03*
%TD*%
D12*
%TO.C,D1*%
X118750000Y-49000000D03*
X116250000Y-49000000D03*
%TD*%
D50*
%TO.C,BT1*%
X189255000Y-68500000D03*
X133645000Y-68500000D03*
D51*
X125000000Y-68500000D03*
D52*
X197000000Y-68500000D03*
%TD*%
D33*
%TO.C,R6*%
X188000000Y-54500000D03*
X191100000Y-54500000D03*
%TD*%
D35*
%TO.C,R5*%
X191100000Y-52000000D03*
X188000000Y-52000000D03*
%TD*%
D37*
%TO.C,C16*%
X169360000Y-56930000D03*
X171085000Y-56930000D03*
%TD*%
M02*
