%TF.GenerationSoftware,KiCad,Pcbnew,(6.0.5)*%
%TF.CreationDate,2022-08-16T14:45:35+02:00*%
%TF.ProjectId,ATMega328-LoRa-Sol-ADIO,41544d65-6761-4333-9238-2d4c6f52612d,rev?*%
%TF.SameCoordinates,Original*%
%TF.FileFunction,Copper,L2,Bot*%
%TF.FilePolarity,Positive*%
%FSLAX46Y46*%
G04 Gerber Fmt 4.6, Leading zero omitted, Abs format (unit mm)*
G04 Created by KiCad (PCBNEW (6.0.5)) date 2022-08-16 14:45:35*
%MOMM*%
%LPD*%
G01*
G04 APERTURE LIST*
G04 Aperture macros list*
%AMRoundRect*
0 Rectangle with rounded corners*
0 $1 Rounding radius*
0 $2 $3 $4 $5 $6 $7 $8 $9 X,Y pos of 4 corners*
0 Add a 4 corners polygon primitive as box body*
4,1,4,$2,$3,$4,$5,$6,$7,$8,$9,$2,$3,0*
0 Add four circle primitives for the rounded corners*
1,1,$1+$1,$2,$3*
1,1,$1+$1,$4,$5*
1,1,$1+$1,$6,$7*
1,1,$1+$1,$8,$9*
0 Add four rect primitives between the rounded corners*
20,1,$1+$1,$2,$3,$4,$5,0*
20,1,$1+$1,$4,$5,$6,$7,0*
20,1,$1+$1,$6,$7,$8,$9,0*
20,1,$1+$1,$8,$9,$2,$3,0*%
G04 Aperture macros list end*
%TA.AperFunction,ComponentPad*%
%ADD10RoundRect,0.250000X-0.600000X-0.750000X0.600000X-0.750000X0.600000X0.750000X-0.600000X0.750000X0*%
%TD*%
%TA.AperFunction,ComponentPad*%
%ADD11O,1.700000X2.000000*%
%TD*%
%TA.AperFunction,ComponentPad*%
%ADD12RoundRect,0.250000X0.600000X0.725000X-0.600000X0.725000X-0.600000X-0.725000X0.600000X-0.725000X0*%
%TD*%
%TA.AperFunction,ComponentPad*%
%ADD13O,1.700000X1.950000*%
%TD*%
%TA.AperFunction,ComponentPad*%
%ADD14O,1.900000X1.200000*%
%TD*%
%TA.AperFunction,ComponentPad*%
%ADD15C,1.450000*%
%TD*%
%TA.AperFunction,ComponentPad*%
%ADD16RoundRect,0.250000X-0.750000X0.600000X-0.750000X-0.600000X0.750000X-0.600000X0.750000X0.600000X0*%
%TD*%
%TA.AperFunction,ComponentPad*%
%ADD17O,2.000000X1.700000*%
%TD*%
%TA.AperFunction,ComponentPad*%
%ADD18R,2.700000X2.700000*%
%TD*%
%TA.AperFunction,ComponentPad*%
%ADD19C,1.600000*%
%TD*%
%TA.AperFunction,ComponentPad*%
%ADD20C,2.050000*%
%TD*%
%TA.AperFunction,ComponentPad*%
%ADD21C,2.250000*%
%TD*%
%TA.AperFunction,ComponentPad*%
%ADD22R,3.500000X3.500000*%
%TD*%
%TA.AperFunction,ComponentPad*%
%ADD23C,3.500000*%
%TD*%
%TA.AperFunction,ViaPad*%
%ADD24C,0.800000*%
%TD*%
%TA.AperFunction,Conductor*%
%ADD25C,0.250000*%
%TD*%
G04 APERTURE END LIST*
D10*
%TO.P,J4,1,Pin_1*%
%TO.N,Earth*%
X128500000Y-82500000D03*
D11*
%TO.P,J4,2,Pin_2*%
%TO.N,Net-(D3-Pad2)*%
X131000000Y-82500000D03*
%TD*%
D12*
%TO.P,J7,1,Pin_1*%
%TO.N,SPI_SS*%
X155500000Y-31000000D03*
D13*
%TO.P,J7,2,Pin_2*%
%TO.N,Lora_SCK*%
X153000000Y-31000000D03*
%TO.P,J7,3,Pin_3*%
%TO.N,Lora_MOSI*%
X150500000Y-31000000D03*
%TO.P,J7,4,Pin_4*%
%TO.N,Lora_MISO*%
X148000000Y-31000000D03*
%TO.P,J7,5,Pin_5*%
%TO.N,Earth*%
X145500000Y-31000000D03*
%TO.P,J7,6,Pin_6*%
%TO.N,+3.3VA*%
X143000000Y-31000000D03*
%TD*%
D12*
%TO.P,J5,1,Pin_1*%
%TO.N,TX*%
X136500000Y-31000000D03*
D13*
%TO.P,J5,2,Pin_2*%
%TO.N,RX*%
X134000000Y-31000000D03*
%TO.P,J5,3,Pin_3*%
%TO.N,Earth*%
X131500000Y-31000000D03*
%TO.P,J5,4,Pin_4*%
%TO.N,+3.3VA*%
X129000000Y-31000000D03*
%TD*%
D14*
%TO.P,J1,6,Shield*%
%TO.N,Earth*%
X117762500Y-39000000D03*
D15*
X120462500Y-45000000D03*
D14*
X117762500Y-46000000D03*
D15*
X120462500Y-40000000D03*
%TD*%
D12*
%TO.P,J3,1,Pin_1*%
%TO.N,SCL*%
X169500000Y-31000000D03*
D13*
%TO.P,J3,2,Pin_2*%
%TO.N,SDA*%
X167000000Y-31000000D03*
%TO.P,J3,3,Pin_3*%
%TO.N,Earth*%
X164500000Y-31000000D03*
%TO.P,J3,4,Pin_4*%
%TO.N,+3.3VA*%
X162000000Y-31000000D03*
%TD*%
D16*
%TO.P,J2,1,Pin_1*%
%TO.N,Earth*%
X118025000Y-69750000D03*
D17*
%TO.P,J2,2,Pin_2*%
%TO.N,Net-(J2-Pad2)*%
X118025000Y-72250000D03*
%TD*%
D18*
%TO.P,BT2,1,+*%
%TO.N,Net-(BT2-Pad1)*%
X189075000Y-81085000D03*
D19*
%TO.P,BT2,2,-*%
%TO.N,Earth*%
X178905000Y-84935000D03*
%TD*%
D20*
%TO.P,J6,1,In*%
%TO.N,Net-(J6-Pad1)*%
X200960000Y-43460000D03*
D21*
%TO.P,J6,2,Ext*%
%TO.N,Earth*%
X203500000Y-46000000D03*
X198420000Y-40920000D03*
X198420000Y-46000000D03*
X203500000Y-40920000D03*
%TD*%
D22*
%TO.P,BT1,1,+*%
%TO.N,Net-(BT1-Pad1)*%
X125000000Y-68500000D03*
D23*
%TO.P,BT1,2,-*%
%TO.N,Earth*%
X197000000Y-68500000D03*
%TD*%
D24*
%TO.N,Earth*%
X151000000Y-54000000D03*
X162250000Y-36250000D03*
X157500000Y-32750000D03*
X160000000Y-80057900D03*
X142762299Y-83262299D03*
X175250000Y-47500000D03*
X165750000Y-52500000D03*
X167750000Y-44250000D03*
X138000000Y-40000000D03*
X190250000Y-36000000D03*
X184000000Y-49750000D03*
X177250000Y-54000000D03*
X174000000Y-53250000D03*
X175250000Y-51000000D03*
X152750000Y-48000000D03*
X152250000Y-50500000D03*
%TO.N,+BATT*%
X145250000Y-84500000D03*
X143750000Y-80000000D03*
%TO.N,+3V3*%
X160944600Y-49324400D03*
X172415500Y-50070000D03*
%TO.N,Lora_SCK*%
X181844000Y-51685100D03*
%TO.N,Lora_MOSI*%
X182732100Y-55908800D03*
%TO.N,Lora_NSS*%
X179119500Y-38531100D03*
X182695500Y-53046700D03*
%TO.N,Net-(BT2-Pad1)*%
X169989900Y-42893100D03*
%TO.N,AT-RST*%
X158108600Y-42157300D03*
X176826500Y-44222900D03*
%TO.N,SCL*%
X180836900Y-44128700D03*
X170209300Y-36162900D03*
%TO.N,SDA*%
X181924100Y-49607600D03*
X175427400Y-36057400D03*
%TO.N,TX*%
X176923100Y-46301800D03*
%TO.N,RX*%
X179936300Y-47445800D03*
%TO.N,SPI_SS*%
X184070000Y-48250000D03*
%TO.N,DO_POWERON*%
X160061400Y-54808100D03*
X177716000Y-55418700D03*
%TO.N,CLOCK_INT*%
X161624000Y-48146100D03*
X178949700Y-53098200D03*
%TD*%
D25*
%TO.N,+BATT*%
X143750000Y-83000000D02*
X145250000Y-84500000D01*
X143750000Y-80000000D02*
X143750000Y-83000000D01*
%TO.N,+3V3*%
X160944600Y-49324400D02*
X161690200Y-50070000D01*
X161690200Y-50070000D02*
X172415500Y-50070000D01*
%TO.N,Lora_SCK*%
X153000000Y-31000000D02*
X154175300Y-31000000D01*
X171981000Y-37000500D02*
X181112100Y-46131600D01*
X154175300Y-31881500D02*
X159294300Y-37000500D01*
X154175300Y-31000000D02*
X154175300Y-31881500D01*
X181112100Y-50953200D02*
X181844000Y-51685100D01*
X159294300Y-37000500D02*
X171981000Y-37000500D01*
X181112100Y-46131600D02*
X181112100Y-50953200D01*
%TO.N,Lora_MOSI*%
X150500000Y-31000000D02*
X151675300Y-31000000D01*
X171723700Y-37450900D02*
X180661600Y-46388800D01*
X151675300Y-31514200D02*
X157612000Y-37450900D01*
X151675300Y-31000000D02*
X151675300Y-31514200D01*
X180661600Y-53838300D02*
X182732100Y-55908800D01*
X180661600Y-46388800D02*
X180661600Y-53838300D01*
X157612000Y-37450900D02*
X171723700Y-37450900D01*
%TO.N,Lora_NSS*%
X182695500Y-42107100D02*
X179119500Y-38531100D01*
X182695500Y-53046700D02*
X182695500Y-42107100D01*
%TO.N,Net-(BT2-Pad1)*%
X179886500Y-49958100D02*
X177819500Y-47891100D01*
X172407500Y-45310700D02*
X169989900Y-42893100D01*
X189075000Y-81085000D02*
X189075000Y-79409700D01*
X179886500Y-70221200D02*
X179886500Y-49958100D01*
X177819500Y-46158500D02*
X176971700Y-45310700D01*
X177819500Y-47891100D02*
X177819500Y-46158500D01*
X176971700Y-45310700D02*
X172407500Y-45310700D01*
X189075000Y-79409700D02*
X179886500Y-70221200D01*
%TO.N,AT-RST*%
X158108600Y-42157300D02*
X174760900Y-42157300D01*
X174760900Y-42157300D02*
X176826500Y-44222900D01*
%TO.N,SCL*%
X172871100Y-36162900D02*
X180836900Y-44128700D01*
X169500000Y-31000000D02*
X169500000Y-35453600D01*
X170209300Y-36162900D02*
X172871100Y-36162900D01*
X169500000Y-35453600D02*
X170209300Y-36162900D01*
%TO.N,SDA*%
X175427400Y-34759000D02*
X170329300Y-29660900D01*
X181924100Y-42554100D02*
X175427400Y-36057400D01*
X175427400Y-36057400D02*
X175427400Y-34759000D01*
X167000000Y-31000000D02*
X168175300Y-31000000D01*
X168632900Y-29660900D02*
X168175300Y-30118500D01*
X181924100Y-49607600D02*
X181924100Y-42554100D01*
X170329300Y-29660900D02*
X168632900Y-29660900D01*
X168175300Y-30118500D02*
X168175300Y-31000000D01*
%TO.N,TX*%
X176923100Y-46301800D02*
X151801800Y-46301800D01*
X151801800Y-46301800D02*
X136500000Y-31000000D01*
%TO.N,RX*%
X135632900Y-29660900D02*
X137413400Y-29660900D01*
X135175300Y-30118500D02*
X135632900Y-29660900D01*
X179936300Y-46306700D02*
X179936300Y-47445800D01*
X174179900Y-40550300D02*
X179936300Y-46306700D01*
X137413400Y-29660900D02*
X148302800Y-40550300D01*
X135175300Y-31000000D02*
X135175300Y-30118500D01*
X148302800Y-40550300D02*
X174179900Y-40550300D01*
X134000000Y-31000000D02*
X135175300Y-31000000D01*
%TO.N,SPI_SS*%
X155500000Y-31000000D02*
X157306000Y-29194000D01*
X157306000Y-29194000D02*
X170829500Y-29194000D01*
X183751100Y-47931200D02*
X183751200Y-47931200D01*
X183751200Y-47931200D02*
X184070000Y-48250000D01*
X183751100Y-42115600D02*
X183751100Y-47931200D01*
X170829500Y-29194000D02*
X183751100Y-42115600D01*
%TO.N,DO_POWERON*%
X160061400Y-54808100D02*
X177105400Y-54808100D01*
X177105400Y-54808100D02*
X177716000Y-55418700D01*
%TO.N,CLOCK_INT*%
X161624000Y-48146100D02*
X173997600Y-48146100D01*
X173997600Y-48146100D02*
X178949700Y-53098200D01*
%TD*%
%TA.AperFunction,Conductor*%
%TO.N,Earth*%
G36*
X195433621Y-26528502D02*
G01*
X195480114Y-26582158D01*
X195491500Y-26634500D01*
X195491500Y-36991377D01*
X195491498Y-36992147D01*
X195491024Y-37069721D01*
X195493491Y-37078352D01*
X195499150Y-37098153D01*
X195502728Y-37114915D01*
X195506920Y-37144187D01*
X195510634Y-37152355D01*
X195510634Y-37152356D01*
X195517548Y-37167562D01*
X195523996Y-37185086D01*
X195531051Y-37209771D01*
X195535843Y-37217365D01*
X195535844Y-37217368D01*
X195546830Y-37234780D01*
X195554969Y-37249863D01*
X195567208Y-37276782D01*
X195573069Y-37283584D01*
X195583970Y-37296235D01*
X195595073Y-37311239D01*
X195608776Y-37332958D01*
X195615501Y-37338897D01*
X195615504Y-37338901D01*
X195630938Y-37352532D01*
X195642982Y-37364724D01*
X195656427Y-37380327D01*
X195656430Y-37380329D01*
X195662287Y-37387127D01*
X195669816Y-37392007D01*
X195669817Y-37392008D01*
X195683835Y-37401094D01*
X195698709Y-37412385D01*
X195711217Y-37423431D01*
X195717951Y-37429378D01*
X195744711Y-37441942D01*
X195759691Y-37450263D01*
X195776983Y-37461471D01*
X195776988Y-37461473D01*
X195784515Y-37466352D01*
X195793108Y-37468922D01*
X195793113Y-37468924D01*
X195809120Y-37473711D01*
X195826564Y-37480372D01*
X195841676Y-37487467D01*
X195841678Y-37487468D01*
X195849800Y-37491281D01*
X195858667Y-37492662D01*
X195858668Y-37492662D01*
X195861353Y-37493080D01*
X195879017Y-37495830D01*
X195895732Y-37499613D01*
X195915466Y-37505515D01*
X195915472Y-37505516D01*
X195924066Y-37508086D01*
X195933037Y-37508141D01*
X195933038Y-37508141D01*
X195943097Y-37508202D01*
X195958506Y-37508296D01*
X195959289Y-37508329D01*
X195960386Y-37508500D01*
X195991377Y-37508500D01*
X195992147Y-37508502D01*
X196065785Y-37508952D01*
X196065786Y-37508952D01*
X196069721Y-37508976D01*
X196071065Y-37508592D01*
X196072410Y-37508500D01*
X206365500Y-37508500D01*
X206433621Y-37528502D01*
X206480114Y-37582158D01*
X206491500Y-37634500D01*
X206491500Y-75365500D01*
X206471498Y-75433621D01*
X206417842Y-75480114D01*
X206365500Y-75491500D01*
X196008623Y-75491500D01*
X196007853Y-75491498D01*
X196007037Y-75491493D01*
X195930279Y-75491024D01*
X195907918Y-75497415D01*
X195901847Y-75499150D01*
X195885085Y-75502728D01*
X195855813Y-75506920D01*
X195847645Y-75510634D01*
X195847644Y-75510634D01*
X195832438Y-75517548D01*
X195814914Y-75523996D01*
X195790229Y-75531051D01*
X195782635Y-75535843D01*
X195782632Y-75535844D01*
X195765220Y-75546830D01*
X195750137Y-75554969D01*
X195723218Y-75567208D01*
X195716416Y-75573069D01*
X195703765Y-75583970D01*
X195688761Y-75595073D01*
X195667042Y-75608776D01*
X195661103Y-75615501D01*
X195661099Y-75615504D01*
X195647468Y-75630938D01*
X195635276Y-75642982D01*
X195619673Y-75656427D01*
X195619671Y-75656430D01*
X195612873Y-75662287D01*
X195607993Y-75669816D01*
X195607992Y-75669817D01*
X195598906Y-75683835D01*
X195587615Y-75698709D01*
X195576569Y-75711217D01*
X195570622Y-75717951D01*
X195564312Y-75731391D01*
X195558058Y-75744711D01*
X195549737Y-75759691D01*
X195538529Y-75776983D01*
X195538527Y-75776988D01*
X195533648Y-75784515D01*
X195531078Y-75793108D01*
X195531076Y-75793113D01*
X195526289Y-75809120D01*
X195519628Y-75826564D01*
X195512533Y-75841676D01*
X195508719Y-75849800D01*
X195507338Y-75858667D01*
X195507338Y-75858668D01*
X195504170Y-75879015D01*
X195500387Y-75895732D01*
X195494485Y-75915466D01*
X195494484Y-75915472D01*
X195491914Y-75924066D01*
X195491859Y-75933037D01*
X195491859Y-75933038D01*
X195491704Y-75958497D01*
X195491671Y-75959289D01*
X195491500Y-75960386D01*
X195491500Y-75991377D01*
X195491498Y-75992147D01*
X195491024Y-76069721D01*
X195491408Y-76071065D01*
X195491500Y-76072410D01*
X195491500Y-86365500D01*
X195471498Y-86433621D01*
X195417842Y-86480114D01*
X195365500Y-86491500D01*
X179007617Y-86491500D01*
X178939496Y-86471498D01*
X178904295Y-86430873D01*
X178890054Y-86455998D01*
X178827210Y-86489030D01*
X178802383Y-86491500D01*
X125634500Y-86491500D01*
X125566379Y-86471498D01*
X125519886Y-86417842D01*
X125508500Y-86365500D01*
X125508500Y-86021062D01*
X178183493Y-86021062D01*
X178192789Y-86033077D01*
X178243994Y-86068931D01*
X178253489Y-86074414D01*
X178450947Y-86166490D01*
X178461239Y-86170236D01*
X178671688Y-86226625D01*
X178682481Y-86228528D01*
X178813364Y-86239979D01*
X178879483Y-86265842D01*
X178904466Y-86300344D01*
X178912393Y-86282988D01*
X178972119Y-86244604D01*
X178996636Y-86239979D01*
X179127519Y-86228528D01*
X179138312Y-86226625D01*
X179348761Y-86170236D01*
X179359053Y-86166490D01*
X179556511Y-86074414D01*
X179566006Y-86068931D01*
X179618048Y-86032491D01*
X179626424Y-86022012D01*
X179619356Y-86008566D01*
X178917812Y-85307022D01*
X178903868Y-85299408D01*
X178902035Y-85299539D01*
X178895420Y-85303790D01*
X178189923Y-86009287D01*
X178183493Y-86021062D01*
X125508500Y-86021062D01*
X125508500Y-83297095D01*
X127142001Y-83297095D01*
X127142338Y-83303614D01*
X127152257Y-83399206D01*
X127155149Y-83412600D01*
X127206588Y-83566784D01*
X127212761Y-83579962D01*
X127298063Y-83717807D01*
X127307099Y-83729208D01*
X127421829Y-83843739D01*
X127433240Y-83852751D01*
X127571243Y-83937816D01*
X127584424Y-83943963D01*
X127738710Y-83995138D01*
X127752086Y-83998005D01*
X127846438Y-84007672D01*
X127852854Y-84008000D01*
X128227885Y-84008000D01*
X128243124Y-84003525D01*
X128244329Y-84002135D01*
X128246000Y-83994452D01*
X128246000Y-83989884D01*
X128754000Y-83989884D01*
X128758475Y-84005123D01*
X128759865Y-84006328D01*
X128767548Y-84007999D01*
X129147095Y-84007999D01*
X129153614Y-84007662D01*
X129249206Y-83997743D01*
X129262600Y-83994851D01*
X129416784Y-83943412D01*
X129429962Y-83937239D01*
X129567807Y-83851937D01*
X129579208Y-83842901D01*
X129693739Y-83728171D01*
X129702753Y-83716757D01*
X129788723Y-83577287D01*
X129841495Y-83529793D01*
X129911566Y-83518369D01*
X129976690Y-83546643D01*
X129987149Y-83556426D01*
X130096576Y-83671135D01*
X130281542Y-83808754D01*
X130286293Y-83811170D01*
X130286297Y-83811172D01*
X130360578Y-83848938D01*
X130487051Y-83913240D01*
X130492145Y-83914822D01*
X130492148Y-83914823D01*
X130631677Y-83958148D01*
X130707227Y-83981607D01*
X130712516Y-83982308D01*
X130930489Y-84011198D01*
X130930494Y-84011198D01*
X130935774Y-84011898D01*
X130941103Y-84011698D01*
X130941105Y-84011698D01*
X131050966Y-84007574D01*
X131166158Y-84003249D01*
X131171468Y-84002135D01*
X131278975Y-83979578D01*
X131391791Y-83955907D01*
X131396750Y-83953949D01*
X131396752Y-83953948D01*
X131601256Y-83873185D01*
X131601258Y-83873184D01*
X131606221Y-83871224D01*
X131622355Y-83861434D01*
X131798757Y-83754390D01*
X131798756Y-83754390D01*
X131803317Y-83751623D01*
X131858763Y-83703510D01*
X131973412Y-83604023D01*
X131973414Y-83604021D01*
X131977445Y-83600523D01*
X132044807Y-83518369D01*
X132120240Y-83426373D01*
X132120244Y-83426367D01*
X132123624Y-83422245D01*
X132129115Y-83412600D01*
X132235032Y-83226529D01*
X132237675Y-83221886D01*
X132316337Y-83005175D01*
X132327490Y-82943500D01*
X132356623Y-82782392D01*
X132356624Y-82782385D01*
X132357361Y-82778308D01*
X132358500Y-82754156D01*
X132358500Y-82292110D01*
X132343920Y-82120280D01*
X132342582Y-82115125D01*
X132342581Y-82115119D01*
X132287343Y-81902297D01*
X132287342Y-81902293D01*
X132286001Y-81897128D01*
X132191312Y-81686925D01*
X132062559Y-81495681D01*
X131903424Y-81328865D01*
X131718458Y-81191246D01*
X131713707Y-81188830D01*
X131713703Y-81188828D01*
X131591731Y-81126815D01*
X131512949Y-81086760D01*
X131507855Y-81085178D01*
X131507852Y-81085177D01*
X131297871Y-81019976D01*
X131292773Y-81018393D01*
X131287484Y-81017692D01*
X131069511Y-80988802D01*
X131069506Y-80988802D01*
X131064226Y-80988102D01*
X131058897Y-80988302D01*
X131058895Y-80988302D01*
X130960368Y-80992001D01*
X130833842Y-80996751D01*
X130828623Y-80997846D01*
X130808849Y-81001995D01*
X130608209Y-81044093D01*
X130603250Y-81046051D01*
X130603248Y-81046052D01*
X130398744Y-81126815D01*
X130398742Y-81126816D01*
X130393779Y-81128776D01*
X130389220Y-81131543D01*
X130389217Y-81131544D01*
X130290832Y-81191246D01*
X130196683Y-81248377D01*
X130192653Y-81251874D01*
X130099484Y-81332722D01*
X130022555Y-81399477D01*
X130019168Y-81403608D01*
X129992994Y-81435529D01*
X129934334Y-81475524D01*
X129863364Y-81477455D01*
X129802616Y-81440710D01*
X129788416Y-81421941D01*
X129701937Y-81282193D01*
X129692901Y-81270792D01*
X129578171Y-81156261D01*
X129566760Y-81147249D01*
X129428757Y-81062184D01*
X129415576Y-81056037D01*
X129261290Y-81004862D01*
X129247914Y-81001995D01*
X129153562Y-80992328D01*
X129147145Y-80992000D01*
X128772115Y-80992000D01*
X128756876Y-80996475D01*
X128755671Y-80997865D01*
X128754000Y-81005548D01*
X128754000Y-83989884D01*
X128246000Y-83989884D01*
X128246000Y-82772115D01*
X128241525Y-82756876D01*
X128240135Y-82755671D01*
X128232452Y-82754000D01*
X127160116Y-82754000D01*
X127144877Y-82758475D01*
X127143672Y-82759865D01*
X127142001Y-82767548D01*
X127142001Y-83297095D01*
X125508500Y-83297095D01*
X125508500Y-82227885D01*
X127142000Y-82227885D01*
X127146475Y-82243124D01*
X127147865Y-82244329D01*
X127155548Y-82246000D01*
X128227885Y-82246000D01*
X128243124Y-82241525D01*
X128244329Y-82240135D01*
X128246000Y-82232452D01*
X128246000Y-81010116D01*
X128241525Y-80994877D01*
X128240135Y-80993672D01*
X128232452Y-80992001D01*
X127852905Y-80992001D01*
X127846386Y-80992338D01*
X127750794Y-81002257D01*
X127737400Y-81005149D01*
X127583216Y-81056588D01*
X127570038Y-81062761D01*
X127432193Y-81148063D01*
X127420792Y-81157099D01*
X127306261Y-81271829D01*
X127297249Y-81283240D01*
X127212184Y-81421243D01*
X127206037Y-81434424D01*
X127154862Y-81588710D01*
X127151995Y-81602086D01*
X127142328Y-81696438D01*
X127142000Y-81702855D01*
X127142000Y-82227885D01*
X125508500Y-82227885D01*
X125508500Y-80000000D01*
X142836496Y-80000000D01*
X142856458Y-80189928D01*
X142915473Y-80371556D01*
X143010960Y-80536944D01*
X143084137Y-80618215D01*
X143114853Y-80682221D01*
X143116500Y-80702524D01*
X143116500Y-82921233D01*
X143115973Y-82932416D01*
X143114298Y-82939909D01*
X143114547Y-82947835D01*
X143114547Y-82947836D01*
X143116438Y-83007986D01*
X143116500Y-83011945D01*
X143116500Y-83039856D01*
X143116997Y-83043790D01*
X143116997Y-83043791D01*
X143117005Y-83043856D01*
X143117938Y-83055693D01*
X143119327Y-83099889D01*
X143124978Y-83119339D01*
X143128987Y-83138700D01*
X143131526Y-83158797D01*
X143134445Y-83166168D01*
X143134445Y-83166170D01*
X143147804Y-83199912D01*
X143151649Y-83211142D01*
X143163982Y-83253593D01*
X143168015Y-83260412D01*
X143168017Y-83260417D01*
X143174293Y-83271028D01*
X143182988Y-83288776D01*
X143190448Y-83307617D01*
X143195110Y-83314033D01*
X143195110Y-83314034D01*
X143216436Y-83343387D01*
X143222952Y-83353307D01*
X143245458Y-83391362D01*
X143259779Y-83405683D01*
X143272619Y-83420716D01*
X143284528Y-83437107D01*
X143290634Y-83442158D01*
X143318605Y-83465298D01*
X143327384Y-83473288D01*
X144302878Y-84448782D01*
X144336904Y-84511094D01*
X144339092Y-84524703D01*
X144356458Y-84689928D01*
X144415473Y-84871556D01*
X144510960Y-85036944D01*
X144638747Y-85178866D01*
X144793248Y-85291118D01*
X144799276Y-85293802D01*
X144799278Y-85293803D01*
X144828969Y-85307022D01*
X144967712Y-85368794D01*
X145061113Y-85388647D01*
X145148056Y-85407128D01*
X145148061Y-85407128D01*
X145154513Y-85408500D01*
X145345487Y-85408500D01*
X145351939Y-85407128D01*
X145351944Y-85407128D01*
X145438888Y-85388647D01*
X145532288Y-85368794D01*
X145671031Y-85307022D01*
X145700722Y-85293803D01*
X145700724Y-85293802D01*
X145706752Y-85291118D01*
X145861253Y-85178866D01*
X145989040Y-85036944D01*
X146044737Y-84940475D01*
X177592483Y-84940475D01*
X177611472Y-85157519D01*
X177613375Y-85168312D01*
X177669764Y-85378761D01*
X177673510Y-85389053D01*
X177765586Y-85586511D01*
X177771069Y-85596006D01*
X177807509Y-85648048D01*
X177817988Y-85656424D01*
X177831434Y-85649356D01*
X178532978Y-84947812D01*
X178539356Y-84936132D01*
X179269408Y-84936132D01*
X179269539Y-84937965D01*
X179273790Y-84944580D01*
X179979287Y-85650077D01*
X179991062Y-85656507D01*
X180003077Y-85647211D01*
X180038931Y-85596006D01*
X180044414Y-85586511D01*
X180136490Y-85389053D01*
X180140236Y-85378761D01*
X180196625Y-85168312D01*
X180198528Y-85157519D01*
X180217517Y-84940475D01*
X180217517Y-84929525D01*
X180198528Y-84712481D01*
X180196625Y-84701688D01*
X180140236Y-84491239D01*
X180136490Y-84480947D01*
X180044414Y-84283489D01*
X180038931Y-84273994D01*
X180002491Y-84221952D01*
X179992012Y-84213576D01*
X179978566Y-84220644D01*
X179277022Y-84922188D01*
X179269408Y-84936132D01*
X178539356Y-84936132D01*
X178540592Y-84933868D01*
X178540461Y-84932035D01*
X178536210Y-84925420D01*
X177830713Y-84219923D01*
X177818938Y-84213493D01*
X177806923Y-84222789D01*
X177771069Y-84273994D01*
X177765586Y-84283489D01*
X177673510Y-84480947D01*
X177669764Y-84491239D01*
X177613375Y-84701688D01*
X177611472Y-84712481D01*
X177592483Y-84929525D01*
X177592483Y-84940475D01*
X146044737Y-84940475D01*
X146084527Y-84871556D01*
X146143542Y-84689928D01*
X146163504Y-84500000D01*
X146143542Y-84310072D01*
X146084527Y-84128444D01*
X145989040Y-83963056D01*
X145971353Y-83943412D01*
X145885433Y-83847988D01*
X178183576Y-83847988D01*
X178190644Y-83861434D01*
X178892188Y-84562978D01*
X178906132Y-84570592D01*
X178907965Y-84570461D01*
X178914580Y-84566210D01*
X179620077Y-83860713D01*
X179626507Y-83848938D01*
X179617211Y-83836923D01*
X179566006Y-83801069D01*
X179556511Y-83795586D01*
X179359053Y-83703510D01*
X179348761Y-83699764D01*
X179138312Y-83643375D01*
X179127519Y-83641472D01*
X178910475Y-83622483D01*
X178899525Y-83622483D01*
X178682481Y-83641472D01*
X178671688Y-83643375D01*
X178461239Y-83699764D01*
X178450947Y-83703510D01*
X178253489Y-83795586D01*
X178243994Y-83801069D01*
X178191952Y-83837509D01*
X178183576Y-83847988D01*
X145885433Y-83847988D01*
X145865675Y-83826045D01*
X145865674Y-83826044D01*
X145861253Y-83821134D01*
X145706752Y-83708882D01*
X145700724Y-83706198D01*
X145700722Y-83706197D01*
X145538319Y-83633891D01*
X145538318Y-83633891D01*
X145532288Y-83631206D01*
X145438887Y-83611353D01*
X145351944Y-83592872D01*
X145351939Y-83592872D01*
X145345487Y-83591500D01*
X145289595Y-83591500D01*
X145221474Y-83571498D01*
X145200500Y-83554595D01*
X144420405Y-82774500D01*
X144386379Y-82712188D01*
X144383500Y-82685405D01*
X144383500Y-80702524D01*
X144403502Y-80634403D01*
X144415858Y-80618221D01*
X144489040Y-80536944D01*
X144584527Y-80371556D01*
X144643542Y-80189928D01*
X144663504Y-80000000D01*
X144643542Y-79810072D01*
X144584527Y-79628444D01*
X144578085Y-79617285D01*
X144492341Y-79468774D01*
X144489040Y-79463056D01*
X144361253Y-79321134D01*
X144262157Y-79249136D01*
X144212094Y-79212763D01*
X144212093Y-79212762D01*
X144206752Y-79208882D01*
X144200724Y-79206198D01*
X144200722Y-79206197D01*
X144038319Y-79133891D01*
X144038318Y-79133891D01*
X144032288Y-79131206D01*
X143929963Y-79109456D01*
X143851944Y-79092872D01*
X143851939Y-79092872D01*
X143845487Y-79091500D01*
X143654513Y-79091500D01*
X143648061Y-79092872D01*
X143648056Y-79092872D01*
X143570037Y-79109456D01*
X143467712Y-79131206D01*
X143461682Y-79133891D01*
X143461681Y-79133891D01*
X143299278Y-79206197D01*
X143299276Y-79206198D01*
X143293248Y-79208882D01*
X143287907Y-79212762D01*
X143287906Y-79212763D01*
X143237843Y-79249136D01*
X143138747Y-79321134D01*
X143010960Y-79463056D01*
X143007659Y-79468774D01*
X142921916Y-79617285D01*
X142915473Y-79628444D01*
X142856458Y-79810072D01*
X142836496Y-80000000D01*
X125508500Y-80000000D01*
X125508500Y-76008623D01*
X125508502Y-76007853D01*
X125508800Y-75959102D01*
X125508976Y-75930279D01*
X125500850Y-75901847D01*
X125497272Y-75885085D01*
X125494352Y-75864698D01*
X125493080Y-75855813D01*
X125482451Y-75832436D01*
X125476004Y-75814913D01*
X125471416Y-75798862D01*
X125468949Y-75790229D01*
X125464156Y-75782632D01*
X125453170Y-75765220D01*
X125445030Y-75750135D01*
X125442564Y-75744711D01*
X125432792Y-75723218D01*
X125416030Y-75703765D01*
X125404927Y-75688761D01*
X125391224Y-75667042D01*
X125384499Y-75661103D01*
X125384496Y-75661099D01*
X125369062Y-75647468D01*
X125357018Y-75635276D01*
X125343573Y-75619673D01*
X125343570Y-75619671D01*
X125337713Y-75612873D01*
X125324009Y-75603990D01*
X125316165Y-75598906D01*
X125301291Y-75587615D01*
X125288783Y-75576569D01*
X125288782Y-75576568D01*
X125282049Y-75570622D01*
X125255287Y-75558057D01*
X125240309Y-75549737D01*
X125223017Y-75538529D01*
X125223012Y-75538527D01*
X125215485Y-75533648D01*
X125206892Y-75531078D01*
X125206887Y-75531076D01*
X125190880Y-75526289D01*
X125173436Y-75519628D01*
X125158324Y-75512533D01*
X125158322Y-75512532D01*
X125150200Y-75508719D01*
X125141333Y-75507338D01*
X125141332Y-75507338D01*
X125130478Y-75505648D01*
X125120983Y-75504170D01*
X125104268Y-75500387D01*
X125084534Y-75494485D01*
X125084528Y-75494484D01*
X125075934Y-75491914D01*
X125066963Y-75491859D01*
X125066962Y-75491859D01*
X125056903Y-75491798D01*
X125041494Y-75491704D01*
X125040711Y-75491671D01*
X125039614Y-75491500D01*
X125008623Y-75491500D01*
X125007853Y-75491498D01*
X124934215Y-75491048D01*
X124934214Y-75491048D01*
X124930279Y-75491024D01*
X124928935Y-75491408D01*
X124927590Y-75491500D01*
X114634500Y-75491500D01*
X114566379Y-75471498D01*
X114519886Y-75417842D01*
X114508500Y-75365500D01*
X114508500Y-72185774D01*
X116513102Y-72185774D01*
X116521751Y-72416158D01*
X116569093Y-72641791D01*
X116653776Y-72856221D01*
X116773377Y-73053317D01*
X116776874Y-73057347D01*
X116863438Y-73157103D01*
X116924477Y-73227445D01*
X116928608Y-73230832D01*
X117098627Y-73370240D01*
X117098633Y-73370244D01*
X117102755Y-73373624D01*
X117107391Y-73376263D01*
X117107394Y-73376265D01*
X117216422Y-73438327D01*
X117303114Y-73487675D01*
X117519825Y-73566337D01*
X117525074Y-73567286D01*
X117525077Y-73567287D01*
X117742608Y-73606623D01*
X117742615Y-73606624D01*
X117746692Y-73607361D01*
X117764414Y-73608197D01*
X117769356Y-73608430D01*
X117769363Y-73608430D01*
X117770844Y-73608500D01*
X118232890Y-73608500D01*
X118299809Y-73602822D01*
X118399409Y-73594371D01*
X118399413Y-73594370D01*
X118404720Y-73593920D01*
X118409875Y-73592582D01*
X118409881Y-73592581D01*
X118622703Y-73537343D01*
X118622707Y-73537342D01*
X118627872Y-73536001D01*
X118632738Y-73533809D01*
X118632741Y-73533808D01*
X118833202Y-73443507D01*
X118838075Y-73441312D01*
X119029319Y-73312559D01*
X119196135Y-73153424D01*
X119333754Y-72968458D01*
X119438240Y-72762949D01*
X119474321Y-72646752D01*
X119505024Y-72547871D01*
X119506607Y-72542773D01*
X119507308Y-72537484D01*
X119536198Y-72319511D01*
X119536198Y-72319506D01*
X119536898Y-72314226D01*
X119528249Y-72083842D01*
X119480907Y-71858209D01*
X119396224Y-71643779D01*
X119276623Y-71446683D01*
X119189755Y-71346576D01*
X119129023Y-71276588D01*
X119129021Y-71276586D01*
X119125523Y-71272555D01*
X119089471Y-71242994D01*
X119049476Y-71184334D01*
X119047545Y-71113364D01*
X119084290Y-71052616D01*
X119103059Y-71038416D01*
X119242807Y-70951937D01*
X119254208Y-70942901D01*
X119368739Y-70828171D01*
X119377751Y-70816760D01*
X119462816Y-70678757D01*
X119468963Y-70665576D01*
X119520138Y-70511290D01*
X119523005Y-70497914D01*
X119532672Y-70403562D01*
X119533000Y-70397146D01*
X119533000Y-70298134D01*
X122741500Y-70298134D01*
X122748255Y-70360316D01*
X122799385Y-70496705D01*
X122886739Y-70613261D01*
X123003295Y-70700615D01*
X123139684Y-70751745D01*
X123201866Y-70758500D01*
X126798134Y-70758500D01*
X126860316Y-70751745D01*
X126996705Y-70700615D01*
X127113261Y-70613261D01*
X127200615Y-70496705D01*
X127251745Y-70360316D01*
X127258500Y-70298134D01*
X127258500Y-68632703D01*
X131535743Y-68632703D01*
X131536302Y-68636947D01*
X131536302Y-68636951D01*
X131540894Y-68671829D01*
X131573268Y-68917734D01*
X131649129Y-69195036D01*
X131761923Y-69459476D01*
X131909561Y-69706161D01*
X132089313Y-69930528D01*
X132297851Y-70128423D01*
X132531317Y-70296186D01*
X132535112Y-70298195D01*
X132535113Y-70298196D01*
X132556869Y-70309715D01*
X132785392Y-70430712D01*
X132809699Y-70439607D01*
X133009162Y-70512600D01*
X133055373Y-70529511D01*
X133336264Y-70590755D01*
X133364841Y-70593004D01*
X133559282Y-70608307D01*
X133559291Y-70608307D01*
X133561739Y-70608500D01*
X133717271Y-70608500D01*
X133719407Y-70608354D01*
X133719418Y-70608354D01*
X133927548Y-70594165D01*
X133927554Y-70594164D01*
X133931825Y-70593873D01*
X133936020Y-70593004D01*
X133936022Y-70593004D01*
X134073243Y-70564587D01*
X134213342Y-70535574D01*
X134484343Y-70439607D01*
X134739812Y-70307750D01*
X134743313Y-70305289D01*
X134743317Y-70305287D01*
X134958159Y-70154293D01*
X134975023Y-70142441D01*
X135117692Y-70009865D01*
X135182479Y-69949661D01*
X135182481Y-69949658D01*
X135185622Y-69946740D01*
X135367713Y-69724268D01*
X135517927Y-69479142D01*
X135633483Y-69215898D01*
X135712244Y-68939406D01*
X135752751Y-68654784D01*
X135752845Y-68636951D01*
X135754235Y-68371583D01*
X135754235Y-68371576D01*
X135754257Y-68367297D01*
X135716732Y-68082266D01*
X135640871Y-67804964D01*
X135528077Y-67540524D01*
X135380439Y-67293839D01*
X135200687Y-67069472D01*
X134992149Y-66871577D01*
X134758683Y-66703814D01*
X134736843Y-66692250D01*
X134652400Y-66647540D01*
X134504608Y-66569288D01*
X134234627Y-66470489D01*
X133953736Y-66409245D01*
X133922685Y-66406801D01*
X133730718Y-66391693D01*
X133730709Y-66391693D01*
X133728261Y-66391500D01*
X133572729Y-66391500D01*
X133570593Y-66391646D01*
X133570582Y-66391646D01*
X133362452Y-66405835D01*
X133362446Y-66405836D01*
X133358175Y-66406127D01*
X133353980Y-66406996D01*
X133353978Y-66406996D01*
X133217416Y-66435277D01*
X133076658Y-66464426D01*
X132805657Y-66560393D01*
X132550188Y-66692250D01*
X132546687Y-66694711D01*
X132546683Y-66694713D01*
X132508165Y-66721784D01*
X132314977Y-66857559D01*
X132104378Y-67053260D01*
X131922287Y-67275732D01*
X131772073Y-67520858D01*
X131656517Y-67784102D01*
X131577756Y-68060594D01*
X131537249Y-68345216D01*
X131537227Y-68349505D01*
X131537226Y-68349512D01*
X131536186Y-68548063D01*
X131535743Y-68632703D01*
X127258500Y-68632703D01*
X127258500Y-66701866D01*
X127251745Y-66639684D01*
X127200615Y-66503295D01*
X127113261Y-66386739D01*
X126996705Y-66299385D01*
X126860316Y-66248255D01*
X126798134Y-66241500D01*
X123201866Y-66241500D01*
X123139684Y-66248255D01*
X123003295Y-66299385D01*
X122886739Y-66386739D01*
X122799385Y-66503295D01*
X122748255Y-66639684D01*
X122741500Y-66701866D01*
X122741500Y-70298134D01*
X119533000Y-70298134D01*
X119533000Y-70022115D01*
X119528525Y-70006876D01*
X119527135Y-70005671D01*
X119519452Y-70004000D01*
X116535116Y-70004000D01*
X116519877Y-70008475D01*
X116518672Y-70009865D01*
X116517001Y-70017548D01*
X116517001Y-70397095D01*
X116517338Y-70403614D01*
X116527257Y-70499206D01*
X116530149Y-70512600D01*
X116581588Y-70666784D01*
X116587761Y-70679962D01*
X116673063Y-70817807D01*
X116682099Y-70829208D01*
X116796829Y-70943739D01*
X116808243Y-70952753D01*
X116947713Y-71038723D01*
X116995207Y-71091495D01*
X117006631Y-71161566D01*
X116978357Y-71226690D01*
X116968574Y-71237149D01*
X116853865Y-71346576D01*
X116716246Y-71531542D01*
X116611760Y-71737051D01*
X116610178Y-71742145D01*
X116610177Y-71742148D01*
X116548115Y-71942020D01*
X116543393Y-71957227D01*
X116542692Y-71962516D01*
X116527304Y-72078623D01*
X116513102Y-72185774D01*
X114508500Y-72185774D01*
X114508500Y-69477885D01*
X116517000Y-69477885D01*
X116521475Y-69493124D01*
X116522865Y-69494329D01*
X116530548Y-69496000D01*
X117752885Y-69496000D01*
X117768124Y-69491525D01*
X117769329Y-69490135D01*
X117771000Y-69482452D01*
X117771000Y-69477885D01*
X118279000Y-69477885D01*
X118283475Y-69493124D01*
X118284865Y-69494329D01*
X118292548Y-69496000D01*
X119514884Y-69496000D01*
X119530123Y-69491525D01*
X119531328Y-69490135D01*
X119532999Y-69482452D01*
X119532999Y-69102905D01*
X119532662Y-69096386D01*
X119522743Y-69000794D01*
X119519851Y-68987400D01*
X119468412Y-68833216D01*
X119462239Y-68820038D01*
X119376937Y-68682193D01*
X119367901Y-68670792D01*
X119253171Y-68556261D01*
X119241760Y-68547249D01*
X119103757Y-68462184D01*
X119090576Y-68456037D01*
X118936290Y-68404862D01*
X118922914Y-68401995D01*
X118828562Y-68392328D01*
X118822145Y-68392000D01*
X118297115Y-68392000D01*
X118281876Y-68396475D01*
X118280671Y-68397865D01*
X118279000Y-68405548D01*
X118279000Y-69477885D01*
X117771000Y-69477885D01*
X117771000Y-68410116D01*
X117766525Y-68394877D01*
X117765135Y-68393672D01*
X117757452Y-68392001D01*
X117227905Y-68392001D01*
X117221386Y-68392338D01*
X117125794Y-68402257D01*
X117112400Y-68405149D01*
X116958216Y-68456588D01*
X116945038Y-68462761D01*
X116807193Y-68548063D01*
X116795792Y-68557099D01*
X116681261Y-68671829D01*
X116672249Y-68683240D01*
X116587184Y-68821243D01*
X116581037Y-68834424D01*
X116529862Y-68988710D01*
X116526995Y-69002086D01*
X116517328Y-69096438D01*
X116517000Y-69102855D01*
X116517000Y-69477885D01*
X114508500Y-69477885D01*
X114508500Y-59500000D01*
X118000000Y-59500000D01*
X123000000Y-59500000D01*
X123000000Y-54808100D01*
X159147896Y-54808100D01*
X159148586Y-54814665D01*
X159165995Y-54980298D01*
X159167858Y-54998028D01*
X159226873Y-55179656D01*
X159322360Y-55345044D01*
X159326778Y-55349951D01*
X159326779Y-55349952D01*
X159351650Y-55377574D01*
X159450147Y-55486966D01*
X159604648Y-55599218D01*
X159610676Y-55601902D01*
X159610678Y-55601903D01*
X159773081Y-55674209D01*
X159779112Y-55676894D01*
X159872512Y-55696747D01*
X159959456Y-55715228D01*
X159959461Y-55715228D01*
X159965913Y-55716600D01*
X160156887Y-55716600D01*
X160163339Y-55715228D01*
X160163344Y-55715228D01*
X160250287Y-55696747D01*
X160343688Y-55676894D01*
X160349719Y-55674209D01*
X160512122Y-55601903D01*
X160512124Y-55601902D01*
X160518152Y-55599218D01*
X160672653Y-55486966D01*
X160677068Y-55482063D01*
X160681980Y-55477640D01*
X160683105Y-55478889D01*
X160736414Y-55446049D01*
X160769600Y-55441600D01*
X176691452Y-55441600D01*
X176759573Y-55461602D01*
X176806066Y-55515258D01*
X176816761Y-55554428D01*
X176822458Y-55608628D01*
X176881473Y-55790256D01*
X176976960Y-55955644D01*
X177104747Y-56097566D01*
X177259248Y-56209818D01*
X177265276Y-56212502D01*
X177265278Y-56212503D01*
X177427681Y-56284809D01*
X177433712Y-56287494D01*
X177527112Y-56307347D01*
X177614056Y-56325828D01*
X177614061Y-56325828D01*
X177620513Y-56327200D01*
X177811487Y-56327200D01*
X177817939Y-56325828D01*
X177817944Y-56325828D01*
X177904888Y-56307347D01*
X177998288Y-56287494D01*
X178004319Y-56284809D01*
X178166722Y-56212503D01*
X178166724Y-56212502D01*
X178172752Y-56209818D01*
X178327253Y-56097566D01*
X178455040Y-55955644D01*
X178550527Y-55790256D01*
X178609542Y-55608628D01*
X178615239Y-55554430D01*
X178628814Y-55425265D01*
X178629504Y-55418700D01*
X178609542Y-55228772D01*
X178550527Y-55047144D01*
X178455040Y-54881756D01*
X178365382Y-54782180D01*
X178331675Y-54744745D01*
X178331674Y-54744744D01*
X178327253Y-54739834D01*
X178172752Y-54627582D01*
X178166724Y-54624898D01*
X178166722Y-54624897D01*
X178004319Y-54552591D01*
X178004318Y-54552591D01*
X177998288Y-54549906D01*
X177904887Y-54530053D01*
X177817944Y-54511572D01*
X177817939Y-54511572D01*
X177811487Y-54510200D01*
X177755595Y-54510200D01*
X177687474Y-54490198D01*
X177666500Y-54473295D01*
X177609052Y-54415847D01*
X177601512Y-54407561D01*
X177597400Y-54401082D01*
X177547748Y-54354456D01*
X177544907Y-54351702D01*
X177525170Y-54331965D01*
X177521973Y-54329485D01*
X177512951Y-54321780D01*
X177486500Y-54296941D01*
X177480721Y-54291514D01*
X177473775Y-54287695D01*
X177473772Y-54287693D01*
X177462966Y-54281752D01*
X177446447Y-54270901D01*
X177440448Y-54266248D01*
X177430441Y-54258486D01*
X177423172Y-54255341D01*
X177423168Y-54255338D01*
X177389863Y-54240926D01*
X177379213Y-54235709D01*
X177340460Y-54214405D01*
X177320837Y-54209367D01*
X177302134Y-54202963D01*
X177290820Y-54198067D01*
X177290819Y-54198067D01*
X177283545Y-54194919D01*
X177275722Y-54193680D01*
X177275712Y-54193677D01*
X177239876Y-54188001D01*
X177228256Y-54185595D01*
X177193111Y-54176572D01*
X177193110Y-54176572D01*
X177185430Y-54174600D01*
X177165176Y-54174600D01*
X177145465Y-54173049D01*
X177133286Y-54171120D01*
X177125457Y-54169880D01*
X177117565Y-54170626D01*
X177081439Y-54174041D01*
X177069581Y-54174600D01*
X160769600Y-54174600D01*
X160701479Y-54154598D01*
X160682253Y-54138257D01*
X160681980Y-54138560D01*
X160677068Y-54134137D01*
X160672653Y-54129234D01*
X160518152Y-54016982D01*
X160512124Y-54014298D01*
X160512122Y-54014297D01*
X160349719Y-53941991D01*
X160349718Y-53941991D01*
X160343688Y-53939306D01*
X160231662Y-53915494D01*
X160163344Y-53900972D01*
X160163339Y-53900972D01*
X160156887Y-53899600D01*
X159965913Y-53899600D01*
X159959461Y-53900972D01*
X159959456Y-53900972D01*
X159891138Y-53915494D01*
X159779112Y-53939306D01*
X159773082Y-53941991D01*
X159773081Y-53941991D01*
X159610678Y-54014297D01*
X159610676Y-54014298D01*
X159604648Y-54016982D01*
X159450147Y-54129234D01*
X159445726Y-54134144D01*
X159445725Y-54134145D01*
X159336603Y-54255338D01*
X159322360Y-54271156D01*
X159226873Y-54436544D01*
X159167858Y-54618172D01*
X159147896Y-54808100D01*
X123000000Y-54808100D01*
X123000000Y-54000000D01*
X118000000Y-54000000D01*
X118000000Y-59500000D01*
X114508500Y-59500000D01*
X114508500Y-46267399D01*
X116337212Y-46267399D01*
X116358694Y-46356537D01*
X116362583Y-46367832D01*
X116445129Y-46549382D01*
X116451076Y-46559724D01*
X116566468Y-46722397D01*
X116574261Y-46731425D01*
X116718331Y-46869342D01*
X116727696Y-46876738D01*
X116895241Y-46984921D01*
X116905845Y-46990417D01*
X117090812Y-47064961D01*
X117102270Y-47068355D01*
X117299428Y-47106857D01*
X117308291Y-47107934D01*
X117311000Y-47108000D01*
X117490385Y-47108000D01*
X117505624Y-47103525D01*
X117506829Y-47102135D01*
X117508500Y-47094452D01*
X117508500Y-47089885D01*
X118016500Y-47089885D01*
X118020975Y-47105124D01*
X118022365Y-47106329D01*
X118030048Y-47108000D01*
X118162332Y-47108000D01*
X118168308Y-47107715D01*
X118316994Y-47093529D01*
X118328728Y-47091270D01*
X118520099Y-47035128D01*
X118531175Y-47030698D01*
X118708478Y-46939381D01*
X118718524Y-46932931D01*
X118875357Y-46809738D01*
X118884006Y-46801501D01*
X119014712Y-46650877D01*
X119021647Y-46641153D01*
X119121510Y-46468533D01*
X119126484Y-46457669D01*
X119191907Y-46269273D01*
X119192148Y-46268284D01*
X119190680Y-46257992D01*
X119177115Y-46254000D01*
X118034615Y-46254000D01*
X118019376Y-46258475D01*
X118018171Y-46259865D01*
X118016500Y-46267548D01*
X118016500Y-47089885D01*
X117508500Y-47089885D01*
X117508500Y-46272115D01*
X117504025Y-46256876D01*
X117502635Y-46255671D01*
X117494952Y-46254000D01*
X116352098Y-46254000D01*
X116338567Y-46257973D01*
X116337212Y-46267399D01*
X114508500Y-46267399D01*
X114508500Y-46032211D01*
X119794844Y-46032211D01*
X119804140Y-46044226D01*
X119839137Y-46068731D01*
X119848632Y-46074214D01*
X120034196Y-46160744D01*
X120044488Y-46164490D01*
X120242259Y-46217482D01*
X120253054Y-46219385D01*
X120457025Y-46237231D01*
X120467975Y-46237231D01*
X120671946Y-46219385D01*
X120682741Y-46217482D01*
X120880512Y-46164490D01*
X120890804Y-46160744D01*
X121076368Y-46074214D01*
X121085863Y-46068731D01*
X121121697Y-46043640D01*
X121130073Y-46033161D01*
X121123005Y-46019715D01*
X120475312Y-45372022D01*
X120461368Y-45364408D01*
X120459535Y-45364539D01*
X120452920Y-45368790D01*
X119801274Y-46020436D01*
X119794844Y-46032211D01*
X114508500Y-46032211D01*
X114508500Y-45731716D01*
X116332852Y-45731716D01*
X116334320Y-45742008D01*
X116347885Y-45746000D01*
X117490385Y-45746000D01*
X117505624Y-45741525D01*
X117506829Y-45740135D01*
X117508500Y-45732452D01*
X117508500Y-45727885D01*
X118016500Y-45727885D01*
X118020975Y-45743124D01*
X118022365Y-45744329D01*
X118030048Y-45746000D01*
X119172902Y-45746000D01*
X119186432Y-45742027D01*
X119190596Y-45713062D01*
X119220089Y-45648481D01*
X119279815Y-45610097D01*
X119350812Y-45610097D01*
X119410538Y-45648480D01*
X119418525Y-45658720D01*
X119418858Y-45659195D01*
X119429339Y-45667573D01*
X119442785Y-45660505D01*
X120090478Y-45012812D01*
X120096856Y-45001132D01*
X120826908Y-45001132D01*
X120827039Y-45002965D01*
X120831290Y-45009580D01*
X121482936Y-45661226D01*
X121494711Y-45667656D01*
X121506726Y-45658360D01*
X121531231Y-45623363D01*
X121536714Y-45613868D01*
X121623244Y-45428304D01*
X121626990Y-45418012D01*
X121679982Y-45220241D01*
X121681885Y-45209446D01*
X121699731Y-45005475D01*
X121699731Y-44994525D01*
X121681885Y-44790554D01*
X121679982Y-44779759D01*
X121626990Y-44581988D01*
X121623244Y-44571696D01*
X121536714Y-44386132D01*
X121531231Y-44376637D01*
X121506140Y-44340803D01*
X121495661Y-44332427D01*
X121482215Y-44339495D01*
X120834522Y-44987188D01*
X120826908Y-45001132D01*
X120096856Y-45001132D01*
X120098092Y-44998868D01*
X120097961Y-44997035D01*
X120093710Y-44990420D01*
X119442064Y-44338774D01*
X119430289Y-44332344D01*
X119418274Y-44341640D01*
X119393769Y-44376637D01*
X119388286Y-44386132D01*
X119301756Y-44571696D01*
X119298010Y-44581988D01*
X119245018Y-44779759D01*
X119243115Y-44790554D01*
X119225269Y-44994525D01*
X119225269Y-45005475D01*
X119243115Y-45209446D01*
X119245018Y-45220238D01*
X119261927Y-45283344D01*
X119260237Y-45354321D01*
X119220443Y-45413117D01*
X119155179Y-45441065D01*
X119085165Y-45429292D01*
X119037451Y-45388856D01*
X118958538Y-45277610D01*
X118950739Y-45268575D01*
X118806669Y-45130658D01*
X118797304Y-45123262D01*
X118629759Y-45015079D01*
X118619155Y-45009583D01*
X118434188Y-44935039D01*
X118422730Y-44931645D01*
X118225572Y-44893143D01*
X118216709Y-44892066D01*
X118214000Y-44892000D01*
X118034615Y-44892000D01*
X118019376Y-44896475D01*
X118018171Y-44897865D01*
X118016500Y-44905548D01*
X118016500Y-45727885D01*
X117508500Y-45727885D01*
X117508500Y-44910115D01*
X117504025Y-44894876D01*
X117502635Y-44893671D01*
X117494952Y-44892000D01*
X117362668Y-44892000D01*
X117356692Y-44892285D01*
X117208006Y-44906471D01*
X117196272Y-44908730D01*
X117004901Y-44964872D01*
X116993825Y-44969302D01*
X116816522Y-45060619D01*
X116806476Y-45067069D01*
X116649643Y-45190262D01*
X116640994Y-45198499D01*
X116510288Y-45349123D01*
X116503353Y-45358847D01*
X116403490Y-45531467D01*
X116398516Y-45542331D01*
X116333093Y-45730727D01*
X116332852Y-45731716D01*
X114508500Y-45731716D01*
X114508500Y-43966839D01*
X119794927Y-43966839D01*
X119801995Y-43980285D01*
X120449688Y-44627978D01*
X120463632Y-44635592D01*
X120465465Y-44635461D01*
X120472080Y-44631210D01*
X121123726Y-43979564D01*
X121130156Y-43967789D01*
X121120860Y-43955774D01*
X121085863Y-43931269D01*
X121076368Y-43925786D01*
X120890804Y-43839256D01*
X120880512Y-43835510D01*
X120682741Y-43782518D01*
X120671946Y-43780615D01*
X120467975Y-43762769D01*
X120457025Y-43762769D01*
X120253054Y-43780615D01*
X120242259Y-43782518D01*
X120044488Y-43835510D01*
X120034196Y-43839256D01*
X119848632Y-43925786D01*
X119839137Y-43931269D01*
X119803303Y-43956360D01*
X119794927Y-43966839D01*
X114508500Y-43966839D01*
X114508500Y-41032211D01*
X119794844Y-41032211D01*
X119804140Y-41044226D01*
X119839137Y-41068731D01*
X119848632Y-41074214D01*
X120034196Y-41160744D01*
X120044488Y-41164490D01*
X120242259Y-41217482D01*
X120253054Y-41219385D01*
X120457025Y-41237231D01*
X120467975Y-41237231D01*
X120671946Y-41219385D01*
X120682741Y-41217482D01*
X120880512Y-41164490D01*
X120890804Y-41160744D01*
X121076368Y-41074214D01*
X121085863Y-41068731D01*
X121121697Y-41043640D01*
X121130073Y-41033161D01*
X121123005Y-41019715D01*
X120475312Y-40372022D01*
X120461368Y-40364408D01*
X120459535Y-40364539D01*
X120452920Y-40368790D01*
X119801274Y-41020436D01*
X119794844Y-41032211D01*
X114508500Y-41032211D01*
X114508500Y-39267399D01*
X116337212Y-39267399D01*
X116358694Y-39356537D01*
X116362583Y-39367832D01*
X116445129Y-39549382D01*
X116451076Y-39559724D01*
X116566468Y-39722397D01*
X116574261Y-39731425D01*
X116718331Y-39869342D01*
X116727696Y-39876738D01*
X116895241Y-39984921D01*
X116905845Y-39990417D01*
X117090812Y-40064961D01*
X117102270Y-40068355D01*
X117299428Y-40106857D01*
X117308291Y-40107934D01*
X117311000Y-40108000D01*
X117490385Y-40108000D01*
X117505624Y-40103525D01*
X117506829Y-40102135D01*
X117508500Y-40094452D01*
X117508500Y-40089885D01*
X118016500Y-40089885D01*
X118020975Y-40105124D01*
X118022365Y-40106329D01*
X118030048Y-40108000D01*
X118162332Y-40108000D01*
X118168308Y-40107715D01*
X118316994Y-40093529D01*
X118328728Y-40091270D01*
X118520099Y-40035128D01*
X118531175Y-40030698D01*
X118708478Y-39939381D01*
X118718524Y-39932931D01*
X118875357Y-39809738D01*
X118884006Y-39801501D01*
X119014712Y-39650877D01*
X119021647Y-39641153D01*
X119029275Y-39627968D01*
X119080700Y-39579019D01*
X119150426Y-39565644D01*
X119216314Y-39592089D01*
X119257445Y-39649957D01*
X119260046Y-39723674D01*
X119245018Y-39779759D01*
X119243115Y-39790554D01*
X119225269Y-39994525D01*
X119225269Y-40005475D01*
X119243115Y-40209446D01*
X119245018Y-40220241D01*
X119298010Y-40418012D01*
X119301756Y-40428304D01*
X119388286Y-40613868D01*
X119393769Y-40623363D01*
X119418860Y-40659197D01*
X119429339Y-40667573D01*
X119442785Y-40660505D01*
X120090478Y-40012812D01*
X120096856Y-40001132D01*
X120826908Y-40001132D01*
X120827039Y-40002965D01*
X120831290Y-40009580D01*
X121482936Y-40661226D01*
X121494711Y-40667656D01*
X121506726Y-40658360D01*
X121531231Y-40623363D01*
X121536714Y-40613868D01*
X121623244Y-40428304D01*
X121626990Y-40418012D01*
X121679982Y-40220241D01*
X121681885Y-40209446D01*
X121699731Y-40005475D01*
X121699731Y-39994525D01*
X121681885Y-39790554D01*
X121679982Y-39779759D01*
X121626990Y-39581988D01*
X121623244Y-39571696D01*
X121536714Y-39386132D01*
X121531231Y-39376637D01*
X121506140Y-39340803D01*
X121495661Y-39332427D01*
X121482215Y-39339495D01*
X120834522Y-39987188D01*
X120826908Y-40001132D01*
X120096856Y-40001132D01*
X120098092Y-39998868D01*
X120097961Y-39997035D01*
X120093710Y-39990420D01*
X119442064Y-39338774D01*
X119430289Y-39332344D01*
X119403139Y-39353349D01*
X119402197Y-39352132D01*
X119366570Y-39380610D01*
X119295951Y-39387920D01*
X119232590Y-39355889D01*
X119196605Y-39294688D01*
X119194075Y-39281799D01*
X119190680Y-39257992D01*
X119177115Y-39254000D01*
X118034615Y-39254000D01*
X118019376Y-39258475D01*
X118018171Y-39259865D01*
X118016500Y-39267548D01*
X118016500Y-40089885D01*
X117508500Y-40089885D01*
X117508500Y-39272115D01*
X117504025Y-39256876D01*
X117502635Y-39255671D01*
X117494952Y-39254000D01*
X116352098Y-39254000D01*
X116338567Y-39257973D01*
X116337212Y-39267399D01*
X114508500Y-39267399D01*
X114508500Y-38966839D01*
X119794927Y-38966839D01*
X119801995Y-38980285D01*
X120449688Y-39627978D01*
X120463632Y-39635592D01*
X120465465Y-39635461D01*
X120472080Y-39631210D01*
X121123726Y-38979564D01*
X121130156Y-38967789D01*
X121120860Y-38955774D01*
X121085863Y-38931269D01*
X121076368Y-38925786D01*
X120890804Y-38839256D01*
X120880512Y-38835510D01*
X120682741Y-38782518D01*
X120671946Y-38780615D01*
X120467975Y-38762769D01*
X120457025Y-38762769D01*
X120253054Y-38780615D01*
X120242259Y-38782518D01*
X120044488Y-38835510D01*
X120034196Y-38839256D01*
X119848632Y-38925786D01*
X119839137Y-38931269D01*
X119803303Y-38956360D01*
X119794927Y-38966839D01*
X114508500Y-38966839D01*
X114508500Y-38731716D01*
X116332852Y-38731716D01*
X116334320Y-38742008D01*
X116347885Y-38746000D01*
X117490385Y-38746000D01*
X117505624Y-38741525D01*
X117506829Y-38740135D01*
X117508500Y-38732452D01*
X117508500Y-38727885D01*
X118016500Y-38727885D01*
X118020975Y-38743124D01*
X118022365Y-38744329D01*
X118030048Y-38746000D01*
X119172902Y-38746000D01*
X119186433Y-38742027D01*
X119187788Y-38732601D01*
X119166306Y-38643463D01*
X119162417Y-38632168D01*
X119079871Y-38450618D01*
X119073924Y-38440276D01*
X118958532Y-38277603D01*
X118950739Y-38268575D01*
X118806669Y-38130658D01*
X118797304Y-38123262D01*
X118629759Y-38015079D01*
X118619155Y-38009583D01*
X118434188Y-37935039D01*
X118422730Y-37931645D01*
X118225572Y-37893143D01*
X118216709Y-37892066D01*
X118214000Y-37892000D01*
X118034615Y-37892000D01*
X118019376Y-37896475D01*
X118018171Y-37897865D01*
X118016500Y-37905548D01*
X118016500Y-38727885D01*
X117508500Y-38727885D01*
X117508500Y-37910115D01*
X117504025Y-37894876D01*
X117502635Y-37893671D01*
X117494952Y-37892000D01*
X117362668Y-37892000D01*
X117356692Y-37892285D01*
X117208006Y-37906471D01*
X117196272Y-37908730D01*
X117004901Y-37964872D01*
X116993825Y-37969302D01*
X116816522Y-38060619D01*
X116806476Y-38067069D01*
X116649643Y-38190262D01*
X116640994Y-38198499D01*
X116510288Y-38349123D01*
X116503353Y-38358847D01*
X116403490Y-38531467D01*
X116398516Y-38542331D01*
X116333093Y-38730727D01*
X116332852Y-38731716D01*
X114508500Y-38731716D01*
X114508500Y-37634500D01*
X114528502Y-37566379D01*
X114582158Y-37519886D01*
X114634500Y-37508500D01*
X124991377Y-37508500D01*
X124992148Y-37508502D01*
X125069721Y-37508976D01*
X125098152Y-37500850D01*
X125114915Y-37497272D01*
X125115753Y-37497152D01*
X125144187Y-37493080D01*
X125167564Y-37482451D01*
X125185087Y-37476004D01*
X125209771Y-37468949D01*
X125217365Y-37464157D01*
X125217368Y-37464156D01*
X125234780Y-37453170D01*
X125249865Y-37445030D01*
X125276782Y-37432792D01*
X125296235Y-37416030D01*
X125311239Y-37404927D01*
X125332958Y-37391224D01*
X125338897Y-37384499D01*
X125338901Y-37384496D01*
X125352532Y-37369062D01*
X125364724Y-37357018D01*
X125380327Y-37343573D01*
X125380329Y-37343570D01*
X125387127Y-37337713D01*
X125401094Y-37316165D01*
X125412385Y-37301291D01*
X125423431Y-37288783D01*
X125423432Y-37288782D01*
X125429378Y-37282049D01*
X125441943Y-37255287D01*
X125450263Y-37240309D01*
X125461471Y-37223017D01*
X125461473Y-37223012D01*
X125466352Y-37215485D01*
X125468922Y-37206892D01*
X125468924Y-37206887D01*
X125473711Y-37190880D01*
X125480372Y-37173436D01*
X125487467Y-37158324D01*
X125487468Y-37158322D01*
X125491281Y-37150200D01*
X125495830Y-37120983D01*
X125499613Y-37104268D01*
X125505515Y-37084534D01*
X125505516Y-37084528D01*
X125508086Y-37075934D01*
X125508296Y-37041494D01*
X125508329Y-37040711D01*
X125508500Y-37039614D01*
X125508500Y-37008623D01*
X125508502Y-37007853D01*
X125508952Y-36934215D01*
X125508952Y-36934214D01*
X125508976Y-36930279D01*
X125508592Y-36928935D01*
X125508500Y-36927590D01*
X125508500Y-31182890D01*
X127641500Y-31182890D01*
X127641725Y-31185539D01*
X127648508Y-31265476D01*
X127656080Y-31354720D01*
X127657418Y-31359875D01*
X127657419Y-31359881D01*
X127712657Y-31572703D01*
X127713999Y-31577872D01*
X127808688Y-31788075D01*
X127937441Y-31979319D01*
X127941120Y-31983176D01*
X127941122Y-31983178D01*
X128002710Y-32047738D01*
X128096576Y-32146135D01*
X128281542Y-32283754D01*
X128286293Y-32286170D01*
X128286297Y-32286172D01*
X128349481Y-32318296D01*
X128487051Y-32388240D01*
X128492145Y-32389822D01*
X128492148Y-32389823D01*
X128657583Y-32441192D01*
X128707227Y-32456607D01*
X128712516Y-32457308D01*
X128930489Y-32486198D01*
X128930494Y-32486198D01*
X128935774Y-32486898D01*
X128941103Y-32486698D01*
X128941105Y-32486698D01*
X129050966Y-32482574D01*
X129166158Y-32478249D01*
X129186600Y-32473960D01*
X129386572Y-32432002D01*
X129391791Y-32430907D01*
X129396750Y-32428949D01*
X129396752Y-32428948D01*
X129601256Y-32348185D01*
X129601258Y-32348184D01*
X129606221Y-32346224D01*
X129611525Y-32343006D01*
X129798757Y-32229390D01*
X129798756Y-32229390D01*
X129803317Y-32226623D01*
X129849617Y-32186446D01*
X129973412Y-32079023D01*
X129973414Y-32079021D01*
X129977445Y-32075523D01*
X130041048Y-31997954D01*
X130120240Y-31901373D01*
X130120244Y-31901367D01*
X130123624Y-31897245D01*
X130137413Y-31873022D01*
X130141829Y-31865265D01*
X130192912Y-31815959D01*
X130262542Y-31802098D01*
X130328613Y-31828082D01*
X130355851Y-31857232D01*
X130434852Y-31974578D01*
X130441519Y-31982870D01*
X130593228Y-32141900D01*
X130601186Y-32148941D01*
X130777525Y-32280141D01*
X130786562Y-32285745D01*
X130982484Y-32385357D01*
X130992335Y-32389357D01*
X131202240Y-32454534D01*
X131212624Y-32456817D01*
X131228043Y-32458861D01*
X131242207Y-32456665D01*
X131246000Y-32443478D01*
X131246000Y-32441192D01*
X131754000Y-32441192D01*
X131757973Y-32454723D01*
X131768580Y-32456248D01*
X131886421Y-32431523D01*
X131896617Y-32428463D01*
X132101029Y-32347737D01*
X132110561Y-32343006D01*
X132298462Y-32228984D01*
X132307052Y-32222720D01*
X132473052Y-32078673D01*
X132480472Y-32071042D01*
X132619826Y-31901089D01*
X132625848Y-31892326D01*
X132641238Y-31865289D01*
X132692320Y-31815982D01*
X132761951Y-31802120D01*
X132828022Y-31828103D01*
X132855261Y-31857253D01*
X132884773Y-31901089D01*
X132937441Y-31979319D01*
X132941120Y-31983176D01*
X132941122Y-31983178D01*
X133002710Y-32047738D01*
X133096576Y-32146135D01*
X133281542Y-32283754D01*
X133286293Y-32286170D01*
X133286297Y-32286172D01*
X133349481Y-32318296D01*
X133487051Y-32388240D01*
X133492145Y-32389822D01*
X133492148Y-32389823D01*
X133657583Y-32441192D01*
X133707227Y-32456607D01*
X133712516Y-32457308D01*
X133930489Y-32486198D01*
X133930494Y-32486198D01*
X133935774Y-32486898D01*
X133941103Y-32486698D01*
X133941105Y-32486698D01*
X134050966Y-32482574D01*
X134166158Y-32478249D01*
X134186600Y-32473960D01*
X134386572Y-32432002D01*
X134391791Y-32430907D01*
X134396750Y-32428949D01*
X134396752Y-32428948D01*
X134601256Y-32348185D01*
X134601258Y-32348184D01*
X134606221Y-32346224D01*
X134611525Y-32343006D01*
X134798757Y-32229390D01*
X134798756Y-32229390D01*
X134803317Y-32226623D01*
X134849617Y-32186446D01*
X134973412Y-32079023D01*
X134973414Y-32079021D01*
X134977445Y-32075523D01*
X135006670Y-32039880D01*
X135065329Y-31999886D01*
X135136299Y-31997954D01*
X135197048Y-32034698D01*
X135211248Y-32053468D01*
X135227062Y-32079023D01*
X135301522Y-32199348D01*
X135426697Y-32324305D01*
X135432927Y-32328145D01*
X135432928Y-32328146D01*
X135570090Y-32412694D01*
X135577262Y-32417115D01*
X135612938Y-32428948D01*
X135738611Y-32470632D01*
X135738613Y-32470632D01*
X135745139Y-32472797D01*
X135751975Y-32473497D01*
X135751978Y-32473498D01*
X135787663Y-32477154D01*
X135849600Y-32483500D01*
X137035406Y-32483500D01*
X137103527Y-32503502D01*
X137124501Y-32520405D01*
X144211702Y-39607607D01*
X151298148Y-46694053D01*
X151305688Y-46702339D01*
X151309800Y-46708818D01*
X151315577Y-46714243D01*
X151359451Y-46755443D01*
X151362293Y-46758198D01*
X151382030Y-46777935D01*
X151385227Y-46780415D01*
X151394247Y-46788118D01*
X151426479Y-46818386D01*
X151433425Y-46822205D01*
X151433428Y-46822207D01*
X151444234Y-46828148D01*
X151460753Y-46838999D01*
X151476759Y-46851414D01*
X151484028Y-46854559D01*
X151484032Y-46854562D01*
X151517337Y-46868974D01*
X151527987Y-46874191D01*
X151566740Y-46895495D01*
X151574415Y-46897466D01*
X151574416Y-46897466D01*
X151586362Y-46900533D01*
X151605067Y-46906937D01*
X151623655Y-46914981D01*
X151631478Y-46916220D01*
X151631488Y-46916223D01*
X151667324Y-46921899D01*
X151678944Y-46924305D01*
X151712543Y-46932931D01*
X151721770Y-46935300D01*
X151742024Y-46935300D01*
X151761734Y-46936851D01*
X151781743Y-46940020D01*
X151789635Y-46939274D01*
X151825761Y-46935859D01*
X151837619Y-46935300D01*
X176214900Y-46935300D01*
X176283021Y-46955302D01*
X176302247Y-46971643D01*
X176302520Y-46971340D01*
X176307432Y-46975763D01*
X176311847Y-46980666D01*
X176325268Y-46990417D01*
X176440646Y-47074244D01*
X176466348Y-47092918D01*
X176472376Y-47095602D01*
X176472378Y-47095603D01*
X176634781Y-47167909D01*
X176640812Y-47170594D01*
X176734213Y-47190447D01*
X176821156Y-47208928D01*
X176821161Y-47208928D01*
X176827613Y-47210300D01*
X177018587Y-47210300D01*
X177025044Y-47208928D01*
X177025049Y-47208927D01*
X177033805Y-47207066D01*
X177104596Y-47212469D01*
X177161228Y-47255287D01*
X177185720Y-47321925D01*
X177186000Y-47330313D01*
X177186000Y-47812333D01*
X177185473Y-47823516D01*
X177183798Y-47831009D01*
X177184047Y-47838935D01*
X177184047Y-47838936D01*
X177185938Y-47899086D01*
X177186000Y-47903045D01*
X177186000Y-47930956D01*
X177186497Y-47934890D01*
X177186497Y-47934891D01*
X177186505Y-47934956D01*
X177187438Y-47946793D01*
X177188827Y-47990989D01*
X177194478Y-48010439D01*
X177198487Y-48029800D01*
X177201026Y-48049897D01*
X177203945Y-48057268D01*
X177203945Y-48057270D01*
X177217304Y-48091012D01*
X177221149Y-48102242D01*
X177233482Y-48144693D01*
X177237515Y-48151512D01*
X177237517Y-48151517D01*
X177243793Y-48162128D01*
X177252488Y-48179876D01*
X177259948Y-48198717D01*
X177264610Y-48205133D01*
X177264610Y-48205134D01*
X177285936Y-48234487D01*
X177292452Y-48244407D01*
X177314958Y-48282462D01*
X177329279Y-48296783D01*
X177342119Y-48311816D01*
X177354028Y-48328207D01*
X177385569Y-48354300D01*
X177388105Y-48356398D01*
X177396884Y-48364388D01*
X179216095Y-50183599D01*
X179250121Y-50245911D01*
X179253000Y-50272694D01*
X179253000Y-52078275D01*
X179232998Y-52146396D01*
X179179342Y-52192889D01*
X179109068Y-52202993D01*
X179100802Y-52201521D01*
X179051651Y-52191073D01*
X179051642Y-52191072D01*
X179045187Y-52189700D01*
X178989294Y-52189700D01*
X178921173Y-52169698D01*
X178900199Y-52152795D01*
X174501252Y-47753847D01*
X174493712Y-47745561D01*
X174489600Y-47739082D01*
X174439948Y-47692456D01*
X174437107Y-47689702D01*
X174417370Y-47669965D01*
X174414173Y-47667485D01*
X174405151Y-47659780D01*
X174378700Y-47634941D01*
X174372921Y-47629514D01*
X174365975Y-47625695D01*
X174365972Y-47625693D01*
X174355166Y-47619752D01*
X174338647Y-47608901D01*
X174331410Y-47603288D01*
X174322641Y-47596486D01*
X174315372Y-47593341D01*
X174315368Y-47593338D01*
X174282063Y-47578926D01*
X174271413Y-47573709D01*
X174232660Y-47552405D01*
X174213037Y-47547367D01*
X174194334Y-47540963D01*
X174183020Y-47536067D01*
X174183019Y-47536067D01*
X174175745Y-47532919D01*
X174167922Y-47531680D01*
X174167912Y-47531677D01*
X174132076Y-47526001D01*
X174120456Y-47523595D01*
X174085311Y-47514572D01*
X174085310Y-47514572D01*
X174077630Y-47512600D01*
X174057376Y-47512600D01*
X174037665Y-47511049D01*
X174025486Y-47509120D01*
X174017657Y-47507880D01*
X174009765Y-47508626D01*
X173973639Y-47512041D01*
X173961781Y-47512600D01*
X162332200Y-47512600D01*
X162264079Y-47492598D01*
X162244853Y-47476257D01*
X162244580Y-47476560D01*
X162239668Y-47472137D01*
X162235253Y-47467234D01*
X162080752Y-47354982D01*
X162074724Y-47352298D01*
X162074722Y-47352297D01*
X161912319Y-47279991D01*
X161912318Y-47279991D01*
X161906288Y-47277306D01*
X161805450Y-47255872D01*
X161725944Y-47238972D01*
X161725939Y-47238972D01*
X161719487Y-47237600D01*
X161528513Y-47237600D01*
X161522061Y-47238972D01*
X161522056Y-47238972D01*
X161442550Y-47255872D01*
X161341712Y-47277306D01*
X161335682Y-47279991D01*
X161335681Y-47279991D01*
X161173278Y-47352297D01*
X161173276Y-47352298D01*
X161167248Y-47354982D01*
X161012747Y-47467234D01*
X161008326Y-47472144D01*
X161008325Y-47472145D01*
X160890244Y-47603288D01*
X160884960Y-47609156D01*
X160789473Y-47774544D01*
X160730458Y-47956172D01*
X160729768Y-47962733D01*
X160729768Y-47962735D01*
X160722719Y-48029800D01*
X160710496Y-48146100D01*
X160711186Y-48152665D01*
X160729849Y-48330234D01*
X160717077Y-48400072D01*
X160668575Y-48451919D01*
X160655787Y-48458511D01*
X160493881Y-48530595D01*
X160493874Y-48530599D01*
X160487848Y-48533282D01*
X160333347Y-48645534D01*
X160328926Y-48650444D01*
X160328925Y-48650445D01*
X160211170Y-48781226D01*
X160205560Y-48787456D01*
X160110073Y-48952844D01*
X160051058Y-49134472D01*
X160050368Y-49141033D01*
X160050368Y-49141035D01*
X160048217Y-49161500D01*
X160031096Y-49324400D01*
X160051058Y-49514328D01*
X160110073Y-49695956D01*
X160205560Y-49861344D01*
X160333347Y-50003266D01*
X160487848Y-50115518D01*
X160493876Y-50118202D01*
X160493878Y-50118203D01*
X160640761Y-50183599D01*
X160662312Y-50193194D01*
X160755712Y-50213047D01*
X160842656Y-50231528D01*
X160842661Y-50231528D01*
X160849113Y-50232900D01*
X160905006Y-50232900D01*
X160973127Y-50252902D01*
X160994101Y-50269805D01*
X161186543Y-50462247D01*
X161194087Y-50470537D01*
X161198200Y-50477018D01*
X161203977Y-50482443D01*
X161247867Y-50523658D01*
X161250709Y-50526413D01*
X161270431Y-50546135D01*
X161273555Y-50548558D01*
X161273559Y-50548562D01*
X161273624Y-50548612D01*
X161282645Y-50556317D01*
X161314879Y-50586586D01*
X161321827Y-50590405D01*
X161321829Y-50590407D01*
X161332632Y-50596346D01*
X161349159Y-50607202D01*
X161358898Y-50614757D01*
X161358900Y-50614758D01*
X161365160Y-50619614D01*
X161405740Y-50637174D01*
X161416388Y-50642391D01*
X161455140Y-50663695D01*
X161462816Y-50665666D01*
X161462819Y-50665667D01*
X161474762Y-50668733D01*
X161493467Y-50675137D01*
X161512055Y-50683181D01*
X161519878Y-50684420D01*
X161519888Y-50684423D01*
X161555724Y-50690099D01*
X161567344Y-50692505D01*
X161602489Y-50701528D01*
X161610170Y-50703500D01*
X161630424Y-50703500D01*
X161650134Y-50705051D01*
X161670143Y-50708220D01*
X161678035Y-50707474D01*
X161714161Y-50704059D01*
X161726019Y-50703500D01*
X171707300Y-50703500D01*
X171775421Y-50723502D01*
X171794647Y-50739843D01*
X171794920Y-50739540D01*
X171799832Y-50743963D01*
X171804247Y-50748866D01*
X171958748Y-50861118D01*
X171964776Y-50863802D01*
X171964778Y-50863803D01*
X172127181Y-50936109D01*
X172133212Y-50938794D01*
X172226613Y-50958647D01*
X172313556Y-50977128D01*
X172313561Y-50977128D01*
X172320013Y-50978500D01*
X172510987Y-50978500D01*
X172517439Y-50977128D01*
X172517444Y-50977128D01*
X172604387Y-50958647D01*
X172697788Y-50938794D01*
X172703819Y-50936109D01*
X172866222Y-50863803D01*
X172866224Y-50863802D01*
X172872252Y-50861118D01*
X173026753Y-50748866D01*
X173063351Y-50708220D01*
X173150121Y-50611852D01*
X173150122Y-50611851D01*
X173154540Y-50606944D01*
X173229553Y-50477018D01*
X173246723Y-50447279D01*
X173246724Y-50447278D01*
X173250027Y-50441556D01*
X173309042Y-50259928D01*
X173309781Y-50252902D01*
X173328314Y-50076565D01*
X173329004Y-50070000D01*
X173309042Y-49880072D01*
X173250027Y-49698444D01*
X173154540Y-49533056D01*
X173026753Y-49391134D01*
X172872252Y-49278882D01*
X172866224Y-49276198D01*
X172866222Y-49276197D01*
X172703819Y-49203891D01*
X172703818Y-49203891D01*
X172697788Y-49201206D01*
X172604388Y-49181353D01*
X172517444Y-49162872D01*
X172517439Y-49162872D01*
X172510987Y-49161500D01*
X172320013Y-49161500D01*
X172313561Y-49162872D01*
X172313556Y-49162872D01*
X172226613Y-49181353D01*
X172133212Y-49201206D01*
X172127182Y-49203891D01*
X172127181Y-49203891D01*
X171964778Y-49276197D01*
X171964776Y-49276198D01*
X171958748Y-49278882D01*
X171953407Y-49282762D01*
X171953406Y-49282763D01*
X171905134Y-49317835D01*
X171804247Y-49391134D01*
X171799832Y-49396037D01*
X171794920Y-49400460D01*
X171793795Y-49399211D01*
X171740486Y-49432051D01*
X171707300Y-49436500D01*
X162004794Y-49436500D01*
X161936673Y-49416498D01*
X161915699Y-49399595D01*
X161891722Y-49375618D01*
X161857696Y-49313306D01*
X161855507Y-49299693D01*
X161838751Y-49140266D01*
X161851523Y-49070428D01*
X161900025Y-49018581D01*
X161912813Y-49011989D01*
X162074719Y-48939905D01*
X162074726Y-48939901D01*
X162080752Y-48937218D01*
X162092248Y-48928866D01*
X162229914Y-48828845D01*
X162235253Y-48824966D01*
X162239668Y-48820063D01*
X162244580Y-48815640D01*
X162245705Y-48816889D01*
X162299014Y-48784049D01*
X162332200Y-48779600D01*
X173683006Y-48779600D01*
X173751127Y-48799602D01*
X173772101Y-48816505D01*
X178002578Y-53046983D01*
X178036604Y-53109295D01*
X178038793Y-53122906D01*
X178056158Y-53288128D01*
X178115173Y-53469756D01*
X178210660Y-53635144D01*
X178215078Y-53640051D01*
X178215079Y-53640052D01*
X178334025Y-53772155D01*
X178338447Y-53777066D01*
X178492948Y-53889318D01*
X178498976Y-53892002D01*
X178498978Y-53892003D01*
X178640922Y-53955200D01*
X178667412Y-53966994D01*
X178760812Y-53986847D01*
X178847756Y-54005328D01*
X178847761Y-54005328D01*
X178854213Y-54006700D01*
X179045187Y-54006700D01*
X179051642Y-54005328D01*
X179051651Y-54005327D01*
X179100802Y-53994879D01*
X179171593Y-54000280D01*
X179228226Y-54043096D01*
X179252720Y-54109734D01*
X179253000Y-54118125D01*
X179253000Y-70142433D01*
X179252473Y-70153616D01*
X179250798Y-70161109D01*
X179251047Y-70169035D01*
X179251047Y-70169036D01*
X179252938Y-70229186D01*
X179253000Y-70233145D01*
X179253000Y-70261056D01*
X179253497Y-70264990D01*
X179253497Y-70264991D01*
X179253505Y-70265056D01*
X179254438Y-70276893D01*
X179255827Y-70321089D01*
X179261478Y-70340539D01*
X179265487Y-70359900D01*
X179268026Y-70379997D01*
X179270945Y-70387368D01*
X179270945Y-70387370D01*
X179284304Y-70421112D01*
X179288149Y-70432342D01*
X179295425Y-70457387D01*
X179300482Y-70474793D01*
X179304515Y-70481612D01*
X179304517Y-70481617D01*
X179310793Y-70492228D01*
X179319488Y-70509976D01*
X179326948Y-70528817D01*
X179331610Y-70535233D01*
X179331610Y-70535234D01*
X179352936Y-70564587D01*
X179359452Y-70574507D01*
X179381958Y-70612562D01*
X179396279Y-70626883D01*
X179409119Y-70641916D01*
X179421028Y-70658307D01*
X179455105Y-70686498D01*
X179463884Y-70694488D01*
X187780801Y-79011405D01*
X187814827Y-79073717D01*
X187809762Y-79144532D01*
X187767215Y-79201368D01*
X187700695Y-79226179D01*
X187691706Y-79226500D01*
X187676866Y-79226500D01*
X187614684Y-79233255D01*
X187478295Y-79284385D01*
X187361739Y-79371739D01*
X187274385Y-79488295D01*
X187223255Y-79624684D01*
X187216500Y-79686866D01*
X187216500Y-82483134D01*
X187223255Y-82545316D01*
X187274385Y-82681705D01*
X187361739Y-82798261D01*
X187478295Y-82885615D01*
X187614684Y-82936745D01*
X187676866Y-82943500D01*
X190473134Y-82943500D01*
X190535316Y-82936745D01*
X190671705Y-82885615D01*
X190788261Y-82798261D01*
X190875615Y-82681705D01*
X190926745Y-82545316D01*
X190933500Y-82483134D01*
X190933500Y-79686866D01*
X190926745Y-79624684D01*
X190875615Y-79488295D01*
X190788261Y-79371739D01*
X190671705Y-79284385D01*
X190535316Y-79233255D01*
X190473134Y-79226500D01*
X189773164Y-79226500D01*
X189705043Y-79206498D01*
X189661839Y-79155618D01*
X189661017Y-79156104D01*
X189658185Y-79151315D01*
X189658182Y-79151311D01*
X189656982Y-79149282D01*
X189656980Y-79149278D01*
X189650706Y-79138668D01*
X189642010Y-79120918D01*
X189637472Y-79109456D01*
X189637469Y-79109451D01*
X189634552Y-79102083D01*
X189608573Y-79066325D01*
X189602057Y-79056407D01*
X189583575Y-79025157D01*
X189579542Y-79018337D01*
X189565218Y-79004013D01*
X189552376Y-78988978D01*
X189540472Y-78972593D01*
X189506406Y-78944411D01*
X189497627Y-78936422D01*
X180556905Y-69995700D01*
X180522879Y-69933388D01*
X180520000Y-69906605D01*
X180520000Y-68632703D01*
X187145743Y-68632703D01*
X187146302Y-68636947D01*
X187146302Y-68636951D01*
X187150894Y-68671829D01*
X187183268Y-68917734D01*
X187259129Y-69195036D01*
X187371923Y-69459476D01*
X187519561Y-69706161D01*
X187699313Y-69930528D01*
X187907851Y-70128423D01*
X188141317Y-70296186D01*
X188145112Y-70298195D01*
X188145113Y-70298196D01*
X188166869Y-70309715D01*
X188395392Y-70430712D01*
X188419699Y-70439607D01*
X188619162Y-70512600D01*
X188665373Y-70529511D01*
X188946264Y-70590755D01*
X188974841Y-70593004D01*
X189169282Y-70608307D01*
X189169291Y-70608307D01*
X189171739Y-70608500D01*
X189327271Y-70608500D01*
X189329407Y-70608354D01*
X189329418Y-70608354D01*
X189537548Y-70594165D01*
X189537554Y-70594164D01*
X189541825Y-70593873D01*
X189546020Y-70593004D01*
X189546022Y-70593004D01*
X189683243Y-70564587D01*
X189823342Y-70535574D01*
X190094343Y-70439607D01*
X190349812Y-70307750D01*
X190353313Y-70305289D01*
X190353317Y-70305287D01*
X190405153Y-70268856D01*
X195596601Y-70268856D01*
X195603059Y-70278216D01*
X195619361Y-70292512D01*
X195625901Y-70297530D01*
X195865144Y-70457387D01*
X195872281Y-70461508D01*
X196130349Y-70588772D01*
X196137953Y-70591922D01*
X196410420Y-70684412D01*
X196418383Y-70686546D01*
X196700600Y-70742683D01*
X196708751Y-70743756D01*
X196995881Y-70762575D01*
X197004119Y-70762575D01*
X197291249Y-70743756D01*
X197299400Y-70742683D01*
X197581617Y-70686546D01*
X197589580Y-70684412D01*
X197862047Y-70591922D01*
X197869651Y-70588772D01*
X198127719Y-70461508D01*
X198134856Y-70457387D01*
X198374099Y-70297530D01*
X198380639Y-70292512D01*
X198395074Y-70279853D01*
X198403472Y-70266614D01*
X198397638Y-70256849D01*
X197012810Y-68872020D01*
X196998869Y-68864408D01*
X196997034Y-68864539D01*
X196990420Y-68868790D01*
X195604116Y-70255095D01*
X195596601Y-70268856D01*
X190405153Y-70268856D01*
X190568159Y-70154293D01*
X190585023Y-70142441D01*
X190727692Y-70009865D01*
X190792479Y-69949661D01*
X190792481Y-69949658D01*
X190795622Y-69946740D01*
X190977713Y-69724268D01*
X191127927Y-69479142D01*
X191243483Y-69215898D01*
X191322244Y-68939406D01*
X191362751Y-68654784D01*
X191362845Y-68636951D01*
X191363541Y-68504119D01*
X194737425Y-68504119D01*
X194756244Y-68791249D01*
X194757317Y-68799400D01*
X194813454Y-69081617D01*
X194815588Y-69089580D01*
X194908078Y-69362047D01*
X194911228Y-69369651D01*
X195038492Y-69627718D01*
X195042613Y-69634855D01*
X195202470Y-69874099D01*
X195207488Y-69880639D01*
X195220147Y-69895074D01*
X195233386Y-69903472D01*
X195243151Y-69897638D01*
X196627980Y-68512810D01*
X196634357Y-68501131D01*
X197364408Y-68501131D01*
X197364539Y-68502966D01*
X197368790Y-68509580D01*
X198755095Y-69895884D01*
X198768856Y-69903399D01*
X198778216Y-69896941D01*
X198792512Y-69880639D01*
X198797530Y-69874099D01*
X198957387Y-69634855D01*
X198961508Y-69627718D01*
X199088772Y-69369651D01*
X199091922Y-69362047D01*
X199184412Y-69089580D01*
X199186546Y-69081617D01*
X199242683Y-68799400D01*
X199243756Y-68791249D01*
X199262575Y-68504119D01*
X199262575Y-68495881D01*
X199243756Y-68208751D01*
X199242683Y-68200600D01*
X199186546Y-67918383D01*
X199184412Y-67910420D01*
X199091922Y-67637953D01*
X199088772Y-67630349D01*
X198961508Y-67372282D01*
X198957387Y-67365145D01*
X198797530Y-67125901D01*
X198792512Y-67119361D01*
X198779853Y-67104926D01*
X198766614Y-67096528D01*
X198756849Y-67102362D01*
X197372020Y-68487190D01*
X197364408Y-68501131D01*
X196634357Y-68501131D01*
X196635592Y-68498869D01*
X196635461Y-68497034D01*
X196631210Y-68490420D01*
X195244905Y-67104116D01*
X195231144Y-67096601D01*
X195221784Y-67103059D01*
X195207488Y-67119361D01*
X195202470Y-67125901D01*
X195042613Y-67365145D01*
X195038492Y-67372282D01*
X194911228Y-67630349D01*
X194908078Y-67637953D01*
X194815588Y-67910420D01*
X194813454Y-67918383D01*
X194757317Y-68200600D01*
X194756244Y-68208751D01*
X194737425Y-68495881D01*
X194737425Y-68504119D01*
X191363541Y-68504119D01*
X191364235Y-68371583D01*
X191364235Y-68371576D01*
X191364257Y-68367297D01*
X191326732Y-68082266D01*
X191250871Y-67804964D01*
X191138077Y-67540524D01*
X190990439Y-67293839D01*
X190810687Y-67069472D01*
X190602149Y-66871577D01*
X190409837Y-66733386D01*
X195596528Y-66733386D01*
X195602362Y-66743151D01*
X196987190Y-68127980D01*
X197001131Y-68135592D01*
X197002966Y-68135461D01*
X197009580Y-68131210D01*
X198395884Y-66744905D01*
X198403399Y-66731144D01*
X198396941Y-66721784D01*
X198380639Y-66707488D01*
X198374099Y-66702470D01*
X198134856Y-66542613D01*
X198127719Y-66538492D01*
X197869651Y-66411228D01*
X197862047Y-66408078D01*
X197589580Y-66315588D01*
X197581617Y-66313454D01*
X197299400Y-66257317D01*
X197291249Y-66256244D01*
X197004119Y-66237425D01*
X196995881Y-66237425D01*
X196708751Y-66256244D01*
X196700600Y-66257317D01*
X196418383Y-66313454D01*
X196410420Y-66315588D01*
X196137953Y-66408078D01*
X196130349Y-66411228D01*
X195872282Y-66538492D01*
X195865145Y-66542613D01*
X195625901Y-66702470D01*
X195619361Y-66707488D01*
X195604926Y-66720147D01*
X195596528Y-66733386D01*
X190409837Y-66733386D01*
X190368683Y-66703814D01*
X190346843Y-66692250D01*
X190262400Y-66647540D01*
X190114608Y-66569288D01*
X189844627Y-66470489D01*
X189563736Y-66409245D01*
X189532685Y-66406801D01*
X189340718Y-66391693D01*
X189340709Y-66391693D01*
X189338261Y-66391500D01*
X189182729Y-66391500D01*
X189180593Y-66391646D01*
X189180582Y-66391646D01*
X188972452Y-66405835D01*
X188972446Y-66405836D01*
X188968175Y-66406127D01*
X188963980Y-66406996D01*
X188963978Y-66406996D01*
X188827416Y-66435277D01*
X188686658Y-66464426D01*
X188415657Y-66560393D01*
X188160188Y-66692250D01*
X188156687Y-66694711D01*
X188156683Y-66694713D01*
X188118165Y-66721784D01*
X187924977Y-66857559D01*
X187714378Y-67053260D01*
X187532287Y-67275732D01*
X187382073Y-67520858D01*
X187266517Y-67784102D01*
X187187756Y-68060594D01*
X187147249Y-68345216D01*
X187147227Y-68349505D01*
X187147226Y-68349512D01*
X187146186Y-68548063D01*
X187145743Y-68632703D01*
X180520000Y-68632703D01*
X180520000Y-59500000D01*
X198000000Y-59500000D01*
X203000000Y-59500000D01*
X203000000Y-54000000D01*
X198000000Y-54000000D01*
X198000000Y-59500000D01*
X180520000Y-59500000D01*
X180520000Y-54896794D01*
X180540002Y-54828673D01*
X180593658Y-54782180D01*
X180663932Y-54772076D01*
X180728512Y-54801570D01*
X180735095Y-54807699D01*
X181784978Y-55857582D01*
X181819004Y-55919894D01*
X181821192Y-55933503D01*
X181838558Y-56098728D01*
X181897573Y-56280356D01*
X181993060Y-56445744D01*
X182120847Y-56587666D01*
X182275348Y-56699918D01*
X182281376Y-56702602D01*
X182281378Y-56702603D01*
X182443781Y-56774909D01*
X182449812Y-56777594D01*
X182543213Y-56797447D01*
X182630156Y-56815928D01*
X182630161Y-56815928D01*
X182636613Y-56817300D01*
X182827587Y-56817300D01*
X182834039Y-56815928D01*
X182834044Y-56815928D01*
X182920987Y-56797447D01*
X183014388Y-56777594D01*
X183020419Y-56774909D01*
X183182822Y-56702603D01*
X183182824Y-56702602D01*
X183188852Y-56699918D01*
X183343353Y-56587666D01*
X183471140Y-56445744D01*
X183566627Y-56280356D01*
X183625642Y-56098728D01*
X183645604Y-55908800D01*
X183625642Y-55718872D01*
X183566627Y-55537244D01*
X183539839Y-55490845D01*
X183474441Y-55377574D01*
X183471140Y-55371856D01*
X183446999Y-55345044D01*
X183347775Y-55234845D01*
X183347774Y-55234844D01*
X183343353Y-55229934D01*
X183188852Y-55117682D01*
X183182824Y-55114998D01*
X183182822Y-55114997D01*
X183020419Y-55042691D01*
X183020418Y-55042691D01*
X183014388Y-55040006D01*
X182920988Y-55020153D01*
X182834044Y-55001672D01*
X182834039Y-55001672D01*
X182827587Y-55000300D01*
X182771695Y-55000300D01*
X182703574Y-54980298D01*
X182682600Y-54963395D01*
X181332005Y-53612800D01*
X181297979Y-53550488D01*
X181295100Y-53523705D01*
X181295100Y-52629214D01*
X181315102Y-52561093D01*
X181368758Y-52514600D01*
X181439032Y-52504496D01*
X181472348Y-52514107D01*
X181561712Y-52553894D01*
X181741612Y-52592133D01*
X181804085Y-52625861D01*
X181838407Y-52688011D01*
X181835248Y-52754316D01*
X181801958Y-52856772D01*
X181781996Y-53046700D01*
X181801958Y-53236628D01*
X181860973Y-53418256D01*
X181956460Y-53583644D01*
X182084247Y-53725566D01*
X182238748Y-53837818D01*
X182244776Y-53840502D01*
X182244778Y-53840503D01*
X182407181Y-53912809D01*
X182413212Y-53915494D01*
X182506612Y-53935347D01*
X182593556Y-53953828D01*
X182593561Y-53953828D01*
X182600013Y-53955200D01*
X182790987Y-53955200D01*
X182797439Y-53953828D01*
X182797444Y-53953828D01*
X182884387Y-53935347D01*
X182977788Y-53915494D01*
X182983819Y-53912809D01*
X183146222Y-53840503D01*
X183146224Y-53840502D01*
X183152252Y-53837818D01*
X183306753Y-53725566D01*
X183434540Y-53583644D01*
X183530027Y-53418256D01*
X183589042Y-53236628D01*
X183609004Y-53046700D01*
X183589042Y-52856772D01*
X183530027Y-52675144D01*
X183434540Y-52509756D01*
X183361363Y-52428485D01*
X183330647Y-52364479D01*
X183329000Y-52344176D01*
X183329000Y-49081888D01*
X183349002Y-49013767D01*
X183402658Y-48967274D01*
X183472932Y-48957170D01*
X183529060Y-48979952D01*
X183613248Y-49041118D01*
X183619276Y-49043802D01*
X183619278Y-49043803D01*
X183704819Y-49081888D01*
X183787712Y-49118794D01*
X183861471Y-49134472D01*
X183968056Y-49157128D01*
X183968061Y-49157128D01*
X183974513Y-49158500D01*
X184165487Y-49158500D01*
X184171939Y-49157128D01*
X184171944Y-49157128D01*
X184278529Y-49134472D01*
X184352288Y-49118794D01*
X184435181Y-49081888D01*
X184520722Y-49043803D01*
X184520724Y-49043802D01*
X184526752Y-49041118D01*
X184557772Y-49018581D01*
X184628389Y-48967274D01*
X184681253Y-48928866D01*
X184774805Y-48824966D01*
X184804621Y-48791852D01*
X184804622Y-48791851D01*
X184809040Y-48786944D01*
X184904527Y-48621556D01*
X184963542Y-48439928D01*
X184970440Y-48374302D01*
X184982814Y-48256565D01*
X184983504Y-48250000D01*
X184976135Y-48179887D01*
X184964232Y-48066635D01*
X184964232Y-48066633D01*
X184963542Y-48060072D01*
X184904527Y-47878444D01*
X184809040Y-47713056D01*
X184772766Y-47672769D01*
X184685675Y-47576045D01*
X184685674Y-47576044D01*
X184681253Y-47571134D01*
X184545007Y-47472145D01*
X184532094Y-47462763D01*
X184532093Y-47462762D01*
X184526752Y-47458882D01*
X184520724Y-47456198D01*
X184520722Y-47456197D01*
X184459351Y-47428873D01*
X184405255Y-47382893D01*
X184387799Y-47324471D01*
X197460884Y-47324471D01*
X197464570Y-47329740D01*
X197672121Y-47456927D01*
X197680915Y-47461408D01*
X197909242Y-47555984D01*
X197918627Y-47559033D01*
X198158940Y-47616728D01*
X198168687Y-47618271D01*
X198415070Y-47637662D01*
X198424930Y-47637662D01*
X198671313Y-47618271D01*
X198681060Y-47616728D01*
X198921373Y-47559033D01*
X198930758Y-47555984D01*
X199159085Y-47461408D01*
X199167879Y-47456927D01*
X199373928Y-47330660D01*
X199377968Y-47324471D01*
X202540884Y-47324471D01*
X202544570Y-47329740D01*
X202752121Y-47456927D01*
X202760915Y-47461408D01*
X202989242Y-47555984D01*
X202998627Y-47559033D01*
X203238940Y-47616728D01*
X203248687Y-47618271D01*
X203495070Y-47637662D01*
X203504930Y-47637662D01*
X203751313Y-47618271D01*
X203761060Y-47616728D01*
X204001373Y-47559033D01*
X204010758Y-47555984D01*
X204239085Y-47461408D01*
X204247879Y-47456927D01*
X204453928Y-47330660D01*
X204459190Y-47322599D01*
X204453183Y-47312393D01*
X203512812Y-46372022D01*
X203498868Y-46364408D01*
X203497035Y-46364539D01*
X203490420Y-46368790D01*
X202548276Y-47310934D01*
X202540884Y-47324471D01*
X199377968Y-47324471D01*
X199379190Y-47322599D01*
X199373183Y-47312393D01*
X198432812Y-46372022D01*
X198418868Y-46364408D01*
X198417035Y-46364539D01*
X198410420Y-46368790D01*
X197468276Y-47310934D01*
X197460884Y-47324471D01*
X184387799Y-47324471D01*
X184384600Y-47313766D01*
X184384600Y-46004930D01*
X196782338Y-46004930D01*
X196801729Y-46251313D01*
X196803272Y-46261060D01*
X196860967Y-46501373D01*
X196864016Y-46510758D01*
X196958592Y-46739085D01*
X196963073Y-46747879D01*
X197089340Y-46953928D01*
X197097401Y-46959190D01*
X197107607Y-46953183D01*
X198047978Y-46012812D01*
X198054356Y-46001132D01*
X198784408Y-46001132D01*
X198784539Y-46002965D01*
X198788790Y-46009580D01*
X199730934Y-46951724D01*
X199744471Y-46959116D01*
X199749740Y-46955430D01*
X199876927Y-46747879D01*
X199881408Y-46739085D01*
X199975984Y-46510758D01*
X199979033Y-46501373D01*
X200036728Y-46261060D01*
X200038271Y-46251313D01*
X200057662Y-46004930D01*
X201862338Y-46004930D01*
X201881729Y-46251313D01*
X201883272Y-46261060D01*
X201940967Y-46501373D01*
X201944016Y-46510758D01*
X202038592Y-46739085D01*
X202043073Y-46747879D01*
X202169340Y-46953928D01*
X202177401Y-46959190D01*
X202187607Y-46953183D01*
X203127978Y-46012812D01*
X203134356Y-46001132D01*
X203864408Y-46001132D01*
X203864539Y-46002965D01*
X203868790Y-46009580D01*
X204810934Y-46951724D01*
X204824471Y-46959116D01*
X204829740Y-46955430D01*
X204956927Y-46747879D01*
X204961408Y-46739085D01*
X205055984Y-46510758D01*
X205059033Y-46501373D01*
X205116728Y-46261060D01*
X205118271Y-46251313D01*
X205137662Y-46004930D01*
X205137662Y-45995070D01*
X205118271Y-45748687D01*
X205116728Y-45738940D01*
X205059033Y-45498627D01*
X205055984Y-45489242D01*
X204961408Y-45260915D01*
X204956927Y-45252121D01*
X204830660Y-45046072D01*
X204822599Y-45040810D01*
X204812393Y-45046817D01*
X203872022Y-45987188D01*
X203864408Y-46001132D01*
X203134356Y-46001132D01*
X203135592Y-45998868D01*
X203135461Y-45997035D01*
X203131210Y-45990420D01*
X202189066Y-45048276D01*
X202175529Y-45040884D01*
X202170260Y-45044570D01*
X202043073Y-45252121D01*
X202038592Y-45260915D01*
X201944016Y-45489242D01*
X201940967Y-45498627D01*
X201883272Y-45738940D01*
X201881729Y-45748687D01*
X201862338Y-45995070D01*
X201862338Y-46004930D01*
X200057662Y-46004930D01*
X200057662Y-45995070D01*
X200038271Y-45748687D01*
X200036728Y-45738940D01*
X199979033Y-45498627D01*
X199975984Y-45489242D01*
X199881408Y-45260915D01*
X199876927Y-45252121D01*
X199750660Y-45046072D01*
X199742599Y-45040810D01*
X199732393Y-45046817D01*
X198792022Y-45987188D01*
X198784408Y-46001132D01*
X198054356Y-46001132D01*
X198055592Y-45998868D01*
X198055461Y-45997035D01*
X198051210Y-45990420D01*
X197109066Y-45048276D01*
X197095529Y-45040884D01*
X197090260Y-45044570D01*
X196963073Y-45252121D01*
X196958592Y-45260915D01*
X196864016Y-45489242D01*
X196860967Y-45498627D01*
X196803272Y-45738940D01*
X196801729Y-45748687D01*
X196782338Y-45995070D01*
X196782338Y-46004930D01*
X184384600Y-46004930D01*
X184384600Y-44677401D01*
X197460810Y-44677401D01*
X197466817Y-44687607D01*
X198407188Y-45627978D01*
X198421132Y-45635592D01*
X198422965Y-45635461D01*
X198429580Y-45631210D01*
X199371724Y-44689066D01*
X199379116Y-44675529D01*
X199375430Y-44670260D01*
X199167879Y-44543073D01*
X199159085Y-44538592D01*
X198930758Y-44444016D01*
X198921373Y-44440967D01*
X198681060Y-44383272D01*
X198671313Y-44381729D01*
X198424930Y-44362338D01*
X198415070Y-44362338D01*
X198168687Y-44381729D01*
X198158940Y-44383272D01*
X197918627Y-44440967D01*
X197909242Y-44444016D01*
X197680915Y-44538592D01*
X197672121Y-44543073D01*
X197466072Y-44669340D01*
X197460810Y-44677401D01*
X184384600Y-44677401D01*
X184384600Y-43460000D01*
X199421758Y-43460000D01*
X199440696Y-43700634D01*
X199441850Y-43705441D01*
X199441851Y-43705447D01*
X199464936Y-43801600D01*
X199497045Y-43935343D01*
X199498938Y-43939914D01*
X199498939Y-43939916D01*
X199515661Y-43980285D01*
X199589416Y-44158347D01*
X199715536Y-44364156D01*
X199872299Y-44547701D01*
X200055844Y-44704464D01*
X200261653Y-44830584D01*
X200266223Y-44832477D01*
X200266227Y-44832479D01*
X200480084Y-44921061D01*
X200484657Y-44922955D01*
X200567039Y-44942733D01*
X200714553Y-44978149D01*
X200714559Y-44978150D01*
X200719366Y-44979304D01*
X200960000Y-44998242D01*
X201200634Y-44979304D01*
X201205441Y-44978150D01*
X201205447Y-44978149D01*
X201352961Y-44942733D01*
X201435343Y-44922955D01*
X201439916Y-44921061D01*
X201653773Y-44832479D01*
X201653777Y-44832477D01*
X201658347Y-44830584D01*
X201864156Y-44704464D01*
X201895843Y-44677401D01*
X202540810Y-44677401D01*
X202546817Y-44687607D01*
X203487188Y-45627978D01*
X203501132Y-45635592D01*
X203502965Y-45635461D01*
X203509580Y-45631210D01*
X204451724Y-44689066D01*
X204459116Y-44675529D01*
X204455430Y-44670260D01*
X204247879Y-44543073D01*
X204239085Y-44538592D01*
X204010758Y-44444016D01*
X204001373Y-44440967D01*
X203761060Y-44383272D01*
X203751313Y-44381729D01*
X203504930Y-44362338D01*
X203495070Y-44362338D01*
X203248687Y-44381729D01*
X203238940Y-44383272D01*
X202998627Y-44440967D01*
X202989242Y-44444016D01*
X202760915Y-44538592D01*
X202752121Y-44543073D01*
X202546072Y-44669340D01*
X202540810Y-44677401D01*
X201895843Y-44677401D01*
X202047701Y-44547701D01*
X202204464Y-44364156D01*
X202330584Y-44158347D01*
X202404340Y-43980285D01*
X202421061Y-43939916D01*
X202421062Y-43939914D01*
X202422955Y-43935343D01*
X202455064Y-43801600D01*
X202478149Y-43705447D01*
X202478150Y-43705441D01*
X202479304Y-43700634D01*
X202498242Y-43460000D01*
X202479304Y-43219366D01*
X202478150Y-43214559D01*
X202478149Y-43214553D01*
X202442106Y-43064428D01*
X202422955Y-42984657D01*
X202409057Y-42951103D01*
X202332479Y-42766227D01*
X202332477Y-42766223D01*
X202330584Y-42761653D01*
X202204464Y-42555844D01*
X202047701Y-42372299D01*
X201898034Y-42244471D01*
X202540884Y-42244471D01*
X202544570Y-42249740D01*
X202752121Y-42376927D01*
X202760915Y-42381408D01*
X202989242Y-42475984D01*
X202998627Y-42479033D01*
X203238940Y-42536728D01*
X203248687Y-42538271D01*
X203495070Y-42557662D01*
X203504930Y-42557662D01*
X203751313Y-42538271D01*
X203761060Y-42536728D01*
X204001373Y-42479033D01*
X204010758Y-42475984D01*
X204239085Y-42381408D01*
X204247879Y-42376927D01*
X204453928Y-42250660D01*
X204459190Y-42242599D01*
X204453183Y-42232393D01*
X203512812Y-41292022D01*
X203498868Y-41284408D01*
X203497035Y-41284539D01*
X203490420Y-41288790D01*
X202548276Y-42230934D01*
X202540884Y-42244471D01*
X201898034Y-42244471D01*
X201864156Y-42215536D01*
X201658347Y-42089416D01*
X201653777Y-42087523D01*
X201653773Y-42087521D01*
X201439916Y-41998939D01*
X201439914Y-41998938D01*
X201435343Y-41997045D01*
X201311747Y-41967372D01*
X201205447Y-41941851D01*
X201205441Y-41941850D01*
X201200634Y-41940696D01*
X200960000Y-41921758D01*
X200719366Y-41940696D01*
X200714559Y-41941850D01*
X200714553Y-41941851D01*
X200608253Y-41967372D01*
X200484657Y-41997045D01*
X200480086Y-41998938D01*
X200480084Y-41998939D01*
X200266227Y-42087521D01*
X200266223Y-42087523D01*
X200261653Y-42089416D01*
X200055844Y-42215536D01*
X199872299Y-42372299D01*
X199715536Y-42555844D01*
X199589416Y-42761653D01*
X199587523Y-42766223D01*
X199587521Y-42766227D01*
X199510943Y-42951103D01*
X199497045Y-42984657D01*
X199477894Y-43064428D01*
X199441851Y-43214553D01*
X199441850Y-43214559D01*
X199440696Y-43219366D01*
X199421758Y-43460000D01*
X184384600Y-43460000D01*
X184384600Y-42244471D01*
X197460884Y-42244471D01*
X197464570Y-42249740D01*
X197672121Y-42376927D01*
X197680915Y-42381408D01*
X197909242Y-42475984D01*
X197918627Y-42479033D01*
X198158940Y-42536728D01*
X198168687Y-42538271D01*
X198415070Y-42557662D01*
X198424930Y-42557662D01*
X198671313Y-42538271D01*
X198681060Y-42536728D01*
X198921373Y-42479033D01*
X198930758Y-42475984D01*
X199159085Y-42381408D01*
X199167879Y-42376927D01*
X199373928Y-42250660D01*
X199379190Y-42242599D01*
X199373183Y-42232393D01*
X198432812Y-41292022D01*
X198418868Y-41284408D01*
X198417035Y-41284539D01*
X198410420Y-41288790D01*
X197468276Y-42230934D01*
X197460884Y-42244471D01*
X184384600Y-42244471D01*
X184384600Y-42194367D01*
X184385127Y-42183184D01*
X184386802Y-42175691D01*
X184384662Y-42107600D01*
X184384600Y-42103643D01*
X184384600Y-42075744D01*
X184384096Y-42071753D01*
X184383163Y-42059911D01*
X184382023Y-42023636D01*
X184381774Y-42015711D01*
X184379562Y-42008097D01*
X184379561Y-42008092D01*
X184376123Y-41996259D01*
X184372112Y-41976895D01*
X184370567Y-41964664D01*
X184369574Y-41956803D01*
X184366657Y-41949436D01*
X184366656Y-41949431D01*
X184353298Y-41915692D01*
X184349454Y-41904465D01*
X184341018Y-41875430D01*
X184337118Y-41862007D01*
X184326807Y-41844572D01*
X184318112Y-41826824D01*
X184310652Y-41807983D01*
X184284664Y-41772213D01*
X184278148Y-41762293D01*
X184259680Y-41731065D01*
X184259678Y-41731062D01*
X184255642Y-41724238D01*
X184241321Y-41709917D01*
X184228480Y-41694883D01*
X184221231Y-41684906D01*
X184216572Y-41678493D01*
X184182495Y-41650302D01*
X184173716Y-41642312D01*
X183456334Y-40924930D01*
X196782338Y-40924930D01*
X196801729Y-41171313D01*
X196803272Y-41181060D01*
X196860967Y-41421373D01*
X196864016Y-41430758D01*
X196958592Y-41659085D01*
X196963073Y-41667879D01*
X197089340Y-41873928D01*
X197097401Y-41879190D01*
X197107607Y-41873183D01*
X198047978Y-40932812D01*
X198054356Y-40921132D01*
X198784408Y-40921132D01*
X198784539Y-40922965D01*
X198788790Y-40929580D01*
X199730934Y-41871724D01*
X199744471Y-41879116D01*
X199749740Y-41875430D01*
X199876927Y-41667879D01*
X199881408Y-41659085D01*
X199975984Y-41430758D01*
X199979033Y-41421373D01*
X200036728Y-41181060D01*
X200038271Y-41171313D01*
X200057662Y-40924930D01*
X201862338Y-40924930D01*
X201881729Y-41171313D01*
X201883272Y-41181060D01*
X201940967Y-41421373D01*
X201944016Y-41430758D01*
X202038592Y-41659085D01*
X202043073Y-41667879D01*
X202169340Y-41873928D01*
X202177401Y-41879190D01*
X202187607Y-41873183D01*
X203127978Y-40932812D01*
X203134356Y-40921132D01*
X203864408Y-40921132D01*
X203864539Y-40922965D01*
X203868790Y-40929580D01*
X204810934Y-41871724D01*
X204824471Y-41879116D01*
X204829740Y-41875430D01*
X204956927Y-41667879D01*
X204961408Y-41659085D01*
X205055984Y-41430758D01*
X205059033Y-41421373D01*
X205116728Y-41181060D01*
X205118271Y-41171313D01*
X205137662Y-40924930D01*
X205137662Y-40915070D01*
X205118271Y-40668687D01*
X205116728Y-40658940D01*
X205059033Y-40418627D01*
X205055984Y-40409242D01*
X204961408Y-40180915D01*
X204956927Y-40172121D01*
X204830660Y-39966072D01*
X204822599Y-39960810D01*
X204812393Y-39966817D01*
X203872022Y-40907188D01*
X203864408Y-40921132D01*
X203134356Y-40921132D01*
X203135592Y-40918868D01*
X203135461Y-40917035D01*
X203131210Y-40910420D01*
X202189066Y-39968276D01*
X202175529Y-39960884D01*
X202170260Y-39964570D01*
X202043073Y-40172121D01*
X202038592Y-40180915D01*
X201944016Y-40409242D01*
X201940967Y-40418627D01*
X201883272Y-40658940D01*
X201881729Y-40668687D01*
X201862338Y-40915070D01*
X201862338Y-40924930D01*
X200057662Y-40924930D01*
X200057662Y-40915070D01*
X200038271Y-40668687D01*
X200036728Y-40658940D01*
X199979033Y-40418627D01*
X199975984Y-40409242D01*
X199881408Y-40180915D01*
X199876927Y-40172121D01*
X199750660Y-39966072D01*
X199742599Y-39960810D01*
X199732393Y-39966817D01*
X198792022Y-40907188D01*
X198784408Y-40921132D01*
X198054356Y-40921132D01*
X198055592Y-40918868D01*
X198055461Y-40917035D01*
X198051210Y-40910420D01*
X197109066Y-39968276D01*
X197095529Y-39960884D01*
X197090260Y-39964570D01*
X196963073Y-40172121D01*
X196958592Y-40180915D01*
X196864016Y-40409242D01*
X196860967Y-40418627D01*
X196803272Y-40658940D01*
X196801729Y-40668687D01*
X196782338Y-40915070D01*
X196782338Y-40924930D01*
X183456334Y-40924930D01*
X182128805Y-39597401D01*
X197460810Y-39597401D01*
X197466817Y-39607607D01*
X198407188Y-40547978D01*
X198421132Y-40555592D01*
X198422965Y-40555461D01*
X198429580Y-40551210D01*
X199371724Y-39609066D01*
X199378094Y-39597401D01*
X202540810Y-39597401D01*
X202546817Y-39607607D01*
X203487188Y-40547978D01*
X203501132Y-40555592D01*
X203502965Y-40555461D01*
X203509580Y-40551210D01*
X204451724Y-39609066D01*
X204459116Y-39595529D01*
X204455430Y-39590260D01*
X204247879Y-39463073D01*
X204239085Y-39458592D01*
X204010758Y-39364016D01*
X204001373Y-39360967D01*
X203761060Y-39303272D01*
X203751313Y-39301729D01*
X203504930Y-39282338D01*
X203495070Y-39282338D01*
X203248687Y-39301729D01*
X203238940Y-39303272D01*
X202998627Y-39360967D01*
X202989242Y-39364016D01*
X202760915Y-39458592D01*
X202752121Y-39463073D01*
X202546072Y-39589340D01*
X202540810Y-39597401D01*
X199378094Y-39597401D01*
X199379116Y-39595529D01*
X199375430Y-39590260D01*
X199167879Y-39463073D01*
X199159085Y-39458592D01*
X198930758Y-39364016D01*
X198921373Y-39360967D01*
X198681060Y-39303272D01*
X198671313Y-39301729D01*
X198424930Y-39282338D01*
X198415070Y-39282338D01*
X198168687Y-39301729D01*
X198158940Y-39303272D01*
X197918627Y-39360967D01*
X197909242Y-39364016D01*
X197680915Y-39458592D01*
X197672121Y-39463073D01*
X197466072Y-39589340D01*
X197460810Y-39597401D01*
X182128805Y-39597401D01*
X171333152Y-28801747D01*
X171325612Y-28793461D01*
X171321500Y-28786982D01*
X171271848Y-28740356D01*
X171269007Y-28737602D01*
X171249270Y-28717865D01*
X171246073Y-28715385D01*
X171237051Y-28707680D01*
X171223622Y-28695069D01*
X171204821Y-28677414D01*
X171197875Y-28673595D01*
X171197872Y-28673593D01*
X171187066Y-28667652D01*
X171170547Y-28656801D01*
X171170083Y-28656441D01*
X171154541Y-28644386D01*
X171147272Y-28641241D01*
X171147268Y-28641238D01*
X171113963Y-28626826D01*
X171103313Y-28621609D01*
X171064560Y-28600305D01*
X171044937Y-28595267D01*
X171026234Y-28588863D01*
X171014920Y-28583967D01*
X171014919Y-28583967D01*
X171007645Y-28580819D01*
X170999822Y-28579580D01*
X170999812Y-28579577D01*
X170963976Y-28573901D01*
X170952356Y-28571495D01*
X170917211Y-28562472D01*
X170917210Y-28562472D01*
X170909530Y-28560500D01*
X170889276Y-28560500D01*
X170869565Y-28558949D01*
X170857386Y-28557020D01*
X170849557Y-28555780D01*
X170820286Y-28558547D01*
X170805539Y-28559941D01*
X170793681Y-28560500D01*
X157384768Y-28560500D01*
X157373585Y-28559973D01*
X157366092Y-28558298D01*
X157358166Y-28558547D01*
X157358165Y-28558547D01*
X157298002Y-28560438D01*
X157294044Y-28560500D01*
X157266144Y-28560500D01*
X157262154Y-28561004D01*
X157250320Y-28561936D01*
X157206111Y-28563326D01*
X157198497Y-28565538D01*
X157198492Y-28565539D01*
X157186659Y-28568977D01*
X157167296Y-28572988D01*
X157147203Y-28575526D01*
X157139836Y-28578443D01*
X157139831Y-28578444D01*
X157106092Y-28591802D01*
X157094865Y-28595646D01*
X157052407Y-28607982D01*
X157045581Y-28612019D01*
X157034972Y-28618293D01*
X157017224Y-28626988D01*
X156998383Y-28634448D01*
X156991967Y-28639110D01*
X156991966Y-28639110D01*
X156962613Y-28660436D01*
X156952693Y-28666952D01*
X156921465Y-28685420D01*
X156921462Y-28685422D01*
X156914638Y-28689458D01*
X156900317Y-28703779D01*
X156885284Y-28716619D01*
X156868893Y-28728528D01*
X156860217Y-28739016D01*
X156840702Y-28762605D01*
X156832712Y-28771384D01*
X156124501Y-29479595D01*
X156062189Y-29513621D01*
X156035406Y-29516500D01*
X154849600Y-29516500D01*
X154846354Y-29516837D01*
X154846350Y-29516837D01*
X154750692Y-29526762D01*
X154750688Y-29526763D01*
X154743834Y-29527474D01*
X154737298Y-29529655D01*
X154737296Y-29529655D01*
X154605194Y-29573728D01*
X154576054Y-29583450D01*
X154425652Y-29676522D01*
X154300695Y-29801697D01*
X154227170Y-29920977D01*
X154210920Y-29947339D01*
X154158148Y-29994832D01*
X154088076Y-30006256D01*
X154022952Y-29977982D01*
X154012490Y-29968195D01*
X153935659Y-29887656D01*
X153903424Y-29853865D01*
X153718458Y-29716246D01*
X153713707Y-29713830D01*
X153713703Y-29713828D01*
X153595588Y-29653776D01*
X153512949Y-29611760D01*
X153507855Y-29610178D01*
X153507852Y-29610177D01*
X153297871Y-29544976D01*
X153292773Y-29543393D01*
X153287484Y-29542692D01*
X153069511Y-29513802D01*
X153069506Y-29513802D01*
X153064226Y-29513102D01*
X153058897Y-29513302D01*
X153058895Y-29513302D01*
X152949034Y-29517426D01*
X152833842Y-29521751D01*
X152608209Y-29569093D01*
X152603250Y-29571051D01*
X152603248Y-29571052D01*
X152398744Y-29651815D01*
X152398742Y-29651816D01*
X152393779Y-29653776D01*
X152389220Y-29656543D01*
X152389217Y-29656544D01*
X152294113Y-29714255D01*
X152196683Y-29773377D01*
X152192653Y-29776874D01*
X152064988Y-29887656D01*
X152022555Y-29924477D01*
X152019168Y-29928608D01*
X151879760Y-30098627D01*
X151879756Y-30098633D01*
X151876376Y-30102755D01*
X151858448Y-30134250D01*
X151807368Y-30183555D01*
X151737738Y-30197417D01*
X151671667Y-30171434D01*
X151644427Y-30142284D01*
X151617814Y-30102755D01*
X151562559Y-30020681D01*
X151403424Y-29853865D01*
X151218458Y-29716246D01*
X151213707Y-29713830D01*
X151213703Y-29713828D01*
X151095588Y-29653776D01*
X151012949Y-29611760D01*
X151007855Y-29610178D01*
X151007852Y-29610177D01*
X150797871Y-29544976D01*
X150792773Y-29543393D01*
X150787484Y-29542692D01*
X150569511Y-29513802D01*
X150569506Y-29513802D01*
X150564226Y-29513102D01*
X150558897Y-29513302D01*
X150558895Y-29513302D01*
X150449034Y-29517426D01*
X150333842Y-29521751D01*
X150108209Y-29569093D01*
X150103250Y-29571051D01*
X150103248Y-29571052D01*
X149898744Y-29651815D01*
X149898742Y-29651816D01*
X149893779Y-29653776D01*
X149889220Y-29656543D01*
X149889217Y-29656544D01*
X149794113Y-29714255D01*
X149696683Y-29773377D01*
X149692653Y-29776874D01*
X149564988Y-29887656D01*
X149522555Y-29924477D01*
X149519168Y-29928608D01*
X149379760Y-30098627D01*
X149379756Y-30098633D01*
X149376376Y-30102755D01*
X149358448Y-30134250D01*
X149307368Y-30183555D01*
X149237738Y-30197417D01*
X149171667Y-30171434D01*
X149144427Y-30142284D01*
X149117814Y-30102755D01*
X149062559Y-30020681D01*
X148903424Y-29853865D01*
X148718458Y-29716246D01*
X148713707Y-29713830D01*
X148713703Y-29713828D01*
X148595588Y-29653776D01*
X148512949Y-29611760D01*
X148507855Y-29610178D01*
X148507852Y-29610177D01*
X148297871Y-29544976D01*
X148292773Y-29543393D01*
X148287484Y-29542692D01*
X148069511Y-29513802D01*
X148069506Y-29513802D01*
X148064226Y-29513102D01*
X148058897Y-29513302D01*
X148058895Y-29513302D01*
X147949034Y-29517426D01*
X147833842Y-29521751D01*
X147608209Y-29569093D01*
X147603250Y-29571051D01*
X147603248Y-29571052D01*
X147398744Y-29651815D01*
X147398742Y-29651816D01*
X147393779Y-29653776D01*
X147389220Y-29656543D01*
X147389217Y-29656544D01*
X147294113Y-29714255D01*
X147196683Y-29773377D01*
X147192653Y-29776874D01*
X147064988Y-29887656D01*
X147022555Y-29924477D01*
X147019168Y-29928608D01*
X146879760Y-30098627D01*
X146879756Y-30098633D01*
X146876376Y-30102755D01*
X146873733Y-30107398D01*
X146858171Y-30134735D01*
X146807088Y-30184041D01*
X146737458Y-30197902D01*
X146671387Y-30171918D01*
X146644149Y-30142768D01*
X146565148Y-30025422D01*
X146558481Y-30017130D01*
X146406772Y-29858100D01*
X146398814Y-29851059D01*
X146222475Y-29719859D01*
X146213438Y-29714255D01*
X146017516Y-29614643D01*
X146007665Y-29610643D01*
X145797760Y-29545466D01*
X145787376Y-29543183D01*
X145771957Y-29541139D01*
X145757793Y-29543335D01*
X145754000Y-29556522D01*
X145754000Y-32441192D01*
X145757973Y-32454723D01*
X145768580Y-32456248D01*
X145886421Y-32431523D01*
X145896617Y-32428463D01*
X146101029Y-32347737D01*
X146110561Y-32343006D01*
X146298462Y-32228984D01*
X146307052Y-32222720D01*
X146473052Y-32078673D01*
X146480472Y-32071042D01*
X146619826Y-31901089D01*
X146625848Y-31892326D01*
X146641238Y-31865289D01*
X146692320Y-31815982D01*
X146761951Y-31802120D01*
X146828022Y-31828103D01*
X146855261Y-31857253D01*
X146884773Y-31901089D01*
X146937441Y-31979319D01*
X146941120Y-31983176D01*
X146941122Y-31983178D01*
X147002710Y-32047738D01*
X147096576Y-32146135D01*
X147281542Y-32283754D01*
X147286293Y-32286170D01*
X147286297Y-32286172D01*
X147349481Y-32318296D01*
X147487051Y-32388240D01*
X147492145Y-32389822D01*
X147492148Y-32389823D01*
X147657583Y-32441192D01*
X147707227Y-32456607D01*
X147712516Y-32457308D01*
X147930489Y-32486198D01*
X147930494Y-32486198D01*
X147935774Y-32486898D01*
X147941103Y-32486698D01*
X147941105Y-32486698D01*
X148050966Y-32482574D01*
X148166158Y-32478249D01*
X148186600Y-32473960D01*
X148386572Y-32432002D01*
X148391791Y-32430907D01*
X148396750Y-32428949D01*
X148396752Y-32428948D01*
X148601256Y-32348185D01*
X148601258Y-32348184D01*
X148606221Y-32346224D01*
X148611525Y-32343006D01*
X148798757Y-32229390D01*
X148798756Y-32229390D01*
X148803317Y-32226623D01*
X148849617Y-32186446D01*
X148973412Y-32079023D01*
X148973414Y-32079021D01*
X148977445Y-32075523D01*
X149041048Y-31997954D01*
X149120240Y-31901373D01*
X149120244Y-31901367D01*
X149123624Y-31897245D01*
X149141552Y-31865750D01*
X149192632Y-31816445D01*
X149262262Y-31802583D01*
X149328333Y-31828566D01*
X149355573Y-31857716D01*
X149360983Y-31865752D01*
X149437441Y-31979319D01*
X149441120Y-31983176D01*
X149441122Y-31983178D01*
X149502710Y-32047738D01*
X149596576Y-32146135D01*
X149781542Y-32283754D01*
X149786293Y-32286170D01*
X149786297Y-32286172D01*
X149849481Y-32318296D01*
X149987051Y-32388240D01*
X149992145Y-32389822D01*
X149992148Y-32389823D01*
X150157583Y-32441192D01*
X150207227Y-32456607D01*
X150212516Y-32457308D01*
X150430489Y-32486198D01*
X150430494Y-32486198D01*
X150435774Y-32486898D01*
X150441103Y-32486698D01*
X150441105Y-32486698D01*
X150550966Y-32482574D01*
X150666158Y-32478249D01*
X150686600Y-32473960D01*
X150886572Y-32432002D01*
X150891791Y-32430907D01*
X150896750Y-32428949D01*
X150896752Y-32428948D01*
X151101256Y-32348185D01*
X151101258Y-32348184D01*
X151106221Y-32346224D01*
X151111525Y-32343006D01*
X151298757Y-32229390D01*
X151298756Y-32229390D01*
X151303317Y-32226623D01*
X151307344Y-32223128D01*
X151307353Y-32223122D01*
X151315580Y-32215983D01*
X151380140Y-32186446D01*
X151450421Y-32196502D01*
X151487252Y-32222056D01*
X157108343Y-37843147D01*
X157115887Y-37851437D01*
X157120000Y-37857918D01*
X157125777Y-37863343D01*
X157169667Y-37904558D01*
X157172509Y-37907313D01*
X157192231Y-37927035D01*
X157195355Y-37929458D01*
X157195359Y-37929462D01*
X157195424Y-37929512D01*
X157204445Y-37937217D01*
X157236679Y-37967486D01*
X157243627Y-37971305D01*
X157243629Y-37971307D01*
X157254432Y-37977246D01*
X157270959Y-37988102D01*
X157280698Y-37995657D01*
X157280700Y-37995658D01*
X157286960Y-38000514D01*
X157327540Y-38018074D01*
X157338188Y-38023291D01*
X157376940Y-38044595D01*
X157384616Y-38046566D01*
X157384619Y-38046567D01*
X157396562Y-38049633D01*
X157415266Y-38056037D01*
X157425855Y-38060619D01*
X157433855Y-38064081D01*
X157441678Y-38065320D01*
X157441688Y-38065323D01*
X157477524Y-38070999D01*
X157489144Y-38073405D01*
X157524289Y-38082428D01*
X157531970Y-38084400D01*
X157552224Y-38084400D01*
X157571934Y-38085951D01*
X157591943Y-38089120D01*
X157599835Y-38088374D01*
X157635961Y-38084959D01*
X157647819Y-38084400D01*
X171409106Y-38084400D01*
X171477227Y-38104402D01*
X171498201Y-38121305D01*
X173078601Y-39701705D01*
X173112627Y-39764017D01*
X173107562Y-39834832D01*
X173065015Y-39891668D01*
X172998495Y-39916479D01*
X172989506Y-39916800D01*
X148617395Y-39916800D01*
X148549274Y-39896798D01*
X148528300Y-39879895D01*
X139831295Y-31182890D01*
X141641500Y-31182890D01*
X141641725Y-31185539D01*
X141648508Y-31265476D01*
X141656080Y-31354720D01*
X141657418Y-31359875D01*
X141657419Y-31359881D01*
X141712657Y-31572703D01*
X141713999Y-31577872D01*
X141808688Y-31788075D01*
X141937441Y-31979319D01*
X141941120Y-31983176D01*
X141941122Y-31983178D01*
X142002710Y-32047738D01*
X142096576Y-32146135D01*
X142281542Y-32283754D01*
X142286293Y-32286170D01*
X142286297Y-32286172D01*
X142349481Y-32318296D01*
X142487051Y-32388240D01*
X142492145Y-32389822D01*
X142492148Y-32389823D01*
X142657583Y-32441192D01*
X142707227Y-32456607D01*
X142712516Y-32457308D01*
X142930489Y-32486198D01*
X142930494Y-32486198D01*
X142935774Y-32486898D01*
X142941103Y-32486698D01*
X142941105Y-32486698D01*
X143050966Y-32482574D01*
X143166158Y-32478249D01*
X143186600Y-32473960D01*
X143386572Y-32432002D01*
X143391791Y-32430907D01*
X143396750Y-32428949D01*
X143396752Y-32428948D01*
X143601256Y-32348185D01*
X143601258Y-32348184D01*
X143606221Y-32346224D01*
X143611525Y-32343006D01*
X143798757Y-32229390D01*
X143798756Y-32229390D01*
X143803317Y-32226623D01*
X143849617Y-32186446D01*
X143973412Y-32079023D01*
X143973414Y-32079021D01*
X143977445Y-32075523D01*
X144041048Y-31997954D01*
X144120240Y-31901373D01*
X144120244Y-31901367D01*
X144123624Y-31897245D01*
X144137413Y-31873022D01*
X144141829Y-31865265D01*
X144192912Y-31815959D01*
X144262542Y-31802098D01*
X144328613Y-31828082D01*
X144355851Y-31857232D01*
X144434852Y-31974578D01*
X144441519Y-31982870D01*
X144593228Y-32141900D01*
X144601186Y-32148941D01*
X144777525Y-32280141D01*
X144786562Y-32285745D01*
X144982484Y-32385357D01*
X144992335Y-32389357D01*
X145202240Y-32454534D01*
X145212624Y-32456817D01*
X145228043Y-32458861D01*
X145242207Y-32456665D01*
X145246000Y-32443478D01*
X145246000Y-29558808D01*
X145242027Y-29545277D01*
X145231420Y-29543752D01*
X145113579Y-29568477D01*
X145103383Y-29571537D01*
X144898971Y-29652263D01*
X144889439Y-29656994D01*
X144701538Y-29771016D01*
X144692948Y-29777280D01*
X144526948Y-29921327D01*
X144519528Y-29928958D01*
X144380174Y-30098911D01*
X144374152Y-30107674D01*
X144358762Y-30134711D01*
X144307680Y-30184018D01*
X144238049Y-30197880D01*
X144171978Y-30171897D01*
X144144739Y-30142747D01*
X144108869Y-30089468D01*
X144062559Y-30020681D01*
X143903424Y-29853865D01*
X143718458Y-29716246D01*
X143713707Y-29713830D01*
X143713703Y-29713828D01*
X143595588Y-29653776D01*
X143512949Y-29611760D01*
X143507855Y-29610178D01*
X143507852Y-29610177D01*
X143297871Y-29544976D01*
X143292773Y-29543393D01*
X143287484Y-29542692D01*
X143069511Y-29513802D01*
X143069506Y-29513802D01*
X143064226Y-29513102D01*
X143058897Y-29513302D01*
X143058895Y-29513302D01*
X142949034Y-29517426D01*
X142833842Y-29521751D01*
X142608209Y-29569093D01*
X142603250Y-29571051D01*
X142603248Y-29571052D01*
X142398744Y-29651815D01*
X142398742Y-29651816D01*
X142393779Y-29653776D01*
X142389220Y-29656543D01*
X142389217Y-29656544D01*
X142294113Y-29714255D01*
X142196683Y-29773377D01*
X142192653Y-29776874D01*
X142064988Y-29887656D01*
X142022555Y-29924477D01*
X142019168Y-29928608D01*
X141879760Y-30098627D01*
X141879756Y-30098633D01*
X141876376Y-30102755D01*
X141873738Y-30107390D01*
X141873735Y-30107394D01*
X141837018Y-30171897D01*
X141762325Y-30303114D01*
X141683663Y-30519825D01*
X141682714Y-30525074D01*
X141682713Y-30525077D01*
X141643377Y-30742608D01*
X141643376Y-30742615D01*
X141642639Y-30746692D01*
X141641500Y-30770844D01*
X141641500Y-31182890D01*
X139831295Y-31182890D01*
X137917052Y-29268647D01*
X137909512Y-29260361D01*
X137905400Y-29253882D01*
X137855748Y-29207256D01*
X137852907Y-29204502D01*
X137833170Y-29184765D01*
X137829973Y-29182285D01*
X137820951Y-29174580D01*
X137807522Y-29161969D01*
X137788721Y-29144314D01*
X137781775Y-29140495D01*
X137781772Y-29140493D01*
X137770966Y-29134552D01*
X137754447Y-29123701D01*
X137753983Y-29123341D01*
X137738441Y-29111286D01*
X137731172Y-29108141D01*
X137731168Y-29108138D01*
X137697863Y-29093726D01*
X137687213Y-29088509D01*
X137648460Y-29067205D01*
X137628837Y-29062167D01*
X137610134Y-29055763D01*
X137598820Y-29050867D01*
X137598819Y-29050867D01*
X137591545Y-29047719D01*
X137583722Y-29046480D01*
X137583712Y-29046477D01*
X137547876Y-29040801D01*
X137536256Y-29038395D01*
X137501111Y-29029372D01*
X137501110Y-29029372D01*
X137493430Y-29027400D01*
X137473176Y-29027400D01*
X137453465Y-29025849D01*
X137441286Y-29023920D01*
X137433457Y-29022680D01*
X137404186Y-29025447D01*
X137389439Y-29026841D01*
X137377581Y-29027400D01*
X135711667Y-29027400D01*
X135700484Y-29026873D01*
X135692991Y-29025198D01*
X135685065Y-29025447D01*
X135685064Y-29025447D01*
X135624914Y-29027338D01*
X135620955Y-29027400D01*
X135593044Y-29027400D01*
X135589110Y-29027897D01*
X135589109Y-29027897D01*
X135589044Y-29027905D01*
X135577207Y-29028838D01*
X135545390Y-29029838D01*
X135540929Y-29029978D01*
X135533010Y-29030227D01*
X135515354Y-29035356D01*
X135513558Y-29035878D01*
X135494206Y-29039886D01*
X135487135Y-29040780D01*
X135474103Y-29042426D01*
X135466734Y-29045343D01*
X135466732Y-29045344D01*
X135432997Y-29058700D01*
X135421769Y-29062545D01*
X135379307Y-29074882D01*
X135372484Y-29078917D01*
X135372482Y-29078918D01*
X135361872Y-29085193D01*
X135344124Y-29093888D01*
X135325283Y-29101348D01*
X135318867Y-29106010D01*
X135318866Y-29106010D01*
X135289513Y-29127336D01*
X135279593Y-29133852D01*
X135248365Y-29152320D01*
X135248362Y-29152322D01*
X135241538Y-29156358D01*
X135227217Y-29170679D01*
X135212184Y-29183519D01*
X135195793Y-29195428D01*
X135169416Y-29227313D01*
X135167612Y-29229493D01*
X135159622Y-29238274D01*
X134783042Y-29614853D01*
X134774763Y-29622387D01*
X134768282Y-29626500D01*
X134762855Y-29632279D01*
X134762854Y-29632280D01*
X134759842Y-29635488D01*
X134756856Y-29637242D01*
X134756749Y-29637331D01*
X134756735Y-29637314D01*
X134698630Y-29671454D01*
X134627690Y-29668617D01*
X134610887Y-29661553D01*
X134517709Y-29614180D01*
X134517708Y-29614180D01*
X134512949Y-29611760D01*
X134507855Y-29610178D01*
X134507852Y-29610177D01*
X134297871Y-29544976D01*
X134292773Y-29543393D01*
X134287484Y-29542692D01*
X134069511Y-29513802D01*
X134069506Y-29513802D01*
X134064226Y-29513102D01*
X134058897Y-29513302D01*
X134058895Y-29513302D01*
X133949034Y-29517426D01*
X133833842Y-29521751D01*
X133608209Y-29569093D01*
X133603250Y-29571051D01*
X133603248Y-29571052D01*
X133398744Y-29651815D01*
X133398742Y-29651816D01*
X133393779Y-29653776D01*
X133389220Y-29656543D01*
X133389217Y-29656544D01*
X133294113Y-29714255D01*
X133196683Y-29773377D01*
X133192653Y-29776874D01*
X133064988Y-29887656D01*
X133022555Y-29924477D01*
X133019168Y-29928608D01*
X132879760Y-30098627D01*
X132879756Y-30098633D01*
X132876376Y-30102755D01*
X132873733Y-30107398D01*
X132858171Y-30134735D01*
X132807088Y-30184041D01*
X132737458Y-30197902D01*
X132671387Y-30171918D01*
X132644149Y-30142768D01*
X132565148Y-30025422D01*
X132558481Y-30017130D01*
X132406772Y-29858100D01*
X132398814Y-29851059D01*
X132222475Y-29719859D01*
X132213438Y-29714255D01*
X132017516Y-29614643D01*
X132007665Y-29610643D01*
X131797760Y-29545466D01*
X131787376Y-29543183D01*
X131771957Y-29541139D01*
X131757793Y-29543335D01*
X131754000Y-29556522D01*
X131754000Y-32441192D01*
X131246000Y-32441192D01*
X131246000Y-29558808D01*
X131242027Y-29545277D01*
X131231420Y-29543752D01*
X131113579Y-29568477D01*
X131103383Y-29571537D01*
X130898971Y-29652263D01*
X130889439Y-29656994D01*
X130701538Y-29771016D01*
X130692948Y-29777280D01*
X130526948Y-29921327D01*
X130519528Y-29928958D01*
X130380174Y-30098911D01*
X130374152Y-30107674D01*
X130358762Y-30134711D01*
X130307680Y-30184018D01*
X130238049Y-30197880D01*
X130171978Y-30171897D01*
X130144739Y-30142747D01*
X130108869Y-30089468D01*
X130062559Y-30020681D01*
X129903424Y-29853865D01*
X129718458Y-29716246D01*
X129713707Y-29713830D01*
X129713703Y-29713828D01*
X129595588Y-29653776D01*
X129512949Y-29611760D01*
X129507855Y-29610178D01*
X129507852Y-29610177D01*
X129297871Y-29544976D01*
X129292773Y-29543393D01*
X129287484Y-29542692D01*
X129069511Y-29513802D01*
X129069506Y-29513802D01*
X129064226Y-29513102D01*
X129058897Y-29513302D01*
X129058895Y-29513302D01*
X128949034Y-29517426D01*
X128833842Y-29521751D01*
X128608209Y-29569093D01*
X128603250Y-29571051D01*
X128603248Y-29571052D01*
X128398744Y-29651815D01*
X128398742Y-29651816D01*
X128393779Y-29653776D01*
X128389220Y-29656543D01*
X128389217Y-29656544D01*
X128294113Y-29714255D01*
X128196683Y-29773377D01*
X128192653Y-29776874D01*
X128064988Y-29887656D01*
X128022555Y-29924477D01*
X128019168Y-29928608D01*
X127879760Y-30098627D01*
X127879756Y-30098633D01*
X127876376Y-30102755D01*
X127873738Y-30107390D01*
X127873735Y-30107394D01*
X127837018Y-30171897D01*
X127762325Y-30303114D01*
X127683663Y-30519825D01*
X127682714Y-30525074D01*
X127682713Y-30525077D01*
X127643377Y-30742608D01*
X127643376Y-30742615D01*
X127642639Y-30746692D01*
X127641500Y-30770844D01*
X127641500Y-31182890D01*
X125508500Y-31182890D01*
X125508500Y-26634500D01*
X125528502Y-26566379D01*
X125582158Y-26519886D01*
X125634500Y-26508500D01*
X195365500Y-26508500D01*
X195433621Y-26528502D01*
G37*
%TD.AperFunction*%
%TA.AperFunction,Conductor*%
G36*
X138067012Y-31210870D02*
G01*
X138073595Y-31216999D01*
X147799143Y-40942547D01*
X147806687Y-40950837D01*
X147810800Y-40957318D01*
X147816577Y-40962743D01*
X147860467Y-41003958D01*
X147863309Y-41006713D01*
X147883030Y-41026434D01*
X147886225Y-41028912D01*
X147895247Y-41036618D01*
X147927479Y-41066886D01*
X147934428Y-41070706D01*
X147945232Y-41076646D01*
X147961756Y-41087499D01*
X147977759Y-41099913D01*
X148018343Y-41117476D01*
X148028973Y-41122683D01*
X148067740Y-41143995D01*
X148075417Y-41145966D01*
X148075422Y-41145968D01*
X148087358Y-41149032D01*
X148106066Y-41155437D01*
X148124655Y-41163481D01*
X148132483Y-41164721D01*
X148132490Y-41164723D01*
X148168324Y-41170399D01*
X148179944Y-41172805D01*
X148212098Y-41181060D01*
X148222770Y-41183800D01*
X148243024Y-41183800D01*
X148262734Y-41185351D01*
X148282743Y-41188520D01*
X148290635Y-41187774D01*
X148326761Y-41184359D01*
X148338619Y-41183800D01*
X157515088Y-41183800D01*
X157583209Y-41203802D01*
X157629702Y-41257458D01*
X157639806Y-41327732D01*
X157610312Y-41392312D01*
X157589151Y-41411734D01*
X157497347Y-41478434D01*
X157369560Y-41620356D01*
X157274073Y-41785744D01*
X157215058Y-41967372D01*
X157214368Y-41973933D01*
X157214368Y-41973935D01*
X157195786Y-42150735D01*
X157195096Y-42157300D01*
X157215058Y-42347228D01*
X157274073Y-42528856D01*
X157277376Y-42534578D01*
X157277377Y-42534579D01*
X157311286Y-42593310D01*
X157369560Y-42694244D01*
X157373978Y-42699151D01*
X157373979Y-42699152D01*
X157430255Y-42761653D01*
X157497347Y-42836166D01*
X157651848Y-42948418D01*
X157657876Y-42951102D01*
X157657878Y-42951103D01*
X157780944Y-43005895D01*
X157826312Y-43026094D01*
X157919713Y-43045947D01*
X158006656Y-43064428D01*
X158006661Y-43064428D01*
X158013113Y-43065800D01*
X158204087Y-43065800D01*
X158210539Y-43064428D01*
X158210544Y-43064428D01*
X158297487Y-43045947D01*
X158390888Y-43026094D01*
X158436256Y-43005895D01*
X158559322Y-42951103D01*
X158559324Y-42951102D01*
X158565352Y-42948418D01*
X158641491Y-42893100D01*
X158711946Y-42841911D01*
X158719853Y-42836166D01*
X158724268Y-42831263D01*
X158729180Y-42826840D01*
X158730305Y-42828089D01*
X158783614Y-42795249D01*
X158816800Y-42790800D01*
X168952193Y-42790800D01*
X169020314Y-42810802D01*
X169066807Y-42864458D01*
X169077503Y-42903628D01*
X169096358Y-43083028D01*
X169155373Y-43264656D01*
X169250860Y-43430044D01*
X169378647Y-43571966D01*
X169533148Y-43684218D01*
X169539176Y-43686902D01*
X169539178Y-43686903D01*
X169558937Y-43695700D01*
X169707612Y-43761894D01*
X169795687Y-43780615D01*
X169887956Y-43800228D01*
X169887961Y-43800228D01*
X169894413Y-43801600D01*
X169950306Y-43801600D01*
X170018427Y-43821602D01*
X170039401Y-43838505D01*
X171654101Y-45453205D01*
X171688127Y-45515517D01*
X171683062Y-45586332D01*
X171640515Y-45643168D01*
X171573995Y-45667979D01*
X171565006Y-45668300D01*
X152116394Y-45668300D01*
X152048273Y-45648298D01*
X152027299Y-45631395D01*
X137895405Y-31499500D01*
X137861379Y-31437188D01*
X137858500Y-31410405D01*
X137858500Y-31306094D01*
X137878502Y-31237973D01*
X137932158Y-31191480D01*
X138002432Y-31181376D01*
X138067012Y-31210870D01*
G37*
%TD.AperFunction*%
%TA.AperFunction,Conductor*%
G36*
X160903938Y-29847502D02*
G01*
X160950431Y-29901158D01*
X160960535Y-29971432D01*
X160933251Y-30033391D01*
X160879760Y-30098627D01*
X160879756Y-30098633D01*
X160876376Y-30102755D01*
X160873738Y-30107390D01*
X160873735Y-30107394D01*
X160837018Y-30171897D01*
X160762325Y-30303114D01*
X160683663Y-30519825D01*
X160682714Y-30525074D01*
X160682713Y-30525077D01*
X160643377Y-30742608D01*
X160643376Y-30742615D01*
X160642639Y-30746692D01*
X160641500Y-30770844D01*
X160641500Y-31182890D01*
X160641725Y-31185539D01*
X160648508Y-31265476D01*
X160656080Y-31354720D01*
X160657418Y-31359875D01*
X160657419Y-31359881D01*
X160712657Y-31572703D01*
X160713999Y-31577872D01*
X160808688Y-31788075D01*
X160937441Y-31979319D01*
X160941120Y-31983176D01*
X160941122Y-31983178D01*
X161002710Y-32047738D01*
X161096576Y-32146135D01*
X161281542Y-32283754D01*
X161286293Y-32286170D01*
X161286297Y-32286172D01*
X161349481Y-32318296D01*
X161487051Y-32388240D01*
X161492145Y-32389822D01*
X161492148Y-32389823D01*
X161657583Y-32441192D01*
X161707227Y-32456607D01*
X161712516Y-32457308D01*
X161930489Y-32486198D01*
X161930494Y-32486198D01*
X161935774Y-32486898D01*
X161941103Y-32486698D01*
X161941105Y-32486698D01*
X162050966Y-32482574D01*
X162166158Y-32478249D01*
X162186600Y-32473960D01*
X162386572Y-32432002D01*
X162391791Y-32430907D01*
X162396750Y-32428949D01*
X162396752Y-32428948D01*
X162601256Y-32348185D01*
X162601258Y-32348184D01*
X162606221Y-32346224D01*
X162611525Y-32343006D01*
X162798757Y-32229390D01*
X162798756Y-32229390D01*
X162803317Y-32226623D01*
X162849617Y-32186446D01*
X162973412Y-32079023D01*
X162973414Y-32079021D01*
X162977445Y-32075523D01*
X163041048Y-31997954D01*
X163120240Y-31901373D01*
X163120244Y-31901367D01*
X163123624Y-31897245D01*
X163137413Y-31873022D01*
X163141829Y-31865265D01*
X163192912Y-31815959D01*
X163262542Y-31802098D01*
X163328613Y-31828082D01*
X163355851Y-31857232D01*
X163434852Y-31974578D01*
X163441519Y-31982870D01*
X163593228Y-32141900D01*
X163601186Y-32148941D01*
X163777525Y-32280141D01*
X163786562Y-32285745D01*
X163982484Y-32385357D01*
X163992335Y-32389357D01*
X164202240Y-32454534D01*
X164212624Y-32456817D01*
X164228043Y-32458861D01*
X164242207Y-32456665D01*
X164246000Y-32443478D01*
X164246000Y-30872000D01*
X164266002Y-30803879D01*
X164319658Y-30757386D01*
X164372000Y-30746000D01*
X164628000Y-30746000D01*
X164696121Y-30766002D01*
X164742614Y-30819658D01*
X164754000Y-30872000D01*
X164754000Y-32441192D01*
X164757973Y-32454723D01*
X164768580Y-32456248D01*
X164886421Y-32431523D01*
X164896617Y-32428463D01*
X165101029Y-32347737D01*
X165110561Y-32343006D01*
X165298462Y-32228984D01*
X165307052Y-32222720D01*
X165473052Y-32078673D01*
X165480472Y-32071042D01*
X165619826Y-31901089D01*
X165625848Y-31892326D01*
X165641238Y-31865289D01*
X165692320Y-31815982D01*
X165761951Y-31802120D01*
X165828022Y-31828103D01*
X165855261Y-31857253D01*
X165884773Y-31901089D01*
X165937441Y-31979319D01*
X165941120Y-31983176D01*
X165941122Y-31983178D01*
X166002710Y-32047738D01*
X166096576Y-32146135D01*
X166281542Y-32283754D01*
X166286293Y-32286170D01*
X166286297Y-32286172D01*
X166349481Y-32318296D01*
X166487051Y-32388240D01*
X166492145Y-32389822D01*
X166492148Y-32389823D01*
X166657583Y-32441192D01*
X166707227Y-32456607D01*
X166712516Y-32457308D01*
X166930489Y-32486198D01*
X166930494Y-32486198D01*
X166935774Y-32486898D01*
X166941103Y-32486698D01*
X166941105Y-32486698D01*
X167050966Y-32482574D01*
X167166158Y-32478249D01*
X167186600Y-32473960D01*
X167386572Y-32432002D01*
X167391791Y-32430907D01*
X167396750Y-32428949D01*
X167396752Y-32428948D01*
X167601256Y-32348185D01*
X167601258Y-32348184D01*
X167606221Y-32346224D01*
X167611525Y-32343006D01*
X167798757Y-32229390D01*
X167798756Y-32229390D01*
X167803317Y-32226623D01*
X167849617Y-32186446D01*
X167973412Y-32079023D01*
X167973414Y-32079021D01*
X167977445Y-32075523D01*
X168006670Y-32039880D01*
X168065329Y-31999886D01*
X168136299Y-31997954D01*
X168197048Y-32034698D01*
X168211248Y-32053468D01*
X168227062Y-32079023D01*
X168301522Y-32199348D01*
X168426697Y-32324305D01*
X168432927Y-32328145D01*
X168432928Y-32328146D01*
X168570090Y-32412694D01*
X168577262Y-32417115D01*
X168612938Y-32428948D01*
X168738611Y-32470632D01*
X168738613Y-32470632D01*
X168745139Y-32472797D01*
X168751980Y-32473498D01*
X168751985Y-32473499D01*
X168753349Y-32473639D01*
X168754136Y-32473960D01*
X168758710Y-32474941D01*
X168758535Y-32475757D01*
X168819075Y-32500483D01*
X168859854Y-32558600D01*
X168866500Y-32598982D01*
X168866500Y-35374833D01*
X168865973Y-35386016D01*
X168864298Y-35393509D01*
X168864547Y-35401435D01*
X168864547Y-35401436D01*
X168866438Y-35461586D01*
X168866500Y-35465545D01*
X168866500Y-35493456D01*
X168866997Y-35497390D01*
X168866997Y-35497391D01*
X168867005Y-35497456D01*
X168867938Y-35509293D01*
X168869327Y-35553489D01*
X168873893Y-35569205D01*
X168874978Y-35572939D01*
X168878987Y-35592300D01*
X168881526Y-35612397D01*
X168884445Y-35619768D01*
X168884445Y-35619770D01*
X168897804Y-35653512D01*
X168901649Y-35664742D01*
X168911771Y-35699583D01*
X168913982Y-35707193D01*
X168918015Y-35714012D01*
X168918017Y-35714017D01*
X168924293Y-35724628D01*
X168932988Y-35742376D01*
X168940448Y-35761217D01*
X168945110Y-35767633D01*
X168945110Y-35767634D01*
X168966436Y-35796987D01*
X168972952Y-35806907D01*
X168987654Y-35831766D01*
X168995458Y-35844962D01*
X169009779Y-35859283D01*
X169022619Y-35874316D01*
X169034528Y-35890707D01*
X169068605Y-35918898D01*
X169077384Y-35926888D01*
X169262178Y-36111682D01*
X169296204Y-36173994D01*
X169298393Y-36187608D01*
X169302620Y-36227831D01*
X169289847Y-36297669D01*
X169241344Y-36349515D01*
X169177310Y-36367000D01*
X159608895Y-36367000D01*
X159540774Y-36346998D01*
X159519800Y-36330095D01*
X155888300Y-32698595D01*
X155854274Y-32636283D01*
X155859339Y-32565468D01*
X155901886Y-32508632D01*
X155968406Y-32483821D01*
X155977395Y-32483500D01*
X156150400Y-32483500D01*
X156153646Y-32483163D01*
X156153650Y-32483163D01*
X156249308Y-32473238D01*
X156249312Y-32473237D01*
X156256166Y-32472526D01*
X156262702Y-32470345D01*
X156262704Y-32470345D01*
X156394806Y-32426272D01*
X156423946Y-32416550D01*
X156574348Y-32323478D01*
X156699305Y-32198303D01*
X156731462Y-32146135D01*
X156788275Y-32053968D01*
X156788276Y-32053966D01*
X156792115Y-32047738D01*
X156842031Y-31897245D01*
X156845632Y-31886389D01*
X156845632Y-31886387D01*
X156847797Y-31879861D01*
X156849293Y-31865265D01*
X156853102Y-31828082D01*
X156858500Y-31775400D01*
X156858500Y-30589594D01*
X156878502Y-30521473D01*
X156895405Y-30500499D01*
X157531499Y-29864405D01*
X157593811Y-29830379D01*
X157620594Y-29827500D01*
X160835817Y-29827500D01*
X160903938Y-29847502D01*
G37*
%TD.AperFunction*%
%TD*%
M02*
