%TF.GenerationSoftware,KiCad,Pcbnew,(6.0.5)*%
%TF.CreationDate,2022-08-16T14:45:35+02:00*%
%TF.ProjectId,ATMega328-LoRa-Sol-ADIO,41544d65-6761-4333-9238-2d4c6f52612d,rev?*%
%TF.SameCoordinates,Original*%
%TF.FileFunction,Legend,Top*%
%TF.FilePolarity,Positive*%
%FSLAX46Y46*%
G04 Gerber Fmt 4.6, Leading zero omitted, Abs format (unit mm)*
G04 Created by KiCad (PCBNEW (6.0.5)) date 2022-08-16 14:45:35*
%MOMM*%
%LPD*%
G01*
G04 APERTURE LIST*
%ADD10C,0.150000*%
%ADD11C,0.120000*%
%ADD12C,0.100000*%
G04 APERTURE END LIST*
D10*
%TO.C,U2*%
X128238095Y-36552380D02*
X128238095Y-37361904D01*
X128285714Y-37457142D01*
X128333333Y-37504761D01*
X128428571Y-37552380D01*
X128619047Y-37552380D01*
X128714285Y-37504761D01*
X128761904Y-37457142D01*
X128809523Y-37361904D01*
X128809523Y-36552380D01*
X129238095Y-36647619D02*
X129285714Y-36600000D01*
X129380952Y-36552380D01*
X129619047Y-36552380D01*
X129714285Y-36600000D01*
X129761904Y-36647619D01*
X129809523Y-36742857D01*
X129809523Y-36838095D01*
X129761904Y-36980952D01*
X129190476Y-37552380D01*
X129809523Y-37552380D01*
%TO.C,R8*%
X158952380Y-85666666D02*
X158476190Y-86000000D01*
X158952380Y-86238095D02*
X157952380Y-86238095D01*
X157952380Y-85857142D01*
X158000000Y-85761904D01*
X158047619Y-85714285D01*
X158142857Y-85666666D01*
X158285714Y-85666666D01*
X158380952Y-85714285D01*
X158428571Y-85761904D01*
X158476190Y-85857142D01*
X158476190Y-86238095D01*
X158380952Y-85095238D02*
X158333333Y-85190476D01*
X158285714Y-85238095D01*
X158190476Y-85285714D01*
X158142857Y-85285714D01*
X158047619Y-85238095D01*
X158000000Y-85190476D01*
X157952380Y-85095238D01*
X157952380Y-84904761D01*
X158000000Y-84809523D01*
X158047619Y-84761904D01*
X158142857Y-84714285D01*
X158190476Y-84714285D01*
X158285714Y-84761904D01*
X158333333Y-84809523D01*
X158380952Y-84904761D01*
X158380952Y-85095238D01*
X158428571Y-85190476D01*
X158476190Y-85238095D01*
X158571428Y-85285714D01*
X158761904Y-85285714D01*
X158857142Y-85238095D01*
X158904761Y-85190476D01*
X158952380Y-85095238D01*
X158952380Y-84904761D01*
X158904761Y-84809523D01*
X158857142Y-84761904D01*
X158761904Y-84714285D01*
X158571428Y-84714285D01*
X158476190Y-84761904D01*
X158428571Y-84809523D01*
X158380952Y-84904761D01*
%TO.C,D4*%
X137452380Y-56238095D02*
X136452380Y-56238095D01*
X136452380Y-56000000D01*
X136500000Y-55857142D01*
X136595238Y-55761904D01*
X136690476Y-55714285D01*
X136880952Y-55666666D01*
X137023809Y-55666666D01*
X137214285Y-55714285D01*
X137309523Y-55761904D01*
X137404761Y-55857142D01*
X137452380Y-56000000D01*
X137452380Y-56238095D01*
X136785714Y-54809523D02*
X137452380Y-54809523D01*
X136404761Y-55047619D02*
X137119047Y-55285714D01*
X137119047Y-54666666D01*
%TO.C,J4*%
X134416666Y-84952380D02*
X134416666Y-85666666D01*
X134369047Y-85809523D01*
X134273809Y-85904761D01*
X134130952Y-85952380D01*
X134035714Y-85952380D01*
X135321428Y-85285714D02*
X135321428Y-85952380D01*
X135083333Y-84904761D02*
X134845238Y-85619047D01*
X135464285Y-85619047D01*
%TO.C,J7*%
X148916666Y-34002380D02*
X148916666Y-34716666D01*
X148869047Y-34859523D01*
X148773809Y-34954761D01*
X148630952Y-35002380D01*
X148535714Y-35002380D01*
X149297619Y-34002380D02*
X149964285Y-34002380D01*
X149535714Y-35002380D01*
X143976190Y-34904761D02*
X144119047Y-34952380D01*
X144357142Y-34952380D01*
X144452380Y-34904761D01*
X144500000Y-34857142D01*
X144547619Y-34761904D01*
X144547619Y-34666666D01*
X144500000Y-34571428D01*
X144452380Y-34523809D01*
X144357142Y-34476190D01*
X144166666Y-34428571D01*
X144071428Y-34380952D01*
X144023809Y-34333333D01*
X143976190Y-34238095D01*
X143976190Y-34142857D01*
X144023809Y-34047619D01*
X144071428Y-34000000D01*
X144166666Y-33952380D01*
X144404761Y-33952380D01*
X144547619Y-34000000D01*
X144976190Y-34952380D02*
X144976190Y-33952380D01*
X145357142Y-33952380D01*
X145452380Y-34000000D01*
X145500000Y-34047619D01*
X145547619Y-34142857D01*
X145547619Y-34285714D01*
X145500000Y-34380952D01*
X145452380Y-34428571D01*
X145357142Y-34476190D01*
X144976190Y-34476190D01*
X145976190Y-34952380D02*
X145976190Y-33952380D01*
%TO.C,J5*%
X138166666Y-34002380D02*
X138166666Y-34716666D01*
X138119047Y-34859523D01*
X138023809Y-34954761D01*
X137880952Y-35002380D01*
X137785714Y-35002380D01*
X139119047Y-34002380D02*
X138642857Y-34002380D01*
X138595238Y-34478571D01*
X138642857Y-34430952D01*
X138738095Y-34383333D01*
X138976190Y-34383333D01*
X139071428Y-34430952D01*
X139119047Y-34478571D01*
X139166666Y-34573809D01*
X139166666Y-34811904D01*
X139119047Y-34907142D01*
X139071428Y-34954761D01*
X138976190Y-35002380D01*
X138738095Y-35002380D01*
X138642857Y-34954761D01*
X138595238Y-34907142D01*
X127142857Y-34952380D02*
X126809523Y-34476190D01*
X126571428Y-34952380D02*
X126571428Y-33952380D01*
X126952380Y-33952380D01*
X127047619Y-34000000D01*
X127095238Y-34047619D01*
X127142857Y-34142857D01*
X127142857Y-34285714D01*
X127095238Y-34380952D01*
X127047619Y-34428571D01*
X126952380Y-34476190D01*
X126571428Y-34476190D01*
X127476190Y-33952380D02*
X128142857Y-34952380D01*
X128142857Y-33952380D02*
X127476190Y-34952380D01*
X128380952Y-33952380D02*
X128952380Y-33952380D01*
X128666666Y-34952380D02*
X128666666Y-33952380D01*
X129190476Y-33952380D02*
X129857142Y-34952380D01*
X129857142Y-33952380D02*
X129190476Y-34952380D01*
X130238095Y-34571428D02*
X131000000Y-34571428D01*
X130619047Y-34952380D02*
X130619047Y-34190476D01*
X131476190Y-34952380D02*
X131476190Y-33952380D01*
X131857142Y-33952380D01*
X131952380Y-34000000D01*
X132000000Y-34047619D01*
X132047619Y-34142857D01*
X132047619Y-34285714D01*
X132000000Y-34380952D01*
X131952380Y-34428571D01*
X131857142Y-34476190D01*
X131476190Y-34476190D01*
X132619047Y-34952380D02*
X132523809Y-34904761D01*
X132476190Y-34857142D01*
X132428571Y-34761904D01*
X132428571Y-34476190D01*
X132476190Y-34380952D01*
X132523809Y-34333333D01*
X132619047Y-34285714D01*
X132761904Y-34285714D01*
X132857142Y-34333333D01*
X132904761Y-34380952D01*
X132952380Y-34476190D01*
X132952380Y-34761904D01*
X132904761Y-34857142D01*
X132857142Y-34904761D01*
X132761904Y-34952380D01*
X132619047Y-34952380D01*
X133285714Y-34285714D02*
X133476190Y-34952380D01*
X133666666Y-34476190D01*
X133857142Y-34952380D01*
X134047619Y-34285714D01*
X134809523Y-34904761D02*
X134714285Y-34952380D01*
X134523809Y-34952380D01*
X134428571Y-34904761D01*
X134380952Y-34809523D01*
X134380952Y-34428571D01*
X134428571Y-34333333D01*
X134523809Y-34285714D01*
X134714285Y-34285714D01*
X134809523Y-34333333D01*
X134857142Y-34428571D01*
X134857142Y-34523809D01*
X134380952Y-34619047D01*
X135285714Y-34952380D02*
X135285714Y-34285714D01*
X135285714Y-34476190D02*
X135333333Y-34380952D01*
X135380952Y-34333333D01*
X135476190Y-34285714D01*
X135571428Y-34285714D01*
%TO.C,C6*%
X155333333Y-49607142D02*
X155285714Y-49654761D01*
X155142857Y-49702380D01*
X155047619Y-49702380D01*
X154904761Y-49654761D01*
X154809523Y-49559523D01*
X154761904Y-49464285D01*
X154714285Y-49273809D01*
X154714285Y-49130952D01*
X154761904Y-48940476D01*
X154809523Y-48845238D01*
X154904761Y-48750000D01*
X155047619Y-48702380D01*
X155142857Y-48702380D01*
X155285714Y-48750000D01*
X155333333Y-48797619D01*
X156190476Y-48702380D02*
X156000000Y-48702380D01*
X155904761Y-48750000D01*
X155857142Y-48797619D01*
X155761904Y-48940476D01*
X155714285Y-49130952D01*
X155714285Y-49511904D01*
X155761904Y-49607142D01*
X155809523Y-49654761D01*
X155904761Y-49702380D01*
X156095238Y-49702380D01*
X156190476Y-49654761D01*
X156238095Y-49607142D01*
X156285714Y-49511904D01*
X156285714Y-49273809D01*
X156238095Y-49178571D01*
X156190476Y-49130952D01*
X156095238Y-49083333D01*
X155904761Y-49083333D01*
X155809523Y-49130952D01*
X155761904Y-49178571D01*
X155714285Y-49273809D01*
%TO.C,U1*%
X140338095Y-43202380D02*
X140338095Y-44011904D01*
X140385714Y-44107142D01*
X140433333Y-44154761D01*
X140528571Y-44202380D01*
X140719047Y-44202380D01*
X140814285Y-44154761D01*
X140861904Y-44107142D01*
X140909523Y-44011904D01*
X140909523Y-43202380D01*
X141909523Y-44202380D02*
X141338095Y-44202380D01*
X141623809Y-44202380D02*
X141623809Y-43202380D01*
X141528571Y-43345238D01*
X141433333Y-43440476D01*
X141338095Y-43488095D01*
%TO.C,C8*%
X154083333Y-57607142D02*
X154035714Y-57654761D01*
X153892857Y-57702380D01*
X153797619Y-57702380D01*
X153654761Y-57654761D01*
X153559523Y-57559523D01*
X153511904Y-57464285D01*
X153464285Y-57273809D01*
X153464285Y-57130952D01*
X153511904Y-56940476D01*
X153559523Y-56845238D01*
X153654761Y-56750000D01*
X153797619Y-56702380D01*
X153892857Y-56702380D01*
X154035714Y-56750000D01*
X154083333Y-56797619D01*
X154654761Y-57130952D02*
X154559523Y-57083333D01*
X154511904Y-57035714D01*
X154464285Y-56940476D01*
X154464285Y-56892857D01*
X154511904Y-56797619D01*
X154559523Y-56750000D01*
X154654761Y-56702380D01*
X154845238Y-56702380D01*
X154940476Y-56750000D01*
X154988095Y-56797619D01*
X155035714Y-56892857D01*
X155035714Y-56940476D01*
X154988095Y-57035714D01*
X154940476Y-57083333D01*
X154845238Y-57130952D01*
X154654761Y-57130952D01*
X154559523Y-57178571D01*
X154511904Y-57226190D01*
X154464285Y-57321428D01*
X154464285Y-57511904D01*
X154511904Y-57607142D01*
X154559523Y-57654761D01*
X154654761Y-57702380D01*
X154845238Y-57702380D01*
X154940476Y-57654761D01*
X154988095Y-57607142D01*
X155035714Y-57511904D01*
X155035714Y-57321428D01*
X154988095Y-57226190D01*
X154940476Y-57178571D01*
X154845238Y-57130952D01*
%TO.C,J1*%
X121564880Y-42833333D02*
X122279166Y-42833333D01*
X122422023Y-42880952D01*
X122517261Y-42976190D01*
X122564880Y-43119047D01*
X122564880Y-43214285D01*
X122564880Y-41833333D02*
X122564880Y-42404761D01*
X122564880Y-42119047D02*
X121564880Y-42119047D01*
X121707738Y-42214285D01*
X121802976Y-42309523D01*
X121850595Y-42404761D01*
%TO.C,Q1*%
X116467261Y-62647619D02*
X116372023Y-62600000D01*
X116276785Y-62504761D01*
X116133928Y-62361904D01*
X116038690Y-62314285D01*
X115943452Y-62314285D01*
X115991071Y-62552380D02*
X115895833Y-62504761D01*
X115800595Y-62409523D01*
X115752976Y-62219047D01*
X115752976Y-61885714D01*
X115800595Y-61695238D01*
X115895833Y-61600000D01*
X115991071Y-61552380D01*
X116181547Y-61552380D01*
X116276785Y-61600000D01*
X116372023Y-61695238D01*
X116419642Y-61885714D01*
X116419642Y-62219047D01*
X116372023Y-62409523D01*
X116276785Y-62504761D01*
X116181547Y-62552380D01*
X115991071Y-62552380D01*
X117372023Y-62552380D02*
X116800595Y-62552380D01*
X117086309Y-62552380D02*
X117086309Y-61552380D01*
X116991071Y-61695238D01*
X116895833Y-61790476D01*
X116800595Y-61838095D01*
%TO.C,U7*%
X160338095Y-34987380D02*
X160338095Y-35796904D01*
X160385714Y-35892142D01*
X160433333Y-35939761D01*
X160528571Y-35987380D01*
X160719047Y-35987380D01*
X160814285Y-35939761D01*
X160861904Y-35892142D01*
X160909523Y-35796904D01*
X160909523Y-34987380D01*
X161290476Y-34987380D02*
X161957142Y-34987380D01*
X161528571Y-35987380D01*
%TO.C,C9*%
X161833333Y-57357142D02*
X161785714Y-57404761D01*
X161642857Y-57452380D01*
X161547619Y-57452380D01*
X161404761Y-57404761D01*
X161309523Y-57309523D01*
X161261904Y-57214285D01*
X161214285Y-57023809D01*
X161214285Y-56880952D01*
X161261904Y-56690476D01*
X161309523Y-56595238D01*
X161404761Y-56500000D01*
X161547619Y-56452380D01*
X161642857Y-56452380D01*
X161785714Y-56500000D01*
X161833333Y-56547619D01*
X162309523Y-57452380D02*
X162500000Y-57452380D01*
X162595238Y-57404761D01*
X162642857Y-57357142D01*
X162738095Y-57214285D01*
X162785714Y-57023809D01*
X162785714Y-56642857D01*
X162738095Y-56547619D01*
X162690476Y-56500000D01*
X162595238Y-56452380D01*
X162404761Y-56452380D01*
X162309523Y-56500000D01*
X162261904Y-56547619D01*
X162214285Y-56642857D01*
X162214285Y-56880952D01*
X162261904Y-56976190D01*
X162309523Y-57023809D01*
X162404761Y-57071428D01*
X162595238Y-57071428D01*
X162690476Y-57023809D01*
X162738095Y-56976190D01*
X162785714Y-56880952D01*
%TO.C,U3*%
X157125595Y-56702380D02*
X157125595Y-57511904D01*
X157173214Y-57607142D01*
X157220833Y-57654761D01*
X157316071Y-57702380D01*
X157506547Y-57702380D01*
X157601785Y-57654761D01*
X157649404Y-57607142D01*
X157697023Y-57511904D01*
X157697023Y-56702380D01*
X158077976Y-56702380D02*
X158697023Y-56702380D01*
X158363690Y-57083333D01*
X158506547Y-57083333D01*
X158601785Y-57130952D01*
X158649404Y-57178571D01*
X158697023Y-57273809D01*
X158697023Y-57511904D01*
X158649404Y-57607142D01*
X158601785Y-57654761D01*
X158506547Y-57702380D01*
X158220833Y-57702380D01*
X158125595Y-57654761D01*
X158077976Y-57607142D01*
%TO.C,U6*%
X174238095Y-45952380D02*
X174238095Y-46761904D01*
X174285714Y-46857142D01*
X174333333Y-46904761D01*
X174428571Y-46952380D01*
X174619047Y-46952380D01*
X174714285Y-46904761D01*
X174761904Y-46857142D01*
X174809523Y-46761904D01*
X174809523Y-45952380D01*
X175714285Y-45952380D02*
X175523809Y-45952380D01*
X175428571Y-46000000D01*
X175380952Y-46047619D01*
X175285714Y-46190476D01*
X175238095Y-46380952D01*
X175238095Y-46761904D01*
X175285714Y-46857142D01*
X175333333Y-46904761D01*
X175428571Y-46952380D01*
X175619047Y-46952380D01*
X175714285Y-46904761D01*
X175761904Y-46857142D01*
X175809523Y-46761904D01*
X175809523Y-46523809D01*
X175761904Y-46428571D01*
X175714285Y-46380952D01*
X175619047Y-46333333D01*
X175428571Y-46333333D01*
X175333333Y-46380952D01*
X175285714Y-46428571D01*
X175238095Y-46523809D01*
%TO.C,R2*%
X139132380Y-40116666D02*
X138656190Y-40450000D01*
X139132380Y-40688095D02*
X138132380Y-40688095D01*
X138132380Y-40307142D01*
X138180000Y-40211904D01*
X138227619Y-40164285D01*
X138322857Y-40116666D01*
X138465714Y-40116666D01*
X138560952Y-40164285D01*
X138608571Y-40211904D01*
X138656190Y-40307142D01*
X138656190Y-40688095D01*
X138227619Y-39735714D02*
X138180000Y-39688095D01*
X138132380Y-39592857D01*
X138132380Y-39354761D01*
X138180000Y-39259523D01*
X138227619Y-39211904D01*
X138322857Y-39164285D01*
X138418095Y-39164285D01*
X138560952Y-39211904D01*
X139132380Y-39783333D01*
X139132380Y-39164285D01*
%TO.C,C5*%
X148958333Y-44757142D02*
X148910714Y-44804761D01*
X148767857Y-44852380D01*
X148672619Y-44852380D01*
X148529761Y-44804761D01*
X148434523Y-44709523D01*
X148386904Y-44614285D01*
X148339285Y-44423809D01*
X148339285Y-44280952D01*
X148386904Y-44090476D01*
X148434523Y-43995238D01*
X148529761Y-43900000D01*
X148672619Y-43852380D01*
X148767857Y-43852380D01*
X148910714Y-43900000D01*
X148958333Y-43947619D01*
X149863095Y-43852380D02*
X149386904Y-43852380D01*
X149339285Y-44328571D01*
X149386904Y-44280952D01*
X149482142Y-44233333D01*
X149720238Y-44233333D01*
X149815476Y-44280952D01*
X149863095Y-44328571D01*
X149910714Y-44423809D01*
X149910714Y-44661904D01*
X149863095Y-44757142D01*
X149815476Y-44804761D01*
X149720238Y-44852380D01*
X149482142Y-44852380D01*
X149386904Y-44804761D01*
X149339285Y-44757142D01*
%TO.C,C15*%
X164857142Y-50357142D02*
X164809523Y-50404761D01*
X164666666Y-50452380D01*
X164571428Y-50452380D01*
X164428571Y-50404761D01*
X164333333Y-50309523D01*
X164285714Y-50214285D01*
X164238095Y-50023809D01*
X164238095Y-49880952D01*
X164285714Y-49690476D01*
X164333333Y-49595238D01*
X164428571Y-49500000D01*
X164571428Y-49452380D01*
X164666666Y-49452380D01*
X164809523Y-49500000D01*
X164857142Y-49547619D01*
X165809523Y-50452380D02*
X165238095Y-50452380D01*
X165523809Y-50452380D02*
X165523809Y-49452380D01*
X165428571Y-49595238D01*
X165333333Y-49690476D01*
X165238095Y-49738095D01*
X166714285Y-49452380D02*
X166238095Y-49452380D01*
X166190476Y-49928571D01*
X166238095Y-49880952D01*
X166333333Y-49833333D01*
X166571428Y-49833333D01*
X166666666Y-49880952D01*
X166714285Y-49928571D01*
X166761904Y-50023809D01*
X166761904Y-50261904D01*
X166714285Y-50357142D01*
X166666666Y-50404761D01*
X166571428Y-50452380D01*
X166333333Y-50452380D01*
X166238095Y-50404761D01*
X166190476Y-50357142D01*
%TO.C,C3*%
X135787142Y-50954166D02*
X135834761Y-51001785D01*
X135882380Y-51144642D01*
X135882380Y-51239880D01*
X135834761Y-51382738D01*
X135739523Y-51477976D01*
X135644285Y-51525595D01*
X135453809Y-51573214D01*
X135310952Y-51573214D01*
X135120476Y-51525595D01*
X135025238Y-51477976D01*
X134930000Y-51382738D01*
X134882380Y-51239880D01*
X134882380Y-51144642D01*
X134930000Y-51001785D01*
X134977619Y-50954166D01*
X134882380Y-50620833D02*
X134882380Y-50001785D01*
X135263333Y-50335119D01*
X135263333Y-50192261D01*
X135310952Y-50097023D01*
X135358571Y-50049404D01*
X135453809Y-50001785D01*
X135691904Y-50001785D01*
X135787142Y-50049404D01*
X135834761Y-50097023D01*
X135882380Y-50192261D01*
X135882380Y-50477976D01*
X135834761Y-50573214D01*
X135787142Y-50620833D01*
%TO.C,R4*%
X192933333Y-49952380D02*
X192600000Y-49476190D01*
X192361904Y-49952380D02*
X192361904Y-48952380D01*
X192742857Y-48952380D01*
X192838095Y-49000000D01*
X192885714Y-49047619D01*
X192933333Y-49142857D01*
X192933333Y-49285714D01*
X192885714Y-49380952D01*
X192838095Y-49428571D01*
X192742857Y-49476190D01*
X192361904Y-49476190D01*
X193790476Y-49285714D02*
X193790476Y-49952380D01*
X193552380Y-48904761D02*
X193314285Y-49619047D01*
X193933333Y-49619047D01*
%TO.C,R7*%
X155952380Y-85616666D02*
X155476190Y-85950000D01*
X155952380Y-86188095D02*
X154952380Y-86188095D01*
X154952380Y-85807142D01*
X155000000Y-85711904D01*
X155047619Y-85664285D01*
X155142857Y-85616666D01*
X155285714Y-85616666D01*
X155380952Y-85664285D01*
X155428571Y-85711904D01*
X155476190Y-85807142D01*
X155476190Y-86188095D01*
X154952380Y-85283333D02*
X154952380Y-84616666D01*
X155952380Y-85045238D01*
%TO.C,J3*%
X171166666Y-34002380D02*
X171166666Y-34716666D01*
X171119047Y-34859523D01*
X171023809Y-34954761D01*
X170880952Y-35002380D01*
X170785714Y-35002380D01*
X171547619Y-34002380D02*
X172166666Y-34002380D01*
X171833333Y-34383333D01*
X171976190Y-34383333D01*
X172071428Y-34430952D01*
X172119047Y-34478571D01*
X172166666Y-34573809D01*
X172166666Y-34811904D01*
X172119047Y-34907142D01*
X172071428Y-34954761D01*
X171976190Y-35002380D01*
X171690476Y-35002380D01*
X171595238Y-34954761D01*
X171547619Y-34907142D01*
X163261904Y-34666666D02*
X163738095Y-34666666D01*
X163166666Y-34952380D02*
X163500000Y-33952380D01*
X163833333Y-34952380D01*
X164166666Y-34952380D02*
X164166666Y-33952380D01*
X164833333Y-33952380D02*
X165023809Y-33952380D01*
X165119047Y-34000000D01*
X165214285Y-34095238D01*
X165261904Y-34285714D01*
X165261904Y-34619047D01*
X165214285Y-34809523D01*
X165119047Y-34904761D01*
X165023809Y-34952380D01*
X164833333Y-34952380D01*
X164738095Y-34904761D01*
X164642857Y-34809523D01*
X164595238Y-34619047D01*
X164595238Y-34285714D01*
X164642857Y-34095238D01*
X164738095Y-34000000D01*
X164833333Y-33952380D01*
X166404761Y-33904761D02*
X165547619Y-35190476D01*
X166738095Y-34952380D02*
X166738095Y-33952380D01*
X167166666Y-34047619D02*
X167214285Y-34000000D01*
X167309523Y-33952380D01*
X167547619Y-33952380D01*
X167642857Y-34000000D01*
X167690476Y-34047619D01*
X167738095Y-34142857D01*
X167738095Y-34238095D01*
X167690476Y-34380952D01*
X167119047Y-34952380D01*
X167738095Y-34952380D01*
X168738095Y-34857142D02*
X168690476Y-34904761D01*
X168547619Y-34952380D01*
X168452380Y-34952380D01*
X168309523Y-34904761D01*
X168214285Y-34809523D01*
X168166666Y-34714285D01*
X168119047Y-34523809D01*
X168119047Y-34380952D01*
X168166666Y-34190476D01*
X168214285Y-34095238D01*
X168309523Y-34000000D01*
X168452380Y-33952380D01*
X168547619Y-33952380D01*
X168690476Y-34000000D01*
X168738095Y-34047619D01*
%TO.C,R1*%
X120333333Y-60952380D02*
X120000000Y-60476190D01*
X119761904Y-60952380D02*
X119761904Y-59952380D01*
X120142857Y-59952380D01*
X120238095Y-60000000D01*
X120285714Y-60047619D01*
X120333333Y-60142857D01*
X120333333Y-60285714D01*
X120285714Y-60380952D01*
X120238095Y-60428571D01*
X120142857Y-60476190D01*
X119761904Y-60476190D01*
X121285714Y-60952380D02*
X120714285Y-60952380D01*
X121000000Y-60952380D02*
X121000000Y-59952380D01*
X120904761Y-60095238D01*
X120809523Y-60190476D01*
X120714285Y-60238095D01*
%TO.C,R3*%
X192833333Y-47452380D02*
X192500000Y-46976190D01*
X192261904Y-47452380D02*
X192261904Y-46452380D01*
X192642857Y-46452380D01*
X192738095Y-46500000D01*
X192785714Y-46547619D01*
X192833333Y-46642857D01*
X192833333Y-46785714D01*
X192785714Y-46880952D01*
X192738095Y-46928571D01*
X192642857Y-46976190D01*
X192261904Y-46976190D01*
X193166666Y-46452380D02*
X193785714Y-46452380D01*
X193452380Y-46833333D01*
X193595238Y-46833333D01*
X193690476Y-46880952D01*
X193738095Y-46928571D01*
X193785714Y-47023809D01*
X193785714Y-47261904D01*
X193738095Y-47357142D01*
X193690476Y-47404761D01*
X193595238Y-47452380D01*
X193309523Y-47452380D01*
X193214285Y-47404761D01*
X193166666Y-47357142D01*
%TO.C,JP2*%
X145702380Y-56833333D02*
X146416666Y-56833333D01*
X146559523Y-56880952D01*
X146654761Y-56976190D01*
X146702380Y-57119047D01*
X146702380Y-57214285D01*
X146702380Y-56357142D02*
X145702380Y-56357142D01*
X145702380Y-55976190D01*
X145750000Y-55880952D01*
X145797619Y-55833333D01*
X145892857Y-55785714D01*
X146035714Y-55785714D01*
X146130952Y-55833333D01*
X146178571Y-55880952D01*
X146226190Y-55976190D01*
X146226190Y-56357142D01*
X145797619Y-55404761D02*
X145750000Y-55357142D01*
X145702380Y-55261904D01*
X145702380Y-55023809D01*
X145750000Y-54928571D01*
X145797619Y-54880952D01*
X145892857Y-54833333D01*
X145988095Y-54833333D01*
X146130952Y-54880952D01*
X146702380Y-55452380D01*
X146702380Y-54833333D01*
%TO.C,C1*%
X148945833Y-49677142D02*
X148898214Y-49724761D01*
X148755357Y-49772380D01*
X148660119Y-49772380D01*
X148517261Y-49724761D01*
X148422023Y-49629523D01*
X148374404Y-49534285D01*
X148326785Y-49343809D01*
X148326785Y-49200952D01*
X148374404Y-49010476D01*
X148422023Y-48915238D01*
X148517261Y-48820000D01*
X148660119Y-48772380D01*
X148755357Y-48772380D01*
X148898214Y-48820000D01*
X148945833Y-48867619D01*
X149898214Y-49772380D02*
X149326785Y-49772380D01*
X149612500Y-49772380D02*
X149612500Y-48772380D01*
X149517261Y-48915238D01*
X149422023Y-49010476D01*
X149326785Y-49058095D01*
%TO.C,C11*%
X161857142Y-86005357D02*
X161904761Y-86052976D01*
X161952380Y-86195833D01*
X161952380Y-86291071D01*
X161904761Y-86433928D01*
X161809523Y-86529166D01*
X161714285Y-86576785D01*
X161523809Y-86624404D01*
X161380952Y-86624404D01*
X161190476Y-86576785D01*
X161095238Y-86529166D01*
X161000000Y-86433928D01*
X160952380Y-86291071D01*
X160952380Y-86195833D01*
X161000000Y-86052976D01*
X161047619Y-86005357D01*
X161952380Y-85052976D02*
X161952380Y-85624404D01*
X161952380Y-85338690D02*
X160952380Y-85338690D01*
X161095238Y-85433928D01*
X161190476Y-85529166D01*
X161238095Y-85624404D01*
X161952380Y-84100595D02*
X161952380Y-84672023D01*
X161952380Y-84386309D02*
X160952380Y-84386309D01*
X161095238Y-84481547D01*
X161190476Y-84576785D01*
X161238095Y-84672023D01*
%TO.C,D3*%
X135102380Y-81988095D02*
X134102380Y-81988095D01*
X134102380Y-81750000D01*
X134150000Y-81607142D01*
X134245238Y-81511904D01*
X134340476Y-81464285D01*
X134530952Y-81416666D01*
X134673809Y-81416666D01*
X134864285Y-81464285D01*
X134959523Y-81511904D01*
X135054761Y-81607142D01*
X135102380Y-81750000D01*
X135102380Y-81988095D01*
X134102380Y-81083333D02*
X134102380Y-80464285D01*
X134483333Y-80797619D01*
X134483333Y-80654761D01*
X134530952Y-80559523D01*
X134578571Y-80511904D01*
X134673809Y-80464285D01*
X134911904Y-80464285D01*
X135007142Y-80511904D01*
X135054761Y-80559523D01*
X135102380Y-80654761D01*
X135102380Y-80940476D01*
X135054761Y-81035714D01*
X135007142Y-81083333D01*
%TO.C,U5*%
X149038095Y-79377380D02*
X149038095Y-80186904D01*
X149085714Y-80282142D01*
X149133333Y-80329761D01*
X149228571Y-80377380D01*
X149419047Y-80377380D01*
X149514285Y-80329761D01*
X149561904Y-80282142D01*
X149609523Y-80186904D01*
X149609523Y-79377380D01*
X150561904Y-79377380D02*
X150085714Y-79377380D01*
X150038095Y-79853571D01*
X150085714Y-79805952D01*
X150180952Y-79758333D01*
X150419047Y-79758333D01*
X150514285Y-79805952D01*
X150561904Y-79853571D01*
X150609523Y-79948809D01*
X150609523Y-80186904D01*
X150561904Y-80282142D01*
X150514285Y-80329761D01*
X150419047Y-80377380D01*
X150180952Y-80377380D01*
X150085714Y-80329761D01*
X150038095Y-80282142D01*
%TO.C,J2*%
X120702380Y-71333333D02*
X121416666Y-71333333D01*
X121559523Y-71380952D01*
X121654761Y-71476190D01*
X121702380Y-71619047D01*
X121702380Y-71714285D01*
X120797619Y-70904761D02*
X120750000Y-70857142D01*
X120702380Y-70761904D01*
X120702380Y-70523809D01*
X120750000Y-70428571D01*
X120797619Y-70380952D01*
X120892857Y-70333333D01*
X120988095Y-70333333D01*
X121130952Y-70380952D01*
X121702380Y-70952380D01*
X121702380Y-70333333D01*
%TO.C,Y2*%
X165523809Y-53316190D02*
X165523809Y-53792380D01*
X165190476Y-52792380D02*
X165523809Y-53316190D01*
X165857142Y-52792380D01*
X166142857Y-52887619D02*
X166190476Y-52840000D01*
X166285714Y-52792380D01*
X166523809Y-52792380D01*
X166619047Y-52840000D01*
X166666666Y-52887619D01*
X166714285Y-52982857D01*
X166714285Y-53078095D01*
X166666666Y-53220952D01*
X166095238Y-53792380D01*
X166714285Y-53792380D01*
%TO.C,C13*%
X191994642Y-57357142D02*
X191947023Y-57404761D01*
X191804166Y-57452380D01*
X191708928Y-57452380D01*
X191566071Y-57404761D01*
X191470833Y-57309523D01*
X191423214Y-57214285D01*
X191375595Y-57023809D01*
X191375595Y-56880952D01*
X191423214Y-56690476D01*
X191470833Y-56595238D01*
X191566071Y-56500000D01*
X191708928Y-56452380D01*
X191804166Y-56452380D01*
X191947023Y-56500000D01*
X191994642Y-56547619D01*
X192947023Y-57452380D02*
X192375595Y-57452380D01*
X192661309Y-57452380D02*
X192661309Y-56452380D01*
X192566071Y-56595238D01*
X192470833Y-56690476D01*
X192375595Y-56738095D01*
X193280357Y-56452380D02*
X193899404Y-56452380D01*
X193566071Y-56833333D01*
X193708928Y-56833333D01*
X193804166Y-56880952D01*
X193851785Y-56928571D01*
X193899404Y-57023809D01*
X193899404Y-57261904D01*
X193851785Y-57357142D01*
X193804166Y-57404761D01*
X193708928Y-57452380D01*
X193423214Y-57452380D01*
X193327976Y-57404761D01*
X193280357Y-57357142D01*
%TO.C,C7*%
X135833333Y-37427142D02*
X135785714Y-37474761D01*
X135642857Y-37522380D01*
X135547619Y-37522380D01*
X135404761Y-37474761D01*
X135309523Y-37379523D01*
X135261904Y-37284285D01*
X135214285Y-37093809D01*
X135214285Y-36950952D01*
X135261904Y-36760476D01*
X135309523Y-36665238D01*
X135404761Y-36570000D01*
X135547619Y-36522380D01*
X135642857Y-36522380D01*
X135785714Y-36570000D01*
X135833333Y-36617619D01*
X136166666Y-36522380D02*
X136833333Y-36522380D01*
X136404761Y-37522380D01*
%TO.C,U4*%
X174238095Y-27702380D02*
X174238095Y-28511904D01*
X174285714Y-28607142D01*
X174333333Y-28654761D01*
X174428571Y-28702380D01*
X174619047Y-28702380D01*
X174714285Y-28654761D01*
X174761904Y-28607142D01*
X174809523Y-28511904D01*
X174809523Y-27702380D01*
X175714285Y-28035714D02*
X175714285Y-28702380D01*
X175476190Y-27654761D02*
X175238095Y-28369047D01*
X175857142Y-28369047D01*
%TO.C,Y1*%
X129085109Y-54726190D02*
X129085109Y-55202380D01*
X128751776Y-54202380D02*
X129085109Y-54726190D01*
X129418442Y-54202380D01*
X130275585Y-55202380D02*
X129704157Y-55202380D01*
X129989871Y-55202380D02*
X129989871Y-54202380D01*
X129894633Y-54345238D01*
X129799395Y-54440476D01*
X129704157Y-54488095D01*
%TO.C,JP1*%
X170316666Y-82252380D02*
X170316666Y-82966666D01*
X170269047Y-83109523D01*
X170173809Y-83204761D01*
X170030952Y-83252380D01*
X169935714Y-83252380D01*
X170792857Y-83252380D02*
X170792857Y-82252380D01*
X171173809Y-82252380D01*
X171269047Y-82300000D01*
X171316666Y-82347619D01*
X171364285Y-82442857D01*
X171364285Y-82585714D01*
X171316666Y-82680952D01*
X171269047Y-82728571D01*
X171173809Y-82776190D01*
X170792857Y-82776190D01*
X172316666Y-83252380D02*
X171745238Y-83252380D01*
X172030952Y-83252380D02*
X172030952Y-82252380D01*
X171935714Y-82395238D01*
X171840476Y-82490476D01*
X171745238Y-82538095D01*
%TO.C,C14*%
X140219642Y-81787142D02*
X140172023Y-81834761D01*
X140029166Y-81882380D01*
X139933928Y-81882380D01*
X139791071Y-81834761D01*
X139695833Y-81739523D01*
X139648214Y-81644285D01*
X139600595Y-81453809D01*
X139600595Y-81310952D01*
X139648214Y-81120476D01*
X139695833Y-81025238D01*
X139791071Y-80930000D01*
X139933928Y-80882380D01*
X140029166Y-80882380D01*
X140172023Y-80930000D01*
X140219642Y-80977619D01*
X141172023Y-81882380D02*
X140600595Y-81882380D01*
X140886309Y-81882380D02*
X140886309Y-80882380D01*
X140791071Y-81025238D01*
X140695833Y-81120476D01*
X140600595Y-81168095D01*
X142029166Y-81215714D02*
X142029166Y-81882380D01*
X141791071Y-80834761D02*
X141552976Y-81549047D01*
X142172023Y-81549047D01*
%TO.C,D2*%
X159374404Y-49377380D02*
X159374404Y-48377380D01*
X159612500Y-48377380D01*
X159755357Y-48425000D01*
X159850595Y-48520238D01*
X159898214Y-48615476D01*
X159945833Y-48805952D01*
X159945833Y-48948809D01*
X159898214Y-49139285D01*
X159850595Y-49234523D01*
X159755357Y-49329761D01*
X159612500Y-49377380D01*
X159374404Y-49377380D01*
X160326785Y-48472619D02*
X160374404Y-48425000D01*
X160469642Y-48377380D01*
X160707738Y-48377380D01*
X160802976Y-48425000D01*
X160850595Y-48472619D01*
X160898214Y-48567857D01*
X160898214Y-48663095D01*
X160850595Y-48805952D01*
X160279166Y-49377380D01*
X160898214Y-49377380D01*
%TO.C,C4*%
X135833333Y-41427142D02*
X135785714Y-41474761D01*
X135642857Y-41522380D01*
X135547619Y-41522380D01*
X135404761Y-41474761D01*
X135309523Y-41379523D01*
X135261904Y-41284285D01*
X135214285Y-41093809D01*
X135214285Y-40950952D01*
X135261904Y-40760476D01*
X135309523Y-40665238D01*
X135404761Y-40570000D01*
X135547619Y-40522380D01*
X135642857Y-40522380D01*
X135785714Y-40570000D01*
X135833333Y-40617619D01*
X136690476Y-40855714D02*
X136690476Y-41522380D01*
X136452380Y-40474761D02*
X136214285Y-41189047D01*
X136833333Y-41189047D01*
%TO.C,C10*%
X138287142Y-85780357D02*
X138334761Y-85827976D01*
X138382380Y-85970833D01*
X138382380Y-86066071D01*
X138334761Y-86208928D01*
X138239523Y-86304166D01*
X138144285Y-86351785D01*
X137953809Y-86399404D01*
X137810952Y-86399404D01*
X137620476Y-86351785D01*
X137525238Y-86304166D01*
X137430000Y-86208928D01*
X137382380Y-86066071D01*
X137382380Y-85970833D01*
X137430000Y-85827976D01*
X137477619Y-85780357D01*
X138382380Y-84827976D02*
X138382380Y-85399404D01*
X138382380Y-85113690D02*
X137382380Y-85113690D01*
X137525238Y-85208928D01*
X137620476Y-85304166D01*
X137668095Y-85399404D01*
X137382380Y-84208928D02*
X137382380Y-84113690D01*
X137430000Y-84018452D01*
X137477619Y-83970833D01*
X137572857Y-83923214D01*
X137763333Y-83875595D01*
X138001428Y-83875595D01*
X138191904Y-83923214D01*
X138287142Y-83970833D01*
X138334761Y-84018452D01*
X138382380Y-84113690D01*
X138382380Y-84208928D01*
X138334761Y-84304166D01*
X138287142Y-84351785D01*
X138191904Y-84399404D01*
X138001428Y-84447023D01*
X137763333Y-84447023D01*
X137572857Y-84399404D01*
X137477619Y-84351785D01*
X137430000Y-84304166D01*
X137382380Y-84208928D01*
%TO.C,C12*%
X191719642Y-45357142D02*
X191672023Y-45404761D01*
X191529166Y-45452380D01*
X191433928Y-45452380D01*
X191291071Y-45404761D01*
X191195833Y-45309523D01*
X191148214Y-45214285D01*
X191100595Y-45023809D01*
X191100595Y-44880952D01*
X191148214Y-44690476D01*
X191195833Y-44595238D01*
X191291071Y-44500000D01*
X191433928Y-44452380D01*
X191529166Y-44452380D01*
X191672023Y-44500000D01*
X191719642Y-44547619D01*
X192672023Y-45452380D02*
X192100595Y-45452380D01*
X192386309Y-45452380D02*
X192386309Y-44452380D01*
X192291071Y-44595238D01*
X192195833Y-44690476D01*
X192100595Y-44738095D01*
X193052976Y-44547619D02*
X193100595Y-44500000D01*
X193195833Y-44452380D01*
X193433928Y-44452380D01*
X193529166Y-44500000D01*
X193576785Y-44547619D01*
X193624404Y-44642857D01*
X193624404Y-44738095D01*
X193576785Y-44880952D01*
X193005357Y-45452380D01*
X193624404Y-45452380D01*
%TO.C,BT2*%
X171464285Y-84678571D02*
X171607142Y-84726190D01*
X171654761Y-84773809D01*
X171702380Y-84869047D01*
X171702380Y-85011904D01*
X171654761Y-85107142D01*
X171607142Y-85154761D01*
X171511904Y-85202380D01*
X171130952Y-85202380D01*
X171130952Y-84202380D01*
X171464285Y-84202380D01*
X171559523Y-84250000D01*
X171607142Y-84297619D01*
X171654761Y-84392857D01*
X171654761Y-84488095D01*
X171607142Y-84583333D01*
X171559523Y-84630952D01*
X171464285Y-84678571D01*
X171130952Y-84678571D01*
X171988095Y-84202380D02*
X172559523Y-84202380D01*
X172273809Y-85202380D02*
X172273809Y-84202380D01*
X172845238Y-84297619D02*
X172892857Y-84250000D01*
X172988095Y-84202380D01*
X173226190Y-84202380D01*
X173321428Y-84250000D01*
X173369047Y-84297619D01*
X173416666Y-84392857D01*
X173416666Y-84488095D01*
X173369047Y-84630952D01*
X172797619Y-85202380D01*
X173416666Y-85202380D01*
X190703571Y-81892142D02*
X191846428Y-81892142D01*
X191275000Y-82463571D02*
X191275000Y-81320714D01*
%TO.C,L1*%
X141320833Y-83632380D02*
X140844642Y-83632380D01*
X140844642Y-82632380D01*
X142177976Y-83632380D02*
X141606547Y-83632380D01*
X141892261Y-83632380D02*
X141892261Y-82632380D01*
X141797023Y-82775238D01*
X141701785Y-82870476D01*
X141606547Y-82918095D01*
%TO.C,C2*%
X124427142Y-50804166D02*
X124474761Y-50851785D01*
X124522380Y-50994642D01*
X124522380Y-51089880D01*
X124474761Y-51232738D01*
X124379523Y-51327976D01*
X124284285Y-51375595D01*
X124093809Y-51423214D01*
X123950952Y-51423214D01*
X123760476Y-51375595D01*
X123665238Y-51327976D01*
X123570000Y-51232738D01*
X123522380Y-51089880D01*
X123522380Y-50994642D01*
X123570000Y-50851785D01*
X123617619Y-50804166D01*
X123617619Y-50423214D02*
X123570000Y-50375595D01*
X123522380Y-50280357D01*
X123522380Y-50042261D01*
X123570000Y-49947023D01*
X123617619Y-49899404D01*
X123712857Y-49851785D01*
X123808095Y-49851785D01*
X123950952Y-49899404D01*
X124522380Y-50470833D01*
X124522380Y-49851785D01*
%TO.C,J6*%
X200626666Y-38162380D02*
X200626666Y-38876666D01*
X200579047Y-39019523D01*
X200483809Y-39114761D01*
X200340952Y-39162380D01*
X200245714Y-39162380D01*
X201531428Y-38162380D02*
X201340952Y-38162380D01*
X201245714Y-38210000D01*
X201198095Y-38257619D01*
X201102857Y-38400476D01*
X201055238Y-38590952D01*
X201055238Y-38971904D01*
X201102857Y-39067142D01*
X201150476Y-39114761D01*
X201245714Y-39162380D01*
X201436190Y-39162380D01*
X201531428Y-39114761D01*
X201579047Y-39067142D01*
X201626666Y-38971904D01*
X201626666Y-38733809D01*
X201579047Y-38638571D01*
X201531428Y-38590952D01*
X201436190Y-38543333D01*
X201245714Y-38543333D01*
X201150476Y-38590952D01*
X201102857Y-38638571D01*
X201055238Y-38733809D01*
%TO.C,D1*%
X116761904Y-51302380D02*
X116761904Y-50302380D01*
X117000000Y-50302380D01*
X117142857Y-50350000D01*
X117238095Y-50445238D01*
X117285714Y-50540476D01*
X117333333Y-50730952D01*
X117333333Y-50873809D01*
X117285714Y-51064285D01*
X117238095Y-51159523D01*
X117142857Y-51254761D01*
X117000000Y-51302380D01*
X116761904Y-51302380D01*
X118285714Y-51302380D02*
X117714285Y-51302380D01*
X118000000Y-51302380D02*
X118000000Y-50302380D01*
X117904761Y-50445238D01*
X117809523Y-50540476D01*
X117714285Y-50588095D01*
%TO.C,BT1*%
X126714285Y-57428571D02*
X126857142Y-57476190D01*
X126904761Y-57523809D01*
X126952380Y-57619047D01*
X126952380Y-57761904D01*
X126904761Y-57857142D01*
X126857142Y-57904761D01*
X126761904Y-57952380D01*
X126380952Y-57952380D01*
X126380952Y-56952380D01*
X126714285Y-56952380D01*
X126809523Y-57000000D01*
X126857142Y-57047619D01*
X126904761Y-57142857D01*
X126904761Y-57238095D01*
X126857142Y-57333333D01*
X126809523Y-57380952D01*
X126714285Y-57428571D01*
X126380952Y-57428571D01*
X127238095Y-56952380D02*
X127809523Y-56952380D01*
X127523809Y-57952380D02*
X127523809Y-56952380D01*
X128666666Y-57952380D02*
X128095238Y-57952380D01*
X128380952Y-57952380D02*
X128380952Y-56952380D01*
X128285714Y-57095238D01*
X128190476Y-57190476D01*
X128095238Y-57238095D01*
%TO.C,R6*%
X192833333Y-54952380D02*
X192500000Y-54476190D01*
X192261904Y-54952380D02*
X192261904Y-53952380D01*
X192642857Y-53952380D01*
X192738095Y-54000000D01*
X192785714Y-54047619D01*
X192833333Y-54142857D01*
X192833333Y-54285714D01*
X192785714Y-54380952D01*
X192738095Y-54428571D01*
X192642857Y-54476190D01*
X192261904Y-54476190D01*
X193690476Y-53952380D02*
X193500000Y-53952380D01*
X193404761Y-54000000D01*
X193357142Y-54047619D01*
X193261904Y-54190476D01*
X193214285Y-54380952D01*
X193214285Y-54761904D01*
X193261904Y-54857142D01*
X193309523Y-54904761D01*
X193404761Y-54952380D01*
X193595238Y-54952380D01*
X193690476Y-54904761D01*
X193738095Y-54857142D01*
X193785714Y-54761904D01*
X193785714Y-54523809D01*
X193738095Y-54428571D01*
X193690476Y-54380952D01*
X193595238Y-54333333D01*
X193404761Y-54333333D01*
X193309523Y-54380952D01*
X193261904Y-54428571D01*
X193214285Y-54523809D01*
%TO.C,R5*%
X192833333Y-52452380D02*
X192500000Y-51976190D01*
X192261904Y-52452380D02*
X192261904Y-51452380D01*
X192642857Y-51452380D01*
X192738095Y-51500000D01*
X192785714Y-51547619D01*
X192833333Y-51642857D01*
X192833333Y-51785714D01*
X192785714Y-51880952D01*
X192738095Y-51928571D01*
X192642857Y-51976190D01*
X192261904Y-51976190D01*
X193738095Y-51452380D02*
X193261904Y-51452380D01*
X193214285Y-51928571D01*
X193261904Y-51880952D01*
X193357142Y-51833333D01*
X193595238Y-51833333D01*
X193690476Y-51880952D01*
X193738095Y-51928571D01*
X193785714Y-52023809D01*
X193785714Y-52261904D01*
X193738095Y-52357142D01*
X193690476Y-52404761D01*
X193595238Y-52452380D01*
X193357142Y-52452380D01*
X193261904Y-52404761D01*
X193214285Y-52357142D01*
%TO.C,C16*%
X165107142Y-57287142D02*
X165059523Y-57334761D01*
X164916666Y-57382380D01*
X164821428Y-57382380D01*
X164678571Y-57334761D01*
X164583333Y-57239523D01*
X164535714Y-57144285D01*
X164488095Y-56953809D01*
X164488095Y-56810952D01*
X164535714Y-56620476D01*
X164583333Y-56525238D01*
X164678571Y-56430000D01*
X164821428Y-56382380D01*
X164916666Y-56382380D01*
X165059523Y-56430000D01*
X165107142Y-56477619D01*
X166059523Y-57382380D02*
X165488095Y-57382380D01*
X165773809Y-57382380D02*
X165773809Y-56382380D01*
X165678571Y-56525238D01*
X165583333Y-56620476D01*
X165488095Y-56668095D01*
X166916666Y-56382380D02*
X166726190Y-56382380D01*
X166630952Y-56430000D01*
X166583333Y-56477619D01*
X166488095Y-56620476D01*
X166440476Y-56810952D01*
X166440476Y-57191904D01*
X166488095Y-57287142D01*
X166535714Y-57334761D01*
X166630952Y-57382380D01*
X166821428Y-57382380D01*
X166916666Y-57334761D01*
X166964285Y-57287142D01*
X167011904Y-57191904D01*
X167011904Y-56953809D01*
X166964285Y-56858571D01*
X166916666Y-56810952D01*
X166821428Y-56763333D01*
X166630952Y-56763333D01*
X166535714Y-56810952D01*
X166488095Y-56858571D01*
X166440476Y-56953809D01*
D11*
%TO.C,U2*%
X129000000Y-48060000D02*
X130950000Y-48060000D01*
X129000000Y-37940000D02*
X125550000Y-37940000D01*
X129000000Y-48060000D02*
X127050000Y-48060000D01*
X129000000Y-37940000D02*
X130950000Y-37940000D01*
%TO.C,R8*%
X159410000Y-82677064D02*
X159410000Y-81222936D01*
X157590000Y-82677064D02*
X157590000Y-81222936D01*
%TO.C,D4*%
X139600000Y-53600000D02*
X139600000Y-56750000D01*
X139600000Y-53600000D02*
X137900000Y-53600000D01*
X137900000Y-53600000D02*
X137900000Y-56750000D01*
%TO.C,J4*%
X126900000Y-79750000D02*
X125650000Y-79750000D01*
X126700000Y-82300000D02*
X126700000Y-85250000D01*
X133550000Y-80050000D02*
X131750000Y-80050000D01*
X130250000Y-80050000D02*
X129250000Y-80050000D01*
X133560000Y-80040000D02*
X125940000Y-80040000D01*
X133550000Y-80800000D02*
X133550000Y-80050000D01*
X129250000Y-80800000D02*
X130250000Y-80800000D01*
X127750000Y-80800000D02*
X127750000Y-80050000D01*
X126700000Y-85250000D02*
X129750000Y-85250000D01*
X125940000Y-86010000D02*
X133560000Y-86010000D01*
X132800000Y-85250000D02*
X129750000Y-85250000D01*
X133550000Y-82300000D02*
X132800000Y-82300000D01*
X125950000Y-80050000D02*
X125950000Y-80800000D01*
X129250000Y-80050000D02*
X129250000Y-80800000D01*
X133560000Y-86010000D02*
X133560000Y-80040000D01*
X125950000Y-80800000D02*
X127750000Y-80800000D01*
X125650000Y-79750000D02*
X125650000Y-81000000D01*
X131750000Y-80050000D02*
X131750000Y-80800000D01*
X125940000Y-80040000D02*
X125940000Y-86010000D01*
X127750000Y-80050000D02*
X125950000Y-80050000D01*
X130250000Y-80800000D02*
X130250000Y-80050000D01*
X132800000Y-82300000D02*
X132800000Y-85250000D01*
X131750000Y-80800000D02*
X133550000Y-80800000D01*
X125950000Y-82300000D02*
X126700000Y-82300000D01*
%TO.C,J7*%
X157300000Y-28250000D02*
X149250000Y-28250000D01*
X140450000Y-31200000D02*
X141200000Y-31200000D01*
X142250000Y-33450000D02*
X142250000Y-32700000D01*
X143750000Y-32700000D02*
X143750000Y-33450000D01*
X154750000Y-33450000D02*
X154750000Y-32700000D01*
X140440000Y-27490000D02*
X140440000Y-33460000D01*
X143750000Y-33450000D02*
X154750000Y-33450000D01*
X157100000Y-33750000D02*
X158350000Y-33750000D01*
X158060000Y-27490000D02*
X140440000Y-27490000D01*
X158060000Y-33460000D02*
X158060000Y-27490000D01*
X158050000Y-32700000D02*
X156250000Y-32700000D01*
X157300000Y-31200000D02*
X157300000Y-28250000D01*
X141200000Y-28250000D02*
X149250000Y-28250000D01*
X140450000Y-33450000D02*
X142250000Y-33450000D01*
X154750000Y-32700000D02*
X143750000Y-32700000D01*
X141200000Y-31200000D02*
X141200000Y-28250000D01*
X158350000Y-33750000D02*
X158350000Y-32500000D01*
X156250000Y-32700000D02*
X156250000Y-33450000D01*
X142250000Y-32700000D02*
X140450000Y-32700000D01*
X158050000Y-31200000D02*
X157300000Y-31200000D01*
X158050000Y-33450000D02*
X158050000Y-32700000D01*
X140440000Y-33460000D02*
X158060000Y-33460000D01*
X140450000Y-32700000D02*
X140450000Y-33450000D01*
X156250000Y-33450000D02*
X158050000Y-33450000D01*
%TO.C,J5*%
X135750000Y-33450000D02*
X135750000Y-32700000D01*
X126440000Y-27490000D02*
X126440000Y-33460000D01*
X139050000Y-32700000D02*
X137250000Y-32700000D01*
X126450000Y-32700000D02*
X126450000Y-33450000D01*
X127200000Y-28250000D02*
X132750000Y-28250000D01*
X138300000Y-31200000D02*
X138300000Y-28250000D01*
X139060000Y-33460000D02*
X139060000Y-27490000D01*
X127200000Y-31200000D02*
X127200000Y-28250000D01*
X137250000Y-33450000D02*
X139050000Y-33450000D01*
X137250000Y-32700000D02*
X137250000Y-33450000D01*
X138300000Y-28250000D02*
X132750000Y-28250000D01*
X129750000Y-32700000D02*
X129750000Y-33450000D01*
X129750000Y-33450000D02*
X135750000Y-33450000D01*
X126450000Y-33450000D02*
X128250000Y-33450000D01*
X139050000Y-31200000D02*
X138300000Y-31200000D01*
X126440000Y-33460000D02*
X139060000Y-33460000D01*
X135750000Y-32700000D02*
X129750000Y-32700000D01*
X126450000Y-31200000D02*
X127200000Y-31200000D01*
X139350000Y-33750000D02*
X139350000Y-32500000D01*
X128250000Y-33450000D02*
X128250000Y-32700000D01*
X139060000Y-27490000D02*
X126440000Y-27490000D01*
X128250000Y-32700000D02*
X126450000Y-32700000D01*
X139050000Y-33450000D02*
X139050000Y-32700000D01*
X138100000Y-33750000D02*
X139350000Y-33750000D01*
%TO.C,C6*%
X155533767Y-51235000D02*
X155241233Y-51235000D01*
X155533767Y-50215000D02*
X155241233Y-50215000D01*
%TO.C,U1*%
X143010000Y-51660000D02*
X143010000Y-50400000D01*
X139250000Y-51660000D02*
X143010000Y-51660000D01*
X137000000Y-44840000D02*
X143010000Y-44840000D01*
X143010000Y-44840000D02*
X143010000Y-46100000D01*
%TO.C,C8*%
X153740000Y-55008767D02*
X153740000Y-54716233D01*
X154760000Y-55008767D02*
X154760000Y-54716233D01*
%TO.C,J1*%
X121312500Y-40800000D02*
X121312500Y-41250000D01*
X118912500Y-46400000D02*
X120762500Y-46400000D01*
X116362500Y-46400000D02*
X116612500Y-46400000D01*
X118912500Y-38600000D02*
X120762500Y-38600000D01*
X121312500Y-40800000D02*
X120862500Y-40800000D01*
X120762500Y-38600000D02*
X120762500Y-39050000D01*
X120762500Y-46400000D02*
X120762500Y-45950000D01*
X116362500Y-38600000D02*
X116612500Y-38600000D01*
%TO.C,Q1*%
X116562500Y-66060000D02*
X115912500Y-66060000D01*
X116562500Y-62940000D02*
X117212500Y-62940000D01*
X116562500Y-62940000D02*
X114887500Y-62940000D01*
X116562500Y-66060000D02*
X117212500Y-66060000D01*
%TO.C,U7*%
X161100000Y-46895000D02*
X164960000Y-46895000D01*
X164960000Y-46895000D02*
X164960000Y-46640000D01*
X157240000Y-36375000D02*
X157240000Y-36630000D01*
X157240000Y-46895000D02*
X157240000Y-46640000D01*
X161100000Y-36375000D02*
X164960000Y-36375000D01*
X161100000Y-36375000D02*
X157240000Y-36375000D01*
X164960000Y-36375000D02*
X164960000Y-36630000D01*
X157240000Y-36630000D02*
X155425000Y-36630000D01*
X161100000Y-46895000D02*
X157240000Y-46895000D01*
%TO.C,C9*%
X161490000Y-54466233D02*
X161490000Y-54758767D01*
X162510000Y-54466233D02*
X162510000Y-54758767D01*
%TO.C,U3*%
X157887500Y-53215000D02*
X156087500Y-53215000D01*
X157887500Y-56335000D02*
X157087500Y-56335000D01*
X157887500Y-56335000D02*
X158687500Y-56335000D01*
X157887500Y-53215000D02*
X158687500Y-53215000D01*
D10*
%TO.C,U6*%
X185025000Y-46625000D02*
X184700000Y-46625000D01*
X177775000Y-53875000D02*
X178100000Y-53875000D01*
X185025000Y-53875000D02*
X185025000Y-53550000D01*
X185025000Y-46625000D02*
X185025000Y-46950000D01*
X177775000Y-46850000D02*
X176350000Y-46850000D01*
X185025000Y-53875000D02*
X184700000Y-53875000D01*
X177775000Y-46625000D02*
X178100000Y-46625000D01*
X177775000Y-53875000D02*
X177775000Y-53550000D01*
X177775000Y-46625000D02*
X177775000Y-46850000D01*
D11*
%TO.C,R2*%
X139590000Y-40677064D02*
X139590000Y-39222936D01*
X141410000Y-40677064D02*
X141410000Y-39222936D01*
%TO.C,C5*%
X146490000Y-48260000D02*
X150875000Y-48260000D01*
X150875000Y-45240000D02*
X146490000Y-45240000D01*
X146490000Y-45240000D02*
X146490000Y-48260000D01*
%TO.C,C15*%
X170326267Y-49420000D02*
X170033733Y-49420000D01*
X170326267Y-50440000D02*
X170033733Y-50440000D01*
%TO.C,C3*%
X133490000Y-50641233D02*
X133490000Y-50933767D01*
X134510000Y-50641233D02*
X134510000Y-50933767D01*
%TO.C,R4*%
X188822936Y-48590000D02*
X190277064Y-48590000D01*
X188822936Y-50410000D02*
X190277064Y-50410000D01*
%TO.C,R7*%
X154590000Y-81222936D02*
X154590000Y-82677064D01*
X156410000Y-81222936D02*
X156410000Y-82677064D01*
%TO.C,J3*%
X159450000Y-32700000D02*
X159450000Y-33450000D01*
X172050000Y-31200000D02*
X171300000Y-31200000D01*
X172060000Y-27490000D02*
X159440000Y-27490000D01*
X170250000Y-32700000D02*
X170250000Y-33450000D01*
X161250000Y-33450000D02*
X161250000Y-32700000D01*
X171300000Y-31200000D02*
X171300000Y-28250000D01*
X162750000Y-33450000D02*
X168750000Y-33450000D01*
X160200000Y-28250000D02*
X165750000Y-28250000D01*
X168750000Y-33450000D02*
X168750000Y-32700000D01*
X170250000Y-33450000D02*
X172050000Y-33450000D01*
X168750000Y-32700000D02*
X162750000Y-32700000D01*
X161250000Y-32700000D02*
X159450000Y-32700000D01*
X171100000Y-33750000D02*
X172350000Y-33750000D01*
X162750000Y-32700000D02*
X162750000Y-33450000D01*
X171300000Y-28250000D02*
X165750000Y-28250000D01*
X172050000Y-33450000D02*
X172050000Y-32700000D01*
X159440000Y-27490000D02*
X159440000Y-33460000D01*
X172060000Y-33460000D02*
X172060000Y-27490000D01*
X172350000Y-33750000D02*
X172350000Y-32500000D01*
X159440000Y-33460000D02*
X172060000Y-33460000D01*
X172050000Y-32700000D02*
X170250000Y-32700000D01*
X160200000Y-31200000D02*
X160200000Y-28250000D01*
X159450000Y-31200000D02*
X160200000Y-31200000D01*
X159450000Y-33450000D02*
X161250000Y-33450000D01*
%TO.C,R1*%
X119590000Y-64677064D02*
X119590000Y-63222936D01*
X121410000Y-64677064D02*
X121410000Y-63222936D01*
%TO.C,R3*%
X190277064Y-46090000D02*
X188822936Y-46090000D01*
X190277064Y-47910000D02*
X188822936Y-47910000D01*
%TO.C,JP2*%
X144750000Y-54200000D02*
X144750000Y-57000000D01*
X142750000Y-57000000D02*
X142750000Y-54200000D01*
X142750000Y-54200000D02*
X144750000Y-54200000D01*
X144750000Y-57000000D02*
X142750000Y-57000000D01*
%TO.C,C1*%
X148966233Y-50240000D02*
X149258767Y-50240000D01*
X148966233Y-51260000D02*
X149258767Y-51260000D01*
%TO.C,C11*%
X162010000Y-82146267D02*
X162010000Y-81853733D01*
X160990000Y-82146267D02*
X160990000Y-81853733D01*
%TO.C,D3*%
X137350000Y-83150000D02*
X137350000Y-80000000D01*
X135650000Y-83150000D02*
X135650000Y-80000000D01*
X135650000Y-83150000D02*
X137350000Y-83150000D01*
D12*
%TO.C,U5*%
X152100000Y-81375000D02*
X152100000Y-81075000D01*
X147500000Y-84275000D02*
X148100000Y-84275000D01*
X147450000Y-81425000D02*
X146950000Y-81425000D01*
X152100000Y-84275000D02*
X151600000Y-84275000D01*
X147500000Y-83975000D02*
X147500000Y-84275000D01*
X147850000Y-81075000D02*
X147450000Y-81425000D01*
X152100000Y-83925000D02*
X152100000Y-84275000D01*
X148150000Y-81075000D02*
X147850000Y-81075000D01*
X152100000Y-81075000D02*
X151600000Y-81075000D01*
D11*
%TO.C,J2*%
X118225000Y-74050000D02*
X115275000Y-74050000D01*
X120485000Y-74810000D02*
X120485000Y-67190000D01*
X120475000Y-73000000D02*
X119725000Y-73000000D01*
X120475000Y-71500000D02*
X120475000Y-70500000D01*
X120475000Y-74800000D02*
X120475000Y-73000000D01*
X120475000Y-67200000D02*
X119725000Y-67200000D01*
X118225000Y-74800000D02*
X118225000Y-74050000D01*
X119725000Y-70500000D02*
X119725000Y-71500000D01*
X119725000Y-67200000D02*
X119725000Y-69000000D01*
X118225000Y-67950000D02*
X115275000Y-67950000D01*
X119725000Y-74800000D02*
X120475000Y-74800000D01*
X120475000Y-69000000D02*
X120475000Y-67200000D01*
X120485000Y-67190000D02*
X114515000Y-67190000D01*
X119725000Y-73000000D02*
X119725000Y-74800000D01*
X114515000Y-74810000D02*
X120485000Y-74810000D01*
X120475000Y-70500000D02*
X119725000Y-70500000D01*
X120775000Y-66900000D02*
X119525000Y-66900000D01*
X114515000Y-67190000D02*
X114515000Y-74810000D01*
X115275000Y-67950000D02*
X115275000Y-71000000D01*
X118225000Y-67200000D02*
X118225000Y-67950000D01*
X119725000Y-71500000D02*
X120475000Y-71500000D01*
X120775000Y-68150000D02*
X120775000Y-66900000D01*
X115275000Y-74050000D02*
X115275000Y-71000000D01*
X119725000Y-69000000D02*
X120475000Y-69000000D01*
%TO.C,Y2*%
X172880000Y-55590000D02*
X172880000Y-51090000D01*
X172880000Y-51090000D02*
X167480000Y-51090000D01*
%TO.C,C13*%
X188853733Y-57510000D02*
X189146267Y-57510000D01*
X188853733Y-56490000D02*
X189146267Y-56490000D01*
%TO.C,C7*%
X135853733Y-37990000D02*
X136146267Y-37990000D01*
X135853733Y-39010000D02*
X136146267Y-39010000D01*
%TO.C,U4*%
X177400000Y-43600000D02*
X193600000Y-43600000D01*
X177400000Y-27400000D02*
X177400000Y-27750000D01*
X193600000Y-27400000D02*
X193600000Y-27800000D01*
X193600000Y-43600000D02*
X193600000Y-43200000D01*
X177400000Y-43200000D02*
X177400000Y-43600000D01*
X177400000Y-27750000D02*
X176500000Y-27750000D01*
X177400000Y-27400000D02*
X193600000Y-27400000D01*
%TO.C,Y1*%
X126861300Y-53900000D02*
X132261300Y-53900000D01*
X126861300Y-49400000D02*
X126861300Y-53900000D01*
%TO.C,JP1*%
X172550000Y-80700000D02*
X172550000Y-81300000D01*
X170450000Y-80000000D02*
X171850000Y-80000000D01*
X169750000Y-81300000D02*
X169750000Y-80700000D01*
X171850000Y-82000000D02*
X170450000Y-82000000D01*
X171850000Y-82000000D02*
G75*
G03*
X172550000Y-81300000I1J699999D01*
G01*
X169750000Y-81300000D02*
G75*
G03*
X170450000Y-82000000I700000J0D01*
G01*
X170450000Y-80000000D02*
G75*
G03*
X169750000Y-80700000I0J-700000D01*
G01*
X172550000Y-80700000D02*
G75*
G03*
X171850000Y-80000000I-699999J1D01*
G01*
%TO.C,C14*%
X141008767Y-80510000D02*
X140716233Y-80510000D01*
X141008767Y-79490000D02*
X140716233Y-79490000D01*
%TO.C,D2*%
X158212500Y-49925000D02*
X158212500Y-51625000D01*
X158212500Y-51625000D02*
X161362500Y-51625000D01*
X158212500Y-49925000D02*
X161362500Y-49925000D01*
%TO.C,C4*%
X135853733Y-41990000D02*
X136146267Y-41990000D01*
X135853733Y-43010000D02*
X136146267Y-43010000D01*
%TO.C,C10*%
X137010000Y-84991233D02*
X137010000Y-85283767D01*
X135990000Y-84991233D02*
X135990000Y-85283767D01*
%TO.C,C12*%
X188716233Y-45510000D02*
X189008767Y-45510000D01*
X188716233Y-44490000D02*
X189008767Y-44490000D01*
%TO.C,BT2*%
X187465000Y-80875000D02*
X174090000Y-80875000D01*
X194410000Y-85145000D02*
X194410000Y-80875000D01*
X194410000Y-80875000D02*
X190685000Y-80875000D01*
X177845000Y-85145000D02*
X174090000Y-85145000D01*
X174090000Y-85145000D02*
X174090000Y-80875000D01*
X194410000Y-85145000D02*
X179965000Y-85145000D01*
%TO.C,L1*%
X140885436Y-84090000D02*
X142089564Y-84090000D01*
X140885436Y-85910000D02*
X142089564Y-85910000D01*
%TO.C,C2*%
X124990000Y-50783767D02*
X124990000Y-50491233D01*
X126010000Y-50783767D02*
X126010000Y-50491233D01*
%TO.C,J6*%
X199510000Y-40105000D02*
X202410000Y-40105000D01*
X197605000Y-42010000D02*
X197605000Y-44910000D01*
X204315000Y-42010000D02*
X204315000Y-44910000D01*
X199510000Y-46815000D02*
X202410000Y-46815000D01*
%TO.C,D1*%
X119400000Y-49850000D02*
X119400000Y-48150000D01*
X119400000Y-48150000D02*
X116250000Y-48150000D01*
X119400000Y-49850000D02*
X116250000Y-49850000D01*
%TO.C,BT1*%
X122000000Y-78550000D02*
X122000000Y-58450000D01*
X200000000Y-58450000D02*
X200000000Y-78550000D01*
X122000000Y-58450000D02*
X200000000Y-58450000D01*
X200000000Y-78550000D02*
X122000000Y-78550000D01*
%TO.C,R6*%
X188822936Y-55410000D02*
X190277064Y-55410000D01*
X188822936Y-53590000D02*
X190277064Y-53590000D01*
%TO.C,R5*%
X190277064Y-51090000D02*
X188822936Y-51090000D01*
X190277064Y-52910000D02*
X188822936Y-52910000D01*
%TO.C,C16*%
X170076233Y-56420000D02*
X170368767Y-56420000D01*
X170076233Y-57440000D02*
X170368767Y-57440000D01*
%TD*%
M02*
